G04 #@! TF.GenerationSoftware,KiCad,Pcbnew,(5.1.5)-3*
G04 #@! TF.CreationDate,2020-08-02T12:18:10-07:00*
G04 #@! TF.ProjectId,4-mill-vent,342d6d69-6c6c-42d7-9665-6e742e6b6963,rev?*
G04 #@! TF.SameCoordinates,Original*
G04 #@! TF.FileFunction,Soldermask,Bot*
G04 #@! TF.FilePolarity,Negative*
%FSLAX46Y46*%
G04 Gerber Fmt 4.6, Leading zero omitted, Abs format (unit mm)*
G04 Created by KiCad (PCBNEW (5.1.5)-3) date 2020-08-02 12:18:10*
%MOMM*%
%LPD*%
G04 APERTURE LIST*
%ADD10C,0.100000*%
G04 APERTURE END LIST*
D10*
G36*
X138229548Y-106563326D02*
G01*
X138403157Y-106615990D01*
X138563156Y-106701511D01*
X138577612Y-106713375D01*
X138703397Y-106816603D01*
X138782729Y-106913271D01*
X138818489Y-106956844D01*
X138904010Y-107116843D01*
X138956674Y-107290452D01*
X138970000Y-107425757D01*
X138970000Y-107966244D01*
X138956674Y-108101548D01*
X138904010Y-108275157D01*
X138818489Y-108435156D01*
X138782729Y-108478729D01*
X138703397Y-108575397D01*
X138563155Y-108690489D01*
X138403156Y-108776010D01*
X138229547Y-108828674D01*
X138049000Y-108846456D01*
X137868452Y-108828674D01*
X137694843Y-108776010D01*
X137534844Y-108690489D01*
X137491271Y-108654729D01*
X137394603Y-108575397D01*
X137279511Y-108435155D01*
X137193991Y-108275158D01*
X137193990Y-108275156D01*
X137141326Y-108101547D01*
X137128000Y-107966243D01*
X137128000Y-107425756D01*
X137141326Y-107290452D01*
X137193990Y-107116843D01*
X137279512Y-106956844D01*
X137289832Y-106944269D01*
X137394604Y-106816603D01*
X137520389Y-106713375D01*
X137534845Y-106701511D01*
X137694844Y-106615990D01*
X137868453Y-106563326D01*
X138049000Y-106545544D01*
X138229548Y-106563326D01*
G37*
G36*
X141368561Y-106553966D02*
G01*
X141401383Y-106563923D01*
X141431632Y-106580092D01*
X141458148Y-106601852D01*
X141479908Y-106628368D01*
X141496077Y-106658617D01*
X141506034Y-106691439D01*
X141510000Y-106731713D01*
X141510000Y-108660287D01*
X141506034Y-108700561D01*
X141496077Y-108733383D01*
X141479908Y-108763632D01*
X141458148Y-108790148D01*
X141431632Y-108811908D01*
X141401383Y-108828077D01*
X141368561Y-108838034D01*
X141328287Y-108842000D01*
X139849713Y-108842000D01*
X139809439Y-108838034D01*
X139776617Y-108828077D01*
X139746368Y-108811908D01*
X139719852Y-108790148D01*
X139698092Y-108763632D01*
X139681923Y-108733383D01*
X139671966Y-108700561D01*
X139668000Y-108660287D01*
X139668000Y-106731713D01*
X139671966Y-106691439D01*
X139681923Y-106658617D01*
X139698092Y-106628368D01*
X139719852Y-106601852D01*
X139746368Y-106580092D01*
X139776617Y-106563923D01*
X139809439Y-106553966D01*
X139849713Y-106550000D01*
X141328287Y-106550000D01*
X141368561Y-106553966D01*
G37*
G36*
X151303000Y-106182000D02*
G01*
X147401000Y-106182000D01*
X147401000Y-104080000D01*
X151303000Y-104080000D01*
X151303000Y-106182000D01*
G37*
G36*
X124724300Y-105770300D02*
G01*
X118472300Y-105770300D01*
X118472300Y-104068300D01*
X124724300Y-104068300D01*
X124724300Y-105770300D01*
G37*
G36*
X118199300Y-103795300D02*
G01*
X116497300Y-103795300D01*
X116497300Y-97543300D01*
X118199300Y-97543300D01*
X118199300Y-103795300D01*
G37*
G36*
X126699300Y-103795300D02*
G01*
X124997300Y-103795300D01*
X124997300Y-97543300D01*
X126699300Y-97543300D01*
X126699300Y-103795300D01*
G37*
G36*
X152453000Y-99882000D02*
G01*
X150851000Y-99882000D01*
X150851000Y-97780000D01*
X152453000Y-97780000D01*
X152453000Y-99882000D01*
G37*
G36*
X150153000Y-99882000D02*
G01*
X148551000Y-99882000D01*
X148551000Y-97780000D01*
X150153000Y-97780000D01*
X150153000Y-99882000D01*
G37*
G36*
X147853000Y-99882000D02*
G01*
X146251000Y-99882000D01*
X146251000Y-97780000D01*
X147853000Y-97780000D01*
X147853000Y-99882000D01*
G37*
G36*
X124724300Y-97270300D02*
G01*
X118472300Y-97270300D01*
X118472300Y-95568300D01*
X124724300Y-95568300D01*
X124724300Y-97270300D01*
G37*
G36*
X148093000Y-91062000D02*
G01*
X144841000Y-91062000D01*
X144841000Y-89960000D01*
X148093000Y-89960000D01*
X148093000Y-91062000D01*
G37*
G36*
X143043000Y-91062000D02*
G01*
X139791000Y-91062000D01*
X139791000Y-89960000D01*
X143043000Y-89960000D01*
X143043000Y-91062000D01*
G37*
G36*
X132374000Y-89212000D02*
G01*
X129772000Y-89212000D01*
X129772000Y-86810000D01*
X132374000Y-86810000D01*
X132374000Y-89212000D01*
G37*
G36*
X136674000Y-89212000D02*
G01*
X134072000Y-89212000D01*
X134072000Y-86810000D01*
X136674000Y-86810000D01*
X136674000Y-89212000D01*
G37*
G36*
X143043000Y-88522000D02*
G01*
X139791000Y-88522000D01*
X139791000Y-87420000D01*
X143043000Y-87420000D01*
X143043000Y-88522000D01*
G37*
G36*
X148093000Y-88522000D02*
G01*
X144841000Y-88522000D01*
X144841000Y-87420000D01*
X148093000Y-87420000D01*
X148093000Y-88522000D01*
G37*
G36*
X148093000Y-85982000D02*
G01*
X144841000Y-85982000D01*
X144841000Y-84880000D01*
X148093000Y-84880000D01*
X148093000Y-85982000D01*
G37*
G36*
X143043000Y-85982000D02*
G01*
X139791000Y-85982000D01*
X139791000Y-84880000D01*
X143043000Y-84880000D01*
X143043000Y-85982000D01*
G37*
G36*
X122944000Y-85882000D02*
G01*
X116442000Y-85882000D01*
X116442000Y-79980000D01*
X122944000Y-79980000D01*
X122944000Y-85882000D01*
G37*
G36*
X127144000Y-85862000D02*
G01*
X124842000Y-85862000D01*
X124842000Y-84560000D01*
X127144000Y-84560000D01*
X127144000Y-85862000D01*
G37*
G36*
X136766132Y-82470810D02*
G01*
X136797423Y-82480302D01*
X136826263Y-82495717D01*
X136851539Y-82516461D01*
X136872283Y-82541737D01*
X136887698Y-82570577D01*
X136897190Y-82601868D01*
X136901000Y-82640551D01*
X136901000Y-84745449D01*
X136897190Y-84784132D01*
X136887698Y-84815423D01*
X136872283Y-84844263D01*
X136851539Y-84869539D01*
X136826263Y-84890283D01*
X136797423Y-84905698D01*
X136766132Y-84915190D01*
X136727449Y-84919000D01*
X134897551Y-84919000D01*
X134858868Y-84915190D01*
X134827577Y-84905698D01*
X134798737Y-84890283D01*
X134773461Y-84869539D01*
X134752717Y-84844263D01*
X134737302Y-84815423D01*
X134727810Y-84784132D01*
X134724000Y-84745449D01*
X134724000Y-82640551D01*
X134727810Y-82601868D01*
X134737302Y-82570577D01*
X134752717Y-82541737D01*
X134773461Y-82516461D01*
X134798737Y-82495717D01*
X134827577Y-82480302D01*
X134858868Y-82470810D01*
X134897551Y-82467000D01*
X136727449Y-82467000D01*
X136766132Y-82470810D01*
G37*
G36*
X131841132Y-82470810D02*
G01*
X131872423Y-82480302D01*
X131901263Y-82495717D01*
X131926539Y-82516461D01*
X131947283Y-82541737D01*
X131962698Y-82570577D01*
X131972190Y-82601868D01*
X131976000Y-82640551D01*
X131976000Y-84745449D01*
X131972190Y-84784132D01*
X131962698Y-84815423D01*
X131947283Y-84844263D01*
X131926539Y-84869539D01*
X131901263Y-84890283D01*
X131872423Y-84905698D01*
X131841132Y-84915190D01*
X131802449Y-84919000D01*
X129972551Y-84919000D01*
X129933868Y-84915190D01*
X129902577Y-84905698D01*
X129873737Y-84890283D01*
X129848461Y-84869539D01*
X129827717Y-84844263D01*
X129812302Y-84815423D01*
X129802810Y-84784132D01*
X129799000Y-84745449D01*
X129799000Y-82640551D01*
X129802810Y-82601868D01*
X129812302Y-82570577D01*
X129827717Y-82541737D01*
X129848461Y-82516461D01*
X129873737Y-82495717D01*
X129902577Y-82480302D01*
X129933868Y-82470810D01*
X129972551Y-82467000D01*
X131802449Y-82467000D01*
X131841132Y-82470810D01*
G37*
G36*
X127144000Y-81302000D02*
G01*
X124842000Y-81302000D01*
X124842000Y-80000000D01*
X127144000Y-80000000D01*
X127144000Y-81302000D01*
G37*
G36*
X146738547Y-78877326D02*
G01*
X146912156Y-78929990D01*
X146912158Y-78929991D01*
X147072155Y-79015511D01*
X147212397Y-79130603D01*
X147291729Y-79227271D01*
X147327489Y-79270844D01*
X147413010Y-79430843D01*
X147465674Y-79604452D01*
X147465674Y-79604454D01*
X147479000Y-79739755D01*
X147479000Y-80280244D01*
X147475669Y-80314069D01*
X147465674Y-80415548D01*
X147413010Y-80589157D01*
X147327489Y-80749156D01*
X147291729Y-80792729D01*
X147212397Y-80889397D01*
X147115729Y-80968729D01*
X147072156Y-81004489D01*
X146912157Y-81090010D01*
X146738548Y-81142674D01*
X146558000Y-81160456D01*
X146377453Y-81142674D01*
X146203844Y-81090010D01*
X146043845Y-81004489D01*
X146000272Y-80968729D01*
X145903604Y-80889397D01*
X145788513Y-80749157D01*
X145788512Y-80749155D01*
X145702990Y-80589157D01*
X145650326Y-80415548D01*
X145637000Y-80280244D01*
X145637000Y-79739757D01*
X145650326Y-79604453D01*
X145702990Y-79430844D01*
X145788511Y-79270845D01*
X145788512Y-79270844D01*
X145903603Y-79130603D01*
X146029388Y-79027375D01*
X146043844Y-79015511D01*
X146203843Y-78929990D01*
X146377452Y-78877326D01*
X146558000Y-78859544D01*
X146738547Y-78877326D01*
G37*
G36*
X144198547Y-78877326D02*
G01*
X144372156Y-78929990D01*
X144372158Y-78929991D01*
X144532155Y-79015511D01*
X144672397Y-79130603D01*
X144751729Y-79227271D01*
X144787489Y-79270844D01*
X144873010Y-79430843D01*
X144925674Y-79604452D01*
X144925674Y-79604454D01*
X144939000Y-79739755D01*
X144939000Y-80280244D01*
X144935669Y-80314069D01*
X144925674Y-80415548D01*
X144873010Y-80589157D01*
X144787489Y-80749156D01*
X144751729Y-80792729D01*
X144672397Y-80889397D01*
X144575729Y-80968729D01*
X144532156Y-81004489D01*
X144372157Y-81090010D01*
X144198548Y-81142674D01*
X144018000Y-81160456D01*
X143837453Y-81142674D01*
X143663844Y-81090010D01*
X143503845Y-81004489D01*
X143460272Y-80968729D01*
X143363604Y-80889397D01*
X143248513Y-80749157D01*
X143248512Y-80749155D01*
X143162990Y-80589157D01*
X143110326Y-80415548D01*
X143097000Y-80280244D01*
X143097000Y-79739757D01*
X143110326Y-79604453D01*
X143162990Y-79430844D01*
X143248511Y-79270845D01*
X143248512Y-79270844D01*
X143363603Y-79130603D01*
X143489388Y-79027375D01*
X143503844Y-79015511D01*
X143663843Y-78929990D01*
X143837452Y-78877326D01*
X144018000Y-78859544D01*
X144198547Y-78877326D01*
G37*
G36*
X142257561Y-78867966D02*
G01*
X142290383Y-78877923D01*
X142320632Y-78894092D01*
X142347148Y-78915852D01*
X142368908Y-78942368D01*
X142385077Y-78972617D01*
X142395034Y-79005439D01*
X142399000Y-79045713D01*
X142399000Y-80974287D01*
X142395034Y-81014561D01*
X142385077Y-81047383D01*
X142368908Y-81077632D01*
X142347148Y-81104148D01*
X142320632Y-81125908D01*
X142290383Y-81142077D01*
X142257561Y-81152034D01*
X142217287Y-81156000D01*
X140738713Y-81156000D01*
X140698439Y-81152034D01*
X140665617Y-81142077D01*
X140635368Y-81125908D01*
X140608852Y-81104148D01*
X140587092Y-81077632D01*
X140570923Y-81047383D01*
X140560966Y-81014561D01*
X140557000Y-80974287D01*
X140557000Y-79045713D01*
X140560966Y-79005439D01*
X140570923Y-78972617D01*
X140587092Y-78942368D01*
X140608852Y-78915852D01*
X140635368Y-78894092D01*
X140665617Y-78877923D01*
X140698439Y-78867966D01*
X140738713Y-78864000D01*
X142217287Y-78864000D01*
X142257561Y-78867966D01*
G37*
G36*
X130832000Y-80281000D02*
G01*
X129530000Y-80281000D01*
X129530000Y-77979000D01*
X130832000Y-77979000D01*
X130832000Y-80281000D01*
G37*
G36*
X133112000Y-80281000D02*
G01*
X131810000Y-80281000D01*
X131810000Y-77979000D01*
X133112000Y-77979000D01*
X133112000Y-80281000D01*
G37*
G36*
X135392000Y-80281000D02*
G01*
X134090000Y-80281000D01*
X134090000Y-77979000D01*
X135392000Y-77979000D01*
X135392000Y-80281000D01*
G37*
G36*
X153483000Y-78262000D02*
G01*
X151881000Y-78262000D01*
X151881000Y-76160000D01*
X153483000Y-76160000D01*
X153483000Y-78262000D01*
G37*
G36*
X151183000Y-78262000D02*
G01*
X149581000Y-78262000D01*
X149581000Y-76160000D01*
X151183000Y-76160000D01*
X151183000Y-78262000D01*
G37*
G36*
X155783000Y-78262000D02*
G01*
X154181000Y-78262000D01*
X154181000Y-76160000D01*
X155783000Y-76160000D01*
X155783000Y-78262000D01*
G37*
G36*
X135412000Y-76081000D02*
G01*
X129510000Y-76081000D01*
X129510000Y-69579000D01*
X135412000Y-69579000D01*
X135412000Y-76081000D01*
G37*
G36*
X141763347Y-71873826D02*
G01*
X141936956Y-71926490D01*
X141936958Y-71926491D01*
X142096955Y-72012011D01*
X142237197Y-72127103D01*
X142316529Y-72223771D01*
X142352289Y-72267344D01*
X142437810Y-72427343D01*
X142490474Y-72600952D01*
X142503800Y-72736256D01*
X142503800Y-73276743D01*
X142490474Y-73412048D01*
X142437810Y-73585657D01*
X142352289Y-73745656D01*
X142336012Y-73765489D01*
X142237197Y-73885897D01*
X142140529Y-73965229D01*
X142096956Y-74000989D01*
X141936957Y-74086510D01*
X141763348Y-74139174D01*
X141582800Y-74156956D01*
X141402253Y-74139174D01*
X141228644Y-74086510D01*
X141068645Y-74000989D01*
X141025072Y-73965229D01*
X140928404Y-73885897D01*
X140813313Y-73745657D01*
X140813312Y-73745655D01*
X140727790Y-73585657D01*
X140675126Y-73412048D01*
X140661800Y-73276744D01*
X140661800Y-72736257D01*
X140675126Y-72600953D01*
X140727790Y-72427344D01*
X140813311Y-72267345D01*
X140813312Y-72267344D01*
X140928403Y-72127103D01*
X141031843Y-72042213D01*
X141068644Y-72012011D01*
X141228643Y-71926490D01*
X141402252Y-71873826D01*
X141582800Y-71856044D01*
X141763347Y-71873826D01*
G37*
G36*
X144303347Y-71873826D02*
G01*
X144476956Y-71926490D01*
X144476958Y-71926491D01*
X144636955Y-72012011D01*
X144777197Y-72127103D01*
X144856529Y-72223771D01*
X144892289Y-72267344D01*
X144977810Y-72427343D01*
X145030474Y-72600952D01*
X145043800Y-72736256D01*
X145043800Y-73276743D01*
X145030474Y-73412048D01*
X144977810Y-73585657D01*
X144892289Y-73745656D01*
X144876012Y-73765489D01*
X144777197Y-73885897D01*
X144680529Y-73965229D01*
X144636956Y-74000989D01*
X144476957Y-74086510D01*
X144303348Y-74139174D01*
X144122800Y-74156956D01*
X143942253Y-74139174D01*
X143768644Y-74086510D01*
X143608645Y-74000989D01*
X143565072Y-73965229D01*
X143468404Y-73885897D01*
X143353313Y-73745657D01*
X143353312Y-73745655D01*
X143267790Y-73585657D01*
X143215126Y-73412048D01*
X143201800Y-73276744D01*
X143201800Y-72736257D01*
X143215126Y-72600953D01*
X143267790Y-72427344D01*
X143353311Y-72267345D01*
X143353312Y-72267344D01*
X143468403Y-72127103D01*
X143571843Y-72042213D01*
X143608644Y-72012011D01*
X143768643Y-71926490D01*
X143942252Y-71873826D01*
X144122800Y-71856044D01*
X144303347Y-71873826D01*
G37*
G36*
X146843347Y-71873826D02*
G01*
X147016956Y-71926490D01*
X147016958Y-71926491D01*
X147176955Y-72012011D01*
X147317197Y-72127103D01*
X147396529Y-72223771D01*
X147432289Y-72267344D01*
X147517810Y-72427343D01*
X147570474Y-72600952D01*
X147583800Y-72736256D01*
X147583800Y-73276743D01*
X147570474Y-73412048D01*
X147517810Y-73585657D01*
X147432289Y-73745656D01*
X147416012Y-73765489D01*
X147317197Y-73885897D01*
X147220529Y-73965229D01*
X147176956Y-74000989D01*
X147016957Y-74086510D01*
X146843348Y-74139174D01*
X146662800Y-74156956D01*
X146482253Y-74139174D01*
X146308644Y-74086510D01*
X146148645Y-74000989D01*
X146105072Y-73965229D01*
X146008404Y-73885897D01*
X145893313Y-73745657D01*
X145893312Y-73745655D01*
X145807790Y-73585657D01*
X145755126Y-73412048D01*
X145741800Y-73276744D01*
X145741800Y-72736257D01*
X145755126Y-72600953D01*
X145807790Y-72427344D01*
X145893311Y-72267345D01*
X145893312Y-72267344D01*
X146008403Y-72127103D01*
X146111843Y-72042213D01*
X146148644Y-72012011D01*
X146308643Y-71926490D01*
X146482252Y-71873826D01*
X146662800Y-71856044D01*
X146843347Y-71873826D01*
G37*
G36*
X139822361Y-71864466D02*
G01*
X139855183Y-71874423D01*
X139885432Y-71890592D01*
X139911948Y-71912352D01*
X139933708Y-71938868D01*
X139949877Y-71969117D01*
X139959834Y-72001939D01*
X139963800Y-72042213D01*
X139963800Y-73970787D01*
X139959834Y-74011061D01*
X139949877Y-74043883D01*
X139933708Y-74074132D01*
X139911948Y-74100648D01*
X139885432Y-74122408D01*
X139855183Y-74138577D01*
X139822361Y-74148534D01*
X139782087Y-74152500D01*
X138303513Y-74152500D01*
X138263239Y-74148534D01*
X138230417Y-74138577D01*
X138200168Y-74122408D01*
X138173652Y-74100648D01*
X138151892Y-74074132D01*
X138135723Y-74043883D01*
X138125766Y-74011061D01*
X138121800Y-73970787D01*
X138121800Y-72042213D01*
X138125766Y-72001939D01*
X138135723Y-71969117D01*
X138151892Y-71938868D01*
X138173652Y-71912352D01*
X138200168Y-71890592D01*
X138230417Y-71874423D01*
X138263239Y-71864466D01*
X138303513Y-71860500D01*
X139782087Y-71860500D01*
X139822361Y-71864466D01*
G37*
G36*
X110162547Y-71638326D02*
G01*
X110336156Y-71690990D01*
X110336158Y-71690991D01*
X110496155Y-71776511D01*
X110636397Y-71891603D01*
X110715729Y-71988271D01*
X110751489Y-72031844D01*
X110837010Y-72191843D01*
X110889674Y-72365452D01*
X110903000Y-72500756D01*
X110903000Y-73041243D01*
X110889674Y-73176548D01*
X110837010Y-73350157D01*
X110751489Y-73510156D01*
X110715729Y-73553729D01*
X110636397Y-73650397D01*
X110539729Y-73729729D01*
X110496156Y-73765489D01*
X110336157Y-73851010D01*
X110162548Y-73903674D01*
X109982000Y-73921456D01*
X109801453Y-73903674D01*
X109627844Y-73851010D01*
X109467845Y-73765489D01*
X109424272Y-73729729D01*
X109327604Y-73650397D01*
X109212513Y-73510157D01*
X109212512Y-73510155D01*
X109126990Y-73350157D01*
X109074326Y-73176548D01*
X109061000Y-73041244D01*
X109061000Y-72500757D01*
X109074326Y-72365453D01*
X109126990Y-72191844D01*
X109212511Y-72031845D01*
X109237054Y-72001939D01*
X109327603Y-71891603D01*
X109453388Y-71788375D01*
X109467844Y-71776511D01*
X109627843Y-71690990D01*
X109801452Y-71638326D01*
X109982000Y-71620544D01*
X110162547Y-71638326D01*
G37*
G36*
X108221561Y-71628966D02*
G01*
X108254383Y-71638923D01*
X108284632Y-71655092D01*
X108311148Y-71676852D01*
X108332908Y-71703368D01*
X108349077Y-71733617D01*
X108359034Y-71766439D01*
X108363000Y-71806713D01*
X108363000Y-73735287D01*
X108359034Y-73775561D01*
X108349077Y-73808383D01*
X108332908Y-73838632D01*
X108311148Y-73865148D01*
X108284632Y-73886908D01*
X108254383Y-73903077D01*
X108221561Y-73913034D01*
X108181287Y-73917000D01*
X106702713Y-73917000D01*
X106662439Y-73913034D01*
X106629617Y-73903077D01*
X106599368Y-73886908D01*
X106572852Y-73865148D01*
X106551092Y-73838632D01*
X106534923Y-73808383D01*
X106524966Y-73775561D01*
X106521000Y-73735287D01*
X106521000Y-71806713D01*
X106524966Y-71766439D01*
X106534923Y-71733617D01*
X106551092Y-71703368D01*
X106572852Y-71676852D01*
X106599368Y-71655092D01*
X106629617Y-71638923D01*
X106662439Y-71628966D01*
X106702713Y-71625000D01*
X108181287Y-71625000D01*
X108221561Y-71628966D01*
G37*
G36*
X124490022Y-70846590D02*
G01*
X124590681Y-70877125D01*
X124641012Y-70892392D01*
X124780164Y-70966771D01*
X124902133Y-71066867D01*
X125002229Y-71188835D01*
X125076608Y-71327987D01*
X125091875Y-71378318D01*
X125122410Y-71478977D01*
X125134000Y-71596655D01*
X125134000Y-72675345D01*
X125122410Y-72793023D01*
X125091875Y-72893682D01*
X125076608Y-72944013D01*
X125002229Y-73083165D01*
X124902133Y-73205133D01*
X124780165Y-73305229D01*
X124641013Y-73379608D01*
X124590682Y-73394875D01*
X124490023Y-73425410D01*
X124333000Y-73440875D01*
X124175978Y-73425410D01*
X124075319Y-73394875D01*
X124024988Y-73379608D01*
X123885836Y-73305229D01*
X123763868Y-73205133D01*
X123663772Y-73083165D01*
X123589393Y-72944013D01*
X123574126Y-72893682D01*
X123543591Y-72793023D01*
X123532001Y-72675345D01*
X123532000Y-71596656D01*
X123543590Y-71478978D01*
X123589392Y-71327989D01*
X123589392Y-71327988D01*
X123663771Y-71188836D01*
X123663772Y-71188835D01*
X123763867Y-71066867D01*
X123885835Y-70966771D01*
X124024987Y-70892392D01*
X124075318Y-70877125D01*
X124175977Y-70846590D01*
X124333000Y-70831125D01*
X124490022Y-70846590D01*
G37*
G36*
X121950022Y-70846590D02*
G01*
X122050681Y-70877125D01*
X122101012Y-70892392D01*
X122240164Y-70966771D01*
X122362133Y-71066867D01*
X122462229Y-71188835D01*
X122536608Y-71327987D01*
X122551875Y-71378318D01*
X122582410Y-71478977D01*
X122594000Y-71596655D01*
X122594000Y-72675345D01*
X122582410Y-72793023D01*
X122551875Y-72893682D01*
X122536608Y-72944013D01*
X122462229Y-73083165D01*
X122362133Y-73205133D01*
X122240165Y-73305229D01*
X122101013Y-73379608D01*
X122050682Y-73394875D01*
X121950023Y-73425410D01*
X121793000Y-73440875D01*
X121635978Y-73425410D01*
X121535319Y-73394875D01*
X121484988Y-73379608D01*
X121345836Y-73305229D01*
X121223868Y-73205133D01*
X121123772Y-73083165D01*
X121049393Y-72944013D01*
X121034126Y-72893682D01*
X121003591Y-72793023D01*
X120992001Y-72675345D01*
X120992000Y-71596656D01*
X121003590Y-71478978D01*
X121049392Y-71327989D01*
X121049392Y-71327988D01*
X121123771Y-71188836D01*
X121123772Y-71188835D01*
X121223867Y-71066867D01*
X121345835Y-70966771D01*
X121484987Y-70892392D01*
X121535318Y-70877125D01*
X121635977Y-70846590D01*
X121793000Y-70831125D01*
X121950022Y-70846590D01*
G37*
G36*
X120054000Y-73437000D02*
G01*
X118452000Y-73437000D01*
X118452000Y-70835000D01*
X120054000Y-70835000D01*
X120054000Y-73437000D01*
G37*
G36*
X154633000Y-71962000D02*
G01*
X150731000Y-71962000D01*
X150731000Y-69860000D01*
X154633000Y-69860000D01*
X154633000Y-71962000D01*
G37*
M02*
