G04 #@! TF.GenerationSoftware,KiCad,Pcbnew,(5.1.5)-3*
G04 #@! TF.CreationDate,2020-08-02T12:18:09-07:00*
G04 #@! TF.ProjectId,4-mill-vent,342d6d69-6c6c-42d7-9665-6e742e6b6963,rev?*
G04 #@! TF.SameCoordinates,Original*
G04 #@! TF.FileFunction,Legend,Top*
G04 #@! TF.FilePolarity,Positive*
%FSLAX46Y46*%
G04 Gerber Fmt 4.6, Leading zero omitted, Abs format (unit mm)*
G04 Created by KiCad (PCBNEW (5.1.5)-3) date 2020-08-02 12:18:09*
%MOMM*%
%LPD*%
G04 APERTURE LIST*
%ADD10C,0.150000*%
%ADD11C,0.120000*%
G04 APERTURE END LIST*
D10*
X105648380Y-108275380D02*
X105648380Y-107275380D01*
X106219809Y-108275380D02*
X105791238Y-107703952D01*
X106219809Y-107275380D02*
X105648380Y-107846809D01*
X106696000Y-108275380D02*
X106886476Y-108275380D01*
X106981714Y-108227761D01*
X107029333Y-108180142D01*
X107124571Y-108037285D01*
X107172190Y-107846809D01*
X107172190Y-107465857D01*
X107124571Y-107370619D01*
X107076952Y-107323000D01*
X106981714Y-107275380D01*
X106791238Y-107275380D01*
X106696000Y-107323000D01*
X106648380Y-107370619D01*
X106600761Y-107465857D01*
X106600761Y-107703952D01*
X106648380Y-107799190D01*
X106696000Y-107846809D01*
X106791238Y-107894428D01*
X106981714Y-107894428D01*
X107076952Y-107846809D01*
X107124571Y-107799190D01*
X107172190Y-107703952D01*
X107600761Y-108275380D02*
X107600761Y-107275380D01*
X107838857Y-107275380D01*
X107981714Y-107323000D01*
X108076952Y-107418238D01*
X108124571Y-107513476D01*
X108172190Y-107703952D01*
X108172190Y-107846809D01*
X108124571Y-108037285D01*
X108076952Y-108132523D01*
X107981714Y-108227761D01*
X107838857Y-108275380D01*
X107600761Y-108275380D01*
X108457904Y-107275380D02*
X109029333Y-107275380D01*
X108743619Y-108275380D02*
X108743619Y-107275380D01*
X109219809Y-107275380D02*
X109553142Y-108275380D01*
X109886476Y-107275380D01*
X152561428Y-112702380D02*
X152656666Y-112702380D01*
X152751904Y-112750000D01*
X152799523Y-112797619D01*
X152847142Y-112892857D01*
X152894761Y-113083333D01*
X152894761Y-113321428D01*
X152847142Y-113511904D01*
X152799523Y-113607142D01*
X152751904Y-113654761D01*
X152656666Y-113702380D01*
X152561428Y-113702380D01*
X152466190Y-113654761D01*
X152418571Y-113607142D01*
X152370952Y-113511904D01*
X152323333Y-113321428D01*
X152323333Y-113083333D01*
X152370952Y-112892857D01*
X152418571Y-112797619D01*
X152466190Y-112750000D01*
X152561428Y-112702380D01*
X153228095Y-112702380D02*
X153894761Y-112702380D01*
X153466190Y-113702380D01*
X154990000Y-112654761D02*
X154132857Y-113940476D01*
X155513809Y-112702380D02*
X155609047Y-112702380D01*
X155704285Y-112750000D01*
X155751904Y-112797619D01*
X155799523Y-112892857D01*
X155847142Y-113083333D01*
X155847142Y-113321428D01*
X155799523Y-113511904D01*
X155751904Y-113607142D01*
X155704285Y-113654761D01*
X155609047Y-113702380D01*
X155513809Y-113702380D01*
X155418571Y-113654761D01*
X155370952Y-113607142D01*
X155323333Y-113511904D01*
X155275714Y-113321428D01*
X155275714Y-113083333D01*
X155323333Y-112892857D01*
X155370952Y-112797619D01*
X155418571Y-112750000D01*
X155513809Y-112702380D01*
X156228095Y-112797619D02*
X156275714Y-112750000D01*
X156370952Y-112702380D01*
X156609047Y-112702380D01*
X156704285Y-112750000D01*
X156751904Y-112797619D01*
X156799523Y-112892857D01*
X156799523Y-112988095D01*
X156751904Y-113130952D01*
X156180476Y-113702380D01*
X156799523Y-113702380D01*
X157942380Y-112654761D02*
X157085238Y-113940476D01*
X158228095Y-112797619D02*
X158275714Y-112750000D01*
X158370952Y-112702380D01*
X158609047Y-112702380D01*
X158704285Y-112750000D01*
X158751904Y-112797619D01*
X158799523Y-112892857D01*
X158799523Y-112988095D01*
X158751904Y-113130952D01*
X158180476Y-113702380D01*
X158799523Y-113702380D01*
X159418571Y-112702380D02*
X159513809Y-112702380D01*
X159609047Y-112750000D01*
X159656666Y-112797619D01*
X159704285Y-112892857D01*
X159751904Y-113083333D01*
X159751904Y-113321428D01*
X159704285Y-113511904D01*
X159656666Y-113607142D01*
X159609047Y-113654761D01*
X159513809Y-113702380D01*
X159418571Y-113702380D01*
X159323333Y-113654761D01*
X159275714Y-113607142D01*
X159228095Y-113511904D01*
X159180476Y-113321428D01*
X159180476Y-113083333D01*
X159228095Y-112892857D01*
X159275714Y-112797619D01*
X159323333Y-112750000D01*
X159418571Y-112702380D01*
X160132857Y-112797619D02*
X160180476Y-112750000D01*
X160275714Y-112702380D01*
X160513809Y-112702380D01*
X160609047Y-112750000D01*
X160656666Y-112797619D01*
X160704285Y-112892857D01*
X160704285Y-112988095D01*
X160656666Y-113130952D01*
X160085238Y-113702380D01*
X160704285Y-113702380D01*
X161323333Y-112702380D02*
X161418571Y-112702380D01*
X161513809Y-112750000D01*
X161561428Y-112797619D01*
X161609047Y-112892857D01*
X161656666Y-113083333D01*
X161656666Y-113321428D01*
X161609047Y-113511904D01*
X161561428Y-113607142D01*
X161513809Y-113654761D01*
X161418571Y-113702380D01*
X161323333Y-113702380D01*
X161228095Y-113654761D01*
X161180476Y-113607142D01*
X161132857Y-113511904D01*
X161085238Y-113321428D01*
X161085238Y-113083333D01*
X161132857Y-112892857D01*
X161180476Y-112797619D01*
X161228095Y-112750000D01*
X161323333Y-112702380D01*
X163816666Y-113416666D02*
X164292857Y-113416666D01*
X163721428Y-113702380D02*
X164054761Y-112702380D01*
X164388095Y-113702380D01*
X164721428Y-113702380D02*
X164721428Y-113035714D01*
X164721428Y-112702380D02*
X164673809Y-112750000D01*
X164721428Y-112797619D01*
X164769047Y-112750000D01*
X164721428Y-112702380D01*
X164721428Y-112797619D01*
X165197619Y-113702380D02*
X165197619Y-113035714D01*
X165197619Y-113226190D02*
X165245238Y-113130952D01*
X165292857Y-113083333D01*
X165388095Y-113035714D01*
X165483333Y-113035714D01*
X166435714Y-112702380D02*
X167007142Y-112702380D01*
X166721428Y-113702380D02*
X166721428Y-112702380D01*
X167483333Y-113702380D02*
X167388095Y-113654761D01*
X167340476Y-113607142D01*
X167292857Y-113511904D01*
X167292857Y-113226190D01*
X167340476Y-113130952D01*
X167388095Y-113083333D01*
X167483333Y-113035714D01*
X167626190Y-113035714D01*
X167721428Y-113083333D01*
X167769047Y-113130952D01*
X167816666Y-113226190D01*
X167816666Y-113511904D01*
X167769047Y-113607142D01*
X167721428Y-113654761D01*
X167626190Y-113702380D01*
X167483333Y-113702380D01*
X168959523Y-113416666D02*
X169435714Y-113416666D01*
X168864285Y-113702380D02*
X169197619Y-112702380D01*
X169530952Y-113702380D01*
X170007142Y-113702380D02*
X169911904Y-113654761D01*
X169864285Y-113559523D01*
X169864285Y-112702380D01*
X170530952Y-113702380D02*
X170435714Y-113654761D01*
X170388095Y-113559523D01*
X170388095Y-112702380D01*
D11*
X148588000Y-93309221D02*
X148588000Y-93634779D01*
X149608000Y-93309221D02*
X149608000Y-93634779D01*
X138918517Y-102040000D02*
X139284483Y-102040000D01*
X138918517Y-98620000D02*
X139284483Y-98620000D01*
X138795000Y-77051000D02*
X138795000Y-80901000D01*
X136795000Y-77051000D02*
X136795000Y-80901000D01*
X138795000Y-77051000D02*
X136795000Y-77051000D01*
X107045000Y-94955000D02*
X107045000Y-98805000D01*
X105045000Y-94955000D02*
X105045000Y-98805000D01*
X107045000Y-94955000D02*
X105045000Y-94955000D01*
X158458000Y-103013000D02*
X162308000Y-103013000D01*
X158458000Y-105013000D02*
X162308000Y-105013000D01*
X158458000Y-103013000D02*
X158458000Y-105013000D01*
X157645000Y-105013000D02*
X153795000Y-105013000D01*
X157645000Y-103013000D02*
X153795000Y-103013000D01*
X157645000Y-105013000D02*
X157645000Y-103013000D01*
X141392000Y-105038400D02*
X137542000Y-105038400D01*
X141392000Y-103038400D02*
X137542000Y-103038400D01*
X141392000Y-105038400D02*
X141392000Y-103038400D01*
X144932800Y-77566500D02*
X141082800Y-77566500D01*
X144932800Y-75566500D02*
X141082800Y-75566500D01*
X144932800Y-77566500D02*
X144932800Y-75566500D01*
X128305936Y-73681000D02*
X129510064Y-73681000D01*
X128305936Y-71861000D02*
X129510064Y-71861000D01*
X115478779Y-81278000D02*
X115153221Y-81278000D01*
X115478779Y-82298000D02*
X115153221Y-82298000D01*
X115752000Y-103941000D02*
X115752000Y-97481000D01*
X111222000Y-103941000D02*
X113822000Y-103941000D01*
X109292000Y-103941000D02*
X109292000Y-97481000D01*
X111222000Y-97481000D02*
X113822000Y-97481000D01*
X109322000Y-103941000D02*
X109292000Y-103941000D01*
X115752000Y-103941000D02*
X115722000Y-103941000D01*
X115752000Y-97481000D02*
X115722000Y-97481000D01*
X109292000Y-97481000D02*
X109322000Y-97481000D01*
X127502000Y-97481000D02*
X127502000Y-103941000D01*
X132032000Y-97481000D02*
X129432000Y-97481000D01*
X133962000Y-97481000D02*
X133962000Y-103941000D01*
X132032000Y-103941000D02*
X129432000Y-103941000D01*
X133932000Y-97481000D02*
X133962000Y-97481000D01*
X127502000Y-97481000D02*
X127532000Y-97481000D01*
X127502000Y-103941000D02*
X127532000Y-103941000D01*
X133962000Y-103941000D02*
X133932000Y-103941000D01*
X106969779Y-83691000D02*
X106644221Y-83691000D01*
X106969779Y-84711000D02*
X106644221Y-84711000D01*
X131282221Y-82679000D02*
X131607779Y-82679000D01*
X131282221Y-81659000D02*
X131607779Y-81659000D01*
X127797779Y-93978000D02*
X127472221Y-93978000D01*
X127797779Y-94998000D02*
X127472221Y-94998000D01*
X124114779Y-83056000D02*
X123789221Y-83056000D01*
X124114779Y-84076000D02*
X123789221Y-84076000D01*
X118943000Y-82421000D02*
X118943000Y-80961000D01*
X122103000Y-82421000D02*
X122103000Y-80261000D01*
X122103000Y-82421000D02*
X121173000Y-82421000D01*
X118943000Y-82421000D02*
X119873000Y-82421000D01*
X129047000Y-76971000D02*
X134747000Y-76971000D01*
X129047000Y-81271000D02*
X134747000Y-81271000D01*
X129047000Y-76971000D02*
X129047000Y-81271000D01*
X123823000Y-75783221D02*
X123823000Y-76108779D01*
X124843000Y-75783221D02*
X124843000Y-76108779D01*
X122844936Y-79523000D02*
X124049064Y-79523000D01*
X122844936Y-77703000D02*
X124049064Y-77703000D01*
X112905000Y-72760721D02*
X112905000Y-73086279D01*
X111885000Y-72760721D02*
X111885000Y-73086279D01*
X161109221Y-106936000D02*
X161434779Y-106936000D01*
X161109221Y-105916000D02*
X161434779Y-105916000D01*
X154459821Y-106897900D02*
X154785379Y-106897900D01*
X154459821Y-105877900D02*
X154785379Y-105877900D01*
X151601900Y-108265279D02*
X151601900Y-107939721D01*
X150581900Y-108265279D02*
X150581900Y-107939721D01*
X165356000Y-108239779D02*
X165356000Y-107914221D01*
X164336000Y-108239779D02*
X164336000Y-107914221D01*
X110144779Y-78361000D02*
X109819221Y-78361000D01*
X110144779Y-77341000D02*
X109819221Y-77341000D01*
X108302000Y-80771000D02*
X108302000Y-77471000D01*
X108302000Y-77471000D02*
X102902000Y-77471000D01*
X108302000Y-80771000D02*
X102902000Y-80771000D01*
X109662500Y-85308221D02*
X109662500Y-85633779D01*
X110682500Y-85308221D02*
X110682500Y-85633779D01*
X170462000Y-85298221D02*
X170462000Y-85623779D01*
X171482000Y-85298221D02*
X171482000Y-85623779D01*
X122829300Y-108935021D02*
X122829300Y-109260579D01*
X123849300Y-108935021D02*
X123849300Y-109260579D01*
X160592000Y-71983779D02*
X160592000Y-71658221D01*
X159572000Y-71983779D02*
X159572000Y-71658221D01*
X121692364Y-98311500D02*
X120488236Y-98311500D01*
X121692364Y-100131500D02*
X120488236Y-100131500D01*
X117169300Y-107818236D02*
X117169300Y-109022364D01*
X118989300Y-107818236D02*
X118989300Y-109022364D01*
X120409300Y-107828236D02*
X120409300Y-109032364D01*
X122229300Y-107828236D02*
X122229300Y-109032364D01*
X113444200Y-77617036D02*
X113444200Y-78821164D01*
X115264200Y-77617036D02*
X115264200Y-78821164D01*
X113444200Y-72943436D02*
X113444200Y-74147564D01*
X115264200Y-72943436D02*
X115264200Y-74147564D01*
X123764300Y-101005300D02*
X117214300Y-101005300D01*
X123764300Y-104905300D02*
X123764300Y-101005300D01*
X117214300Y-104905300D02*
X123764300Y-104905300D01*
X120067500Y-74472500D02*
X117617500Y-74472500D01*
X118267500Y-77692500D02*
X120067500Y-77692500D01*
X152124800Y-103941000D02*
X152124800Y-97481000D01*
X147594800Y-103941000D02*
X150194800Y-103941000D01*
X145664800Y-103941000D02*
X145664800Y-97481000D01*
X147594800Y-97481000D02*
X150194800Y-97481000D01*
X145694800Y-103941000D02*
X145664800Y-103941000D01*
X152124800Y-103941000D02*
X152094800Y-103941000D01*
X152124800Y-97481000D02*
X152094800Y-97481000D01*
X145664800Y-97481000D02*
X145694800Y-97481000D01*
X163902000Y-97481000D02*
X163902000Y-103941000D01*
X168432000Y-97481000D02*
X165832000Y-97481000D01*
X170362000Y-97481000D02*
X170362000Y-103941000D01*
X168432000Y-103941000D02*
X165832000Y-103941000D01*
X170332000Y-97481000D02*
X170362000Y-97481000D01*
X163902000Y-97481000D02*
X163932000Y-97481000D01*
X163902000Y-103941000D02*
X163932000Y-103941000D01*
X170362000Y-103941000D02*
X170332000Y-103941000D01*
X162625500Y-101026079D02*
X162625500Y-100700521D01*
X161605500Y-101026079D02*
X161605500Y-100700521D01*
X154342000Y-101026279D02*
X154342000Y-100700721D01*
X153322000Y-101026279D02*
X153322000Y-100700721D01*
X167867000Y-86956000D02*
X167867000Y-84671000D01*
X166397000Y-86956000D02*
X167867000Y-86956000D01*
X166397000Y-84671000D02*
X166397000Y-86956000D01*
X158735700Y-86956000D02*
X158735700Y-84671000D01*
X157265700Y-86956000D02*
X158735700Y-86956000D01*
X157265700Y-84671000D02*
X157265700Y-86956000D01*
X149693300Y-86930600D02*
X149693300Y-84645600D01*
X148223300Y-86930600D02*
X149693300Y-86930600D01*
X148223300Y-84645600D02*
X148223300Y-86930600D01*
X140562000Y-86956000D02*
X140562000Y-84671000D01*
X139092000Y-86956000D02*
X140562000Y-86956000D01*
X139092000Y-84671000D02*
X139092000Y-86956000D01*
X131418000Y-86956000D02*
X131418000Y-84671000D01*
X129948000Y-86956000D02*
X131418000Y-86956000D01*
X129948000Y-84671000D02*
X129948000Y-86956000D01*
X122337500Y-86956000D02*
X122337500Y-84671000D01*
X120867500Y-86956000D02*
X122337500Y-86956000D01*
X120867500Y-84671000D02*
X120867500Y-86956000D01*
X113257000Y-86956000D02*
X113257000Y-84671000D01*
X111787000Y-86956000D02*
X113257000Y-86956000D01*
X111787000Y-84671000D02*
X111787000Y-86956000D01*
X155827000Y-71592221D02*
X155827000Y-71917779D01*
X156847000Y-71592221D02*
X156847000Y-71917779D01*
X152275000Y-85671879D02*
X152275000Y-85346321D01*
X151255000Y-85671879D02*
X151255000Y-85346321D01*
X143508000Y-99405221D02*
X143508000Y-99730779D01*
X144528000Y-99405221D02*
X144528000Y-99730779D01*
X168527000Y-81015721D02*
X168527000Y-81341279D01*
X169547000Y-81015721D02*
X169547000Y-81341279D01*
X162304000Y-71719221D02*
X162304000Y-72044779D01*
X163324000Y-71719221D02*
X163324000Y-72044779D01*
X152054779Y-72515000D02*
X151729221Y-72515000D01*
X152054779Y-73535000D02*
X151729221Y-73535000D01*
X121718200Y-75792721D02*
X121718200Y-76118279D01*
X122738200Y-75792721D02*
X122738200Y-76118279D01*
X120618079Y-95968300D02*
X120292521Y-95968300D01*
X120618079Y-96988300D02*
X120292521Y-96988300D01*
X144262000Y-91821000D02*
X144262000Y-88371000D01*
X144262000Y-91821000D02*
X144262000Y-93771000D01*
X135392000Y-91821000D02*
X135392000Y-89871000D01*
X135392000Y-91821000D02*
X135392000Y-93771000D01*
D10*
X150995142Y-93829142D02*
X150947523Y-93876761D01*
X150804666Y-93924380D01*
X150709428Y-93924380D01*
X150566571Y-93876761D01*
X150471333Y-93781523D01*
X150423714Y-93686285D01*
X150376095Y-93495809D01*
X150376095Y-93352952D01*
X150423714Y-93162476D01*
X150471333Y-93067238D01*
X150566571Y-92972000D01*
X150709428Y-92924380D01*
X150804666Y-92924380D01*
X150947523Y-92972000D01*
X150995142Y-93019619D01*
X151947523Y-93924380D02*
X151376095Y-93924380D01*
X151661809Y-93924380D02*
X151661809Y-92924380D01*
X151566571Y-93067238D01*
X151471333Y-93162476D01*
X151376095Y-93210095D01*
X152280857Y-92924380D02*
X152947523Y-92924380D01*
X152518952Y-93924380D01*
X138934833Y-98132380D02*
X138601500Y-97656190D01*
X138363404Y-98132380D02*
X138363404Y-97132380D01*
X138744357Y-97132380D01*
X138839595Y-97180000D01*
X138887214Y-97227619D01*
X138934833Y-97322857D01*
X138934833Y-97465714D01*
X138887214Y-97560952D01*
X138839595Y-97608571D01*
X138744357Y-97656190D01*
X138363404Y-97656190D01*
X139887214Y-98132380D02*
X139315785Y-98132380D01*
X139601500Y-98132380D02*
X139601500Y-97132380D01*
X139506261Y-97275238D01*
X139411023Y-97370476D01*
X139315785Y-97418095D01*
X136580714Y-76525380D02*
X136580714Y-75525380D01*
X136818809Y-75525380D01*
X136961666Y-75573000D01*
X137056904Y-75668238D01*
X137104523Y-75763476D01*
X137152142Y-75953952D01*
X137152142Y-76096809D01*
X137104523Y-76287285D01*
X137056904Y-76382523D01*
X136961666Y-76477761D01*
X136818809Y-76525380D01*
X136580714Y-76525380D01*
X138104523Y-76525380D02*
X137533095Y-76525380D01*
X137818809Y-76525380D02*
X137818809Y-75525380D01*
X137723571Y-75668238D01*
X137628333Y-75763476D01*
X137533095Y-75811095D01*
X138961666Y-75525380D02*
X138771190Y-75525380D01*
X138675952Y-75573000D01*
X138628333Y-75620619D01*
X138533095Y-75763476D01*
X138485476Y-75953952D01*
X138485476Y-76334904D01*
X138533095Y-76430142D01*
X138580714Y-76477761D01*
X138675952Y-76525380D01*
X138866428Y-76525380D01*
X138961666Y-76477761D01*
X139009285Y-76430142D01*
X139056904Y-76334904D01*
X139056904Y-76096809D01*
X139009285Y-76001571D01*
X138961666Y-75953952D01*
X138866428Y-75906333D01*
X138675952Y-75906333D01*
X138580714Y-75953952D01*
X138533095Y-76001571D01*
X138485476Y-76096809D01*
X104830714Y-100909380D02*
X104830714Y-99909380D01*
X105068809Y-99909380D01*
X105211666Y-99957000D01*
X105306904Y-100052238D01*
X105354523Y-100147476D01*
X105402142Y-100337952D01*
X105402142Y-100480809D01*
X105354523Y-100671285D01*
X105306904Y-100766523D01*
X105211666Y-100861761D01*
X105068809Y-100909380D01*
X104830714Y-100909380D01*
X106354523Y-100909380D02*
X105783095Y-100909380D01*
X106068809Y-100909380D02*
X106068809Y-99909380D01*
X105973571Y-100052238D01*
X105878333Y-100147476D01*
X105783095Y-100195095D01*
X107211666Y-100242714D02*
X107211666Y-100909380D01*
X106973571Y-99861761D02*
X106735476Y-100576047D01*
X107354523Y-100576047D01*
X158551714Y-102560380D02*
X158551714Y-101560380D01*
X158789809Y-101560380D01*
X158932666Y-101608000D01*
X159027904Y-101703238D01*
X159075523Y-101798476D01*
X159123142Y-101988952D01*
X159123142Y-102131809D01*
X159075523Y-102322285D01*
X159027904Y-102417523D01*
X158932666Y-102512761D01*
X158789809Y-102560380D01*
X158551714Y-102560380D01*
X160075523Y-102560380D02*
X159504095Y-102560380D01*
X159789809Y-102560380D02*
X159789809Y-101560380D01*
X159694571Y-101703238D01*
X159599333Y-101798476D01*
X159504095Y-101846095D01*
X160456476Y-101655619D02*
X160504095Y-101608000D01*
X160599333Y-101560380D01*
X160837428Y-101560380D01*
X160932666Y-101608000D01*
X160980285Y-101655619D01*
X161027904Y-101750857D01*
X161027904Y-101846095D01*
X160980285Y-101988952D01*
X160408857Y-102560380D01*
X161027904Y-102560380D01*
X155122714Y-102560380D02*
X155122714Y-101560380D01*
X155360809Y-101560380D01*
X155503666Y-101608000D01*
X155598904Y-101703238D01*
X155646523Y-101798476D01*
X155694142Y-101988952D01*
X155694142Y-102131809D01*
X155646523Y-102322285D01*
X155598904Y-102417523D01*
X155503666Y-102512761D01*
X155360809Y-102560380D01*
X155122714Y-102560380D01*
X156646523Y-102560380D02*
X156075095Y-102560380D01*
X156360809Y-102560380D02*
X156360809Y-101560380D01*
X156265571Y-101703238D01*
X156170333Y-101798476D01*
X156075095Y-101846095D01*
X157598904Y-102560380D02*
X157027476Y-102560380D01*
X157313190Y-102560380D02*
X157313190Y-101560380D01*
X157217952Y-101703238D01*
X157122714Y-101798476D01*
X157027476Y-101846095D01*
X138580904Y-106395780D02*
X138580904Y-105395780D01*
X138819000Y-105395780D01*
X138961857Y-105443400D01*
X139057095Y-105538638D01*
X139104714Y-105633876D01*
X139152333Y-105824352D01*
X139152333Y-105967209D01*
X139104714Y-106157685D01*
X139057095Y-106252923D01*
X138961857Y-106348161D01*
X138819000Y-106395780D01*
X138580904Y-106395780D01*
X139533285Y-105491019D02*
X139580904Y-105443400D01*
X139676142Y-105395780D01*
X139914238Y-105395780D01*
X140009476Y-105443400D01*
X140057095Y-105491019D01*
X140104714Y-105586257D01*
X140104714Y-105681495D01*
X140057095Y-105824352D01*
X139485666Y-106395780D01*
X140104714Y-106395780D01*
X142121704Y-78923880D02*
X142121704Y-77923880D01*
X142359800Y-77923880D01*
X142502657Y-77971500D01*
X142597895Y-78066738D01*
X142645514Y-78161976D01*
X142693133Y-78352452D01*
X142693133Y-78495309D01*
X142645514Y-78685785D01*
X142597895Y-78781023D01*
X142502657Y-78876261D01*
X142359800Y-78923880D01*
X142121704Y-78923880D01*
X143645514Y-78923880D02*
X143074085Y-78923880D01*
X143359800Y-78923880D02*
X143359800Y-77923880D01*
X143264561Y-78066738D01*
X143169323Y-78161976D01*
X143074085Y-78209595D01*
X128265142Y-71308142D02*
X128217523Y-71355761D01*
X128074666Y-71403380D01*
X127979428Y-71403380D01*
X127836571Y-71355761D01*
X127741333Y-71260523D01*
X127693714Y-71165285D01*
X127646095Y-70974809D01*
X127646095Y-70831952D01*
X127693714Y-70641476D01*
X127741333Y-70546238D01*
X127836571Y-70451000D01*
X127979428Y-70403380D01*
X128074666Y-70403380D01*
X128217523Y-70451000D01*
X128265142Y-70498619D01*
X129217523Y-71403380D02*
X128646095Y-71403380D01*
X128931809Y-71403380D02*
X128931809Y-70403380D01*
X128836571Y-70546238D01*
X128741333Y-70641476D01*
X128646095Y-70689095D01*
X130074666Y-70736714D02*
X130074666Y-71403380D01*
X129836571Y-70355761D02*
X129598476Y-71070047D01*
X130217523Y-71070047D01*
X114673142Y-83891380D02*
X114339809Y-83415190D01*
X114101714Y-83891380D02*
X114101714Y-82891380D01*
X114482666Y-82891380D01*
X114577904Y-82939000D01*
X114625523Y-82986619D01*
X114673142Y-83081857D01*
X114673142Y-83224714D01*
X114625523Y-83319952D01*
X114577904Y-83367571D01*
X114482666Y-83415190D01*
X114101714Y-83415190D01*
X115054095Y-82986619D02*
X115101714Y-82939000D01*
X115196952Y-82891380D01*
X115435047Y-82891380D01*
X115530285Y-82939000D01*
X115577904Y-82986619D01*
X115625523Y-83081857D01*
X115625523Y-83177095D01*
X115577904Y-83319952D01*
X115006476Y-83891380D01*
X115625523Y-83891380D01*
X115958857Y-82891380D02*
X116577904Y-82891380D01*
X116244571Y-83272333D01*
X116387428Y-83272333D01*
X116482666Y-83319952D01*
X116530285Y-83367571D01*
X116577904Y-83462809D01*
X116577904Y-83700904D01*
X116530285Y-83796142D01*
X116482666Y-83843761D01*
X116387428Y-83891380D01*
X116101714Y-83891380D01*
X116006476Y-83843761D01*
X115958857Y-83796142D01*
X111188666Y-101115761D02*
X111331523Y-101163380D01*
X111569619Y-101163380D01*
X111664857Y-101115761D01*
X111712476Y-101068142D01*
X111760095Y-100972904D01*
X111760095Y-100877666D01*
X111712476Y-100782428D01*
X111664857Y-100734809D01*
X111569619Y-100687190D01*
X111379142Y-100639571D01*
X111283904Y-100591952D01*
X111236285Y-100544333D01*
X111188666Y-100449095D01*
X111188666Y-100353857D01*
X111236285Y-100258619D01*
X111283904Y-100211000D01*
X111379142Y-100163380D01*
X111617238Y-100163380D01*
X111760095Y-100211000D01*
X112093428Y-100163380D02*
X112331523Y-101163380D01*
X112522000Y-100449095D01*
X112712476Y-101163380D01*
X112950571Y-100163380D01*
X113855333Y-101163380D02*
X113283904Y-101163380D01*
X113569619Y-101163380D02*
X113569619Y-100163380D01*
X113474380Y-100306238D01*
X113379142Y-100401476D01*
X113283904Y-100449095D01*
X129349666Y-101115761D02*
X129492523Y-101163380D01*
X129730619Y-101163380D01*
X129825857Y-101115761D01*
X129873476Y-101068142D01*
X129921095Y-100972904D01*
X129921095Y-100877666D01*
X129873476Y-100782428D01*
X129825857Y-100734809D01*
X129730619Y-100687190D01*
X129540142Y-100639571D01*
X129444904Y-100591952D01*
X129397285Y-100544333D01*
X129349666Y-100449095D01*
X129349666Y-100353857D01*
X129397285Y-100258619D01*
X129444904Y-100211000D01*
X129540142Y-100163380D01*
X129778238Y-100163380D01*
X129921095Y-100211000D01*
X130254428Y-100163380D02*
X130492523Y-101163380D01*
X130683000Y-100449095D01*
X130873476Y-101163380D01*
X131111571Y-100163380D01*
X131444904Y-100258619D02*
X131492523Y-100211000D01*
X131587761Y-100163380D01*
X131825857Y-100163380D01*
X131921095Y-100211000D01*
X131968714Y-100258619D01*
X132016333Y-100353857D01*
X132016333Y-100449095D01*
X131968714Y-100591952D01*
X131397285Y-101163380D01*
X132016333Y-101163380D01*
X106164142Y-86083380D02*
X105830809Y-85607190D01*
X105592714Y-86083380D02*
X105592714Y-85083380D01*
X105973666Y-85083380D01*
X106068904Y-85131000D01*
X106116523Y-85178619D01*
X106164142Y-85273857D01*
X106164142Y-85416714D01*
X106116523Y-85511952D01*
X106068904Y-85559571D01*
X105973666Y-85607190D01*
X105592714Y-85607190D01*
X106545095Y-85178619D02*
X106592714Y-85131000D01*
X106687952Y-85083380D01*
X106926047Y-85083380D01*
X107021285Y-85131000D01*
X107068904Y-85178619D01*
X107116523Y-85273857D01*
X107116523Y-85369095D01*
X107068904Y-85511952D01*
X106497476Y-86083380D01*
X107116523Y-86083380D01*
X107497476Y-85178619D02*
X107545095Y-85131000D01*
X107640333Y-85083380D01*
X107878428Y-85083380D01*
X107973666Y-85131000D01*
X108021285Y-85178619D01*
X108068904Y-85273857D01*
X108068904Y-85369095D01*
X108021285Y-85511952D01*
X107449857Y-86083380D01*
X108068904Y-86083380D01*
X127779642Y-82748380D02*
X127446309Y-82272190D01*
X127208214Y-82748380D02*
X127208214Y-81748380D01*
X127589166Y-81748380D01*
X127684404Y-81796000D01*
X127732023Y-81843619D01*
X127779642Y-81938857D01*
X127779642Y-82081714D01*
X127732023Y-82176952D01*
X127684404Y-82224571D01*
X127589166Y-82272190D01*
X127208214Y-82272190D01*
X128160595Y-81843619D02*
X128208214Y-81796000D01*
X128303452Y-81748380D01*
X128541547Y-81748380D01*
X128636785Y-81796000D01*
X128684404Y-81843619D01*
X128732023Y-81938857D01*
X128732023Y-82034095D01*
X128684404Y-82176952D01*
X128112976Y-82748380D01*
X128732023Y-82748380D01*
X129684404Y-82748380D02*
X129112976Y-82748380D01*
X129398690Y-82748380D02*
X129398690Y-81748380D01*
X129303452Y-81891238D01*
X129208214Y-81986476D01*
X129112976Y-82034095D01*
X126992142Y-93035380D02*
X126658809Y-92559190D01*
X126420714Y-93035380D02*
X126420714Y-92035380D01*
X126801666Y-92035380D01*
X126896904Y-92083000D01*
X126944523Y-92130619D01*
X126992142Y-92225857D01*
X126992142Y-92368714D01*
X126944523Y-92463952D01*
X126896904Y-92511571D01*
X126801666Y-92559190D01*
X126420714Y-92559190D01*
X127944523Y-93035380D02*
X127373095Y-93035380D01*
X127658809Y-93035380D02*
X127658809Y-92035380D01*
X127563571Y-92178238D01*
X127468333Y-92273476D01*
X127373095Y-92321095D01*
X128277857Y-92035380D02*
X128944523Y-92035380D01*
X128515952Y-93035380D01*
X123309142Y-85448380D02*
X122975809Y-84972190D01*
X122737714Y-85448380D02*
X122737714Y-84448380D01*
X123118666Y-84448380D01*
X123213904Y-84496000D01*
X123261523Y-84543619D01*
X123309142Y-84638857D01*
X123309142Y-84781714D01*
X123261523Y-84876952D01*
X123213904Y-84924571D01*
X123118666Y-84972190D01*
X122737714Y-84972190D01*
X124261523Y-85448380D02*
X123690095Y-85448380D01*
X123975809Y-85448380D02*
X123975809Y-84448380D01*
X123880571Y-84591238D01*
X123785333Y-84686476D01*
X123690095Y-84734095D01*
X125118666Y-84448380D02*
X124928190Y-84448380D01*
X124832952Y-84496000D01*
X124785333Y-84543619D01*
X124690095Y-84686476D01*
X124642476Y-84876952D01*
X124642476Y-85257904D01*
X124690095Y-85353142D01*
X124737714Y-85400761D01*
X124832952Y-85448380D01*
X125023428Y-85448380D01*
X125118666Y-85400761D01*
X125166285Y-85353142D01*
X125213904Y-85257904D01*
X125213904Y-85019809D01*
X125166285Y-84924571D01*
X125118666Y-84876952D01*
X125023428Y-84829333D01*
X124832952Y-84829333D01*
X124737714Y-84876952D01*
X124690095Y-84924571D01*
X124642476Y-85019809D01*
X123094761Y-82208619D02*
X122999523Y-82161000D01*
X122904285Y-82065761D01*
X122761428Y-81922904D01*
X122666190Y-81875285D01*
X122570952Y-81875285D01*
X122618571Y-82113380D02*
X122523333Y-82065761D01*
X122428095Y-81970523D01*
X122380476Y-81780047D01*
X122380476Y-81446714D01*
X122428095Y-81256238D01*
X122523333Y-81161000D01*
X122618571Y-81113380D01*
X122809047Y-81113380D01*
X122904285Y-81161000D01*
X122999523Y-81256238D01*
X123047142Y-81446714D01*
X123047142Y-81780047D01*
X122999523Y-81970523D01*
X122904285Y-82065761D01*
X122809047Y-82113380D01*
X122618571Y-82113380D01*
X123904285Y-81113380D02*
X123713809Y-81113380D01*
X123618571Y-81161000D01*
X123570952Y-81208619D01*
X123475714Y-81351476D01*
X123428095Y-81541952D01*
X123428095Y-81922904D01*
X123475714Y-82018142D01*
X123523333Y-82065761D01*
X123618571Y-82113380D01*
X123809047Y-82113380D01*
X123904285Y-82065761D01*
X123951904Y-82018142D01*
X123999523Y-81922904D01*
X123999523Y-81684809D01*
X123951904Y-81589571D01*
X123904285Y-81541952D01*
X123809047Y-81494333D01*
X123618571Y-81494333D01*
X123523333Y-81541952D01*
X123475714Y-81589571D01*
X123428095Y-81684809D01*
X131382714Y-76573380D02*
X131382714Y-75573380D01*
X131620809Y-75573380D01*
X131763666Y-75621000D01*
X131858904Y-75716238D01*
X131906523Y-75811476D01*
X131954142Y-76001952D01*
X131954142Y-76144809D01*
X131906523Y-76335285D01*
X131858904Y-76430523D01*
X131763666Y-76525761D01*
X131620809Y-76573380D01*
X131382714Y-76573380D01*
X132906523Y-76573380D02*
X132335095Y-76573380D01*
X132620809Y-76573380D02*
X132620809Y-75573380D01*
X132525571Y-75716238D01*
X132430333Y-75811476D01*
X132335095Y-75859095D01*
X133239857Y-75573380D02*
X133858904Y-75573380D01*
X133525571Y-75954333D01*
X133668428Y-75954333D01*
X133763666Y-76001952D01*
X133811285Y-76049571D01*
X133858904Y-76144809D01*
X133858904Y-76382904D01*
X133811285Y-76478142D01*
X133763666Y-76525761D01*
X133668428Y-76573380D01*
X133382714Y-76573380D01*
X133287476Y-76525761D01*
X133239857Y-76478142D01*
X125976142Y-76303142D02*
X125928523Y-76350761D01*
X125785666Y-76398380D01*
X125690428Y-76398380D01*
X125547571Y-76350761D01*
X125452333Y-76255523D01*
X125404714Y-76160285D01*
X125357095Y-75969809D01*
X125357095Y-75826952D01*
X125404714Y-75636476D01*
X125452333Y-75541238D01*
X125547571Y-75446000D01*
X125690428Y-75398380D01*
X125785666Y-75398380D01*
X125928523Y-75446000D01*
X125976142Y-75493619D01*
X126928523Y-76398380D02*
X126357095Y-76398380D01*
X126642809Y-76398380D02*
X126642809Y-75398380D01*
X126547571Y-75541238D01*
X126452333Y-75636476D01*
X126357095Y-75684095D01*
X127833285Y-75398380D02*
X127357095Y-75398380D01*
X127309476Y-75874571D01*
X127357095Y-75826952D01*
X127452333Y-75779333D01*
X127690428Y-75779333D01*
X127785666Y-75826952D01*
X127833285Y-75874571D01*
X127880904Y-75969809D01*
X127880904Y-76207904D01*
X127833285Y-76303142D01*
X127785666Y-76350761D01*
X127690428Y-76398380D01*
X127452333Y-76398380D01*
X127357095Y-76350761D01*
X127309476Y-76303142D01*
X121531142Y-74017142D02*
X121483523Y-74064761D01*
X121340666Y-74112380D01*
X121245428Y-74112380D01*
X121102571Y-74064761D01*
X121007333Y-73969523D01*
X120959714Y-73874285D01*
X120912095Y-73683809D01*
X120912095Y-73540952D01*
X120959714Y-73350476D01*
X121007333Y-73255238D01*
X121102571Y-73160000D01*
X121245428Y-73112380D01*
X121340666Y-73112380D01*
X121483523Y-73160000D01*
X121531142Y-73207619D01*
X122483523Y-74112380D02*
X121912095Y-74112380D01*
X122197809Y-74112380D02*
X122197809Y-73112380D01*
X122102571Y-73255238D01*
X122007333Y-73350476D01*
X121912095Y-73398095D01*
X122816857Y-73112380D02*
X123435904Y-73112380D01*
X123102571Y-73493333D01*
X123245428Y-73493333D01*
X123340666Y-73540952D01*
X123388285Y-73588571D01*
X123435904Y-73683809D01*
X123435904Y-73921904D01*
X123388285Y-74017142D01*
X123340666Y-74064761D01*
X123245428Y-74112380D01*
X122959714Y-74112380D01*
X122864476Y-74064761D01*
X122816857Y-74017142D01*
X111879142Y-70842142D02*
X111831523Y-70889761D01*
X111688666Y-70937380D01*
X111593428Y-70937380D01*
X111450571Y-70889761D01*
X111355333Y-70794523D01*
X111307714Y-70699285D01*
X111260095Y-70508809D01*
X111260095Y-70365952D01*
X111307714Y-70175476D01*
X111355333Y-70080238D01*
X111450571Y-69985000D01*
X111593428Y-69937380D01*
X111688666Y-69937380D01*
X111831523Y-69985000D01*
X111879142Y-70032619D01*
X112831523Y-70937380D02*
X112260095Y-70937380D01*
X112545809Y-70937380D02*
X112545809Y-69937380D01*
X112450571Y-70080238D01*
X112355333Y-70175476D01*
X112260095Y-70223095D01*
X113450571Y-69937380D02*
X113545809Y-69937380D01*
X113641047Y-69985000D01*
X113688666Y-70032619D01*
X113736285Y-70127857D01*
X113783904Y-70318333D01*
X113783904Y-70556428D01*
X113736285Y-70746904D01*
X113688666Y-70842142D01*
X113641047Y-70889761D01*
X113545809Y-70937380D01*
X113450571Y-70937380D01*
X113355333Y-70889761D01*
X113307714Y-70842142D01*
X113260095Y-70746904D01*
X113212476Y-70556428D01*
X113212476Y-70318333D01*
X113260095Y-70127857D01*
X113307714Y-70032619D01*
X113355333Y-69985000D01*
X113450571Y-69937380D01*
X160647142Y-108275380D02*
X160313809Y-107799190D01*
X160075714Y-108275380D02*
X160075714Y-107275380D01*
X160456666Y-107275380D01*
X160551904Y-107323000D01*
X160599523Y-107370619D01*
X160647142Y-107465857D01*
X160647142Y-107608714D01*
X160599523Y-107703952D01*
X160551904Y-107751571D01*
X160456666Y-107799190D01*
X160075714Y-107799190D01*
X161599523Y-108275380D02*
X161028095Y-108275380D01*
X161313809Y-108275380D02*
X161313809Y-107275380D01*
X161218571Y-107418238D01*
X161123333Y-107513476D01*
X161028095Y-107561095D01*
X162075714Y-108275380D02*
X162266190Y-108275380D01*
X162361428Y-108227761D01*
X162409047Y-108180142D01*
X162504285Y-108037285D01*
X162551904Y-107846809D01*
X162551904Y-107465857D01*
X162504285Y-107370619D01*
X162456666Y-107323000D01*
X162361428Y-107275380D01*
X162170952Y-107275380D01*
X162075714Y-107323000D01*
X162028095Y-107370619D01*
X161980476Y-107465857D01*
X161980476Y-107703952D01*
X162028095Y-107799190D01*
X162075714Y-107846809D01*
X162170952Y-107894428D01*
X162361428Y-107894428D01*
X162456666Y-107846809D01*
X162504285Y-107799190D01*
X162551904Y-107703952D01*
X154043142Y-108275380D02*
X153709809Y-107799190D01*
X153471714Y-108275380D02*
X153471714Y-107275380D01*
X153852666Y-107275380D01*
X153947904Y-107323000D01*
X153995523Y-107370619D01*
X154043142Y-107465857D01*
X154043142Y-107608714D01*
X153995523Y-107703952D01*
X153947904Y-107751571D01*
X153852666Y-107799190D01*
X153471714Y-107799190D01*
X154995523Y-108275380D02*
X154424095Y-108275380D01*
X154709809Y-108275380D02*
X154709809Y-107275380D01*
X154614571Y-107418238D01*
X154519333Y-107513476D01*
X154424095Y-107561095D01*
X155566952Y-107703952D02*
X155471714Y-107656333D01*
X155424095Y-107608714D01*
X155376476Y-107513476D01*
X155376476Y-107465857D01*
X155424095Y-107370619D01*
X155471714Y-107323000D01*
X155566952Y-107275380D01*
X155757428Y-107275380D01*
X155852666Y-107323000D01*
X155900285Y-107370619D01*
X155947904Y-107465857D01*
X155947904Y-107513476D01*
X155900285Y-107608714D01*
X155852666Y-107656333D01*
X155757428Y-107703952D01*
X155566952Y-107703952D01*
X155471714Y-107751571D01*
X155424095Y-107799190D01*
X155376476Y-107894428D01*
X155376476Y-108084904D01*
X155424095Y-108180142D01*
X155471714Y-108227761D01*
X155566952Y-108275380D01*
X155757428Y-108275380D01*
X155852666Y-108227761D01*
X155900285Y-108180142D01*
X155947904Y-108084904D01*
X155947904Y-107894428D01*
X155900285Y-107799190D01*
X155852666Y-107751571D01*
X155757428Y-107703952D01*
X148074142Y-108434142D02*
X148026523Y-108481761D01*
X147883666Y-108529380D01*
X147788428Y-108529380D01*
X147645571Y-108481761D01*
X147550333Y-108386523D01*
X147502714Y-108291285D01*
X147455095Y-108100809D01*
X147455095Y-107957952D01*
X147502714Y-107767476D01*
X147550333Y-107672238D01*
X147645571Y-107577000D01*
X147788428Y-107529380D01*
X147883666Y-107529380D01*
X148026523Y-107577000D01*
X148074142Y-107624619D01*
X149026523Y-108529380D02*
X148455095Y-108529380D01*
X148740809Y-108529380D02*
X148740809Y-107529380D01*
X148645571Y-107672238D01*
X148550333Y-107767476D01*
X148455095Y-107815095D01*
X149407476Y-107624619D02*
X149455095Y-107577000D01*
X149550333Y-107529380D01*
X149788428Y-107529380D01*
X149883666Y-107577000D01*
X149931285Y-107624619D01*
X149978904Y-107719857D01*
X149978904Y-107815095D01*
X149931285Y-107957952D01*
X149359857Y-108529380D01*
X149978904Y-108529380D01*
X166616142Y-108180142D02*
X166568523Y-108227761D01*
X166425666Y-108275380D01*
X166330428Y-108275380D01*
X166187571Y-108227761D01*
X166092333Y-108132523D01*
X166044714Y-108037285D01*
X165997095Y-107846809D01*
X165997095Y-107703952D01*
X166044714Y-107513476D01*
X166092333Y-107418238D01*
X166187571Y-107323000D01*
X166330428Y-107275380D01*
X166425666Y-107275380D01*
X166568523Y-107323000D01*
X166616142Y-107370619D01*
X167568523Y-108275380D02*
X166997095Y-108275380D01*
X167282809Y-108275380D02*
X167282809Y-107275380D01*
X167187571Y-107418238D01*
X167092333Y-107513476D01*
X166997095Y-107561095D01*
X168520904Y-108275380D02*
X167949476Y-108275380D01*
X168235190Y-108275380D02*
X168235190Y-107275380D01*
X168139952Y-107418238D01*
X168044714Y-107513476D01*
X167949476Y-107561095D01*
X109501166Y-75779571D02*
X109167833Y-75779571D01*
X109167833Y-76303380D02*
X109167833Y-75303380D01*
X109644023Y-75303380D01*
X110548785Y-76303380D02*
X109977357Y-76303380D01*
X110263071Y-76303380D02*
X110263071Y-75303380D01*
X110167833Y-75446238D01*
X110072595Y-75541476D01*
X109977357Y-75589095D01*
X104163904Y-82073380D02*
X104163904Y-81073380D01*
X104402000Y-81073380D01*
X104544857Y-81121000D01*
X104640095Y-81216238D01*
X104687714Y-81311476D01*
X104735333Y-81501952D01*
X104735333Y-81644809D01*
X104687714Y-81835285D01*
X104640095Y-81930523D01*
X104544857Y-82025761D01*
X104402000Y-82073380D01*
X104163904Y-82073380D01*
X105068666Y-81073380D02*
X105687714Y-81073380D01*
X105354380Y-81454333D01*
X105497238Y-81454333D01*
X105592476Y-81501952D01*
X105640095Y-81549571D01*
X105687714Y-81644809D01*
X105687714Y-81882904D01*
X105640095Y-81978142D01*
X105592476Y-82025761D01*
X105497238Y-82073380D01*
X105211523Y-82073380D01*
X105116285Y-82025761D01*
X105068666Y-81978142D01*
X110025033Y-88201642D02*
X109977414Y-88249261D01*
X109834557Y-88296880D01*
X109739319Y-88296880D01*
X109596461Y-88249261D01*
X109501223Y-88154023D01*
X109453604Y-88058785D01*
X109405985Y-87868309D01*
X109405985Y-87725452D01*
X109453604Y-87534976D01*
X109501223Y-87439738D01*
X109596461Y-87344500D01*
X109739319Y-87296880D01*
X109834557Y-87296880D01*
X109977414Y-87344500D01*
X110025033Y-87392119D01*
X110929795Y-87296880D02*
X110453604Y-87296880D01*
X110405985Y-87773071D01*
X110453604Y-87725452D01*
X110548842Y-87677833D01*
X110786938Y-87677833D01*
X110882176Y-87725452D01*
X110929795Y-87773071D01*
X110977414Y-87868309D01*
X110977414Y-88106404D01*
X110929795Y-88201642D01*
X110882176Y-88249261D01*
X110786938Y-88296880D01*
X110548842Y-88296880D01*
X110453604Y-88249261D01*
X110405985Y-88201642D01*
X170749933Y-88266542D02*
X170702314Y-88314161D01*
X170559457Y-88361780D01*
X170464219Y-88361780D01*
X170321361Y-88314161D01*
X170226123Y-88218923D01*
X170178504Y-88123685D01*
X170130885Y-87933209D01*
X170130885Y-87790352D01*
X170178504Y-87599876D01*
X170226123Y-87504638D01*
X170321361Y-87409400D01*
X170464219Y-87361780D01*
X170559457Y-87361780D01*
X170702314Y-87409400D01*
X170749933Y-87457019D01*
X171607076Y-87695114D02*
X171607076Y-88361780D01*
X171368980Y-87314161D02*
X171130885Y-88028447D01*
X171749933Y-88028447D01*
X123988533Y-112203502D02*
X123940914Y-112251121D01*
X123798057Y-112298740D01*
X123702819Y-112298740D01*
X123559961Y-112251121D01*
X123464723Y-112155883D01*
X123417104Y-112060645D01*
X123369485Y-111870169D01*
X123369485Y-111727312D01*
X123417104Y-111536836D01*
X123464723Y-111441598D01*
X123559961Y-111346360D01*
X123702819Y-111298740D01*
X123798057Y-111298740D01*
X123940914Y-111346360D01*
X123988533Y-111393979D01*
X124321866Y-111298740D02*
X124940914Y-111298740D01*
X124607580Y-111679693D01*
X124750438Y-111679693D01*
X124845676Y-111727312D01*
X124893295Y-111774931D01*
X124940914Y-111870169D01*
X124940914Y-112108264D01*
X124893295Y-112203502D01*
X124845676Y-112251121D01*
X124750438Y-112298740D01*
X124464723Y-112298740D01*
X124369485Y-112251121D01*
X124321866Y-112203502D01*
X158075333Y-71985142D02*
X158027714Y-72032761D01*
X157884857Y-72080380D01*
X157789619Y-72080380D01*
X157646761Y-72032761D01*
X157551523Y-71937523D01*
X157503904Y-71842285D01*
X157456285Y-71651809D01*
X157456285Y-71508952D01*
X157503904Y-71318476D01*
X157551523Y-71223238D01*
X157646761Y-71128000D01*
X157789619Y-71080380D01*
X157884857Y-71080380D01*
X158027714Y-71128000D01*
X158075333Y-71175619D01*
X158456285Y-71175619D02*
X158503904Y-71128000D01*
X158599142Y-71080380D01*
X158837238Y-71080380D01*
X158932476Y-71128000D01*
X158980095Y-71175619D01*
X159027714Y-71270857D01*
X159027714Y-71366095D01*
X158980095Y-71508952D01*
X158408666Y-72080380D01*
X159027714Y-72080380D01*
X124581233Y-99629442D02*
X124533614Y-99677061D01*
X124390757Y-99724680D01*
X124295519Y-99724680D01*
X124152661Y-99677061D01*
X124057423Y-99581823D01*
X124009804Y-99486585D01*
X123962185Y-99296109D01*
X123962185Y-99153252D01*
X124009804Y-98962776D01*
X124057423Y-98867538D01*
X124152661Y-98772300D01*
X124295519Y-98724680D01*
X124390757Y-98724680D01*
X124533614Y-98772300D01*
X124581233Y-98819919D01*
X125438376Y-98724680D02*
X125247900Y-98724680D01*
X125152661Y-98772300D01*
X125105042Y-98819919D01*
X125009804Y-98962776D01*
X124962185Y-99153252D01*
X124962185Y-99534204D01*
X125009804Y-99629442D01*
X125057423Y-99677061D01*
X125152661Y-99724680D01*
X125343138Y-99724680D01*
X125438376Y-99677061D01*
X125485995Y-99629442D01*
X125533614Y-99534204D01*
X125533614Y-99296109D01*
X125485995Y-99200871D01*
X125438376Y-99153252D01*
X125343138Y-99105633D01*
X125152661Y-99105633D01*
X125057423Y-99153252D01*
X125009804Y-99200871D01*
X124962185Y-99296109D01*
X117852633Y-112427442D02*
X117805014Y-112475061D01*
X117662157Y-112522680D01*
X117566919Y-112522680D01*
X117424061Y-112475061D01*
X117328823Y-112379823D01*
X117281204Y-112284585D01*
X117233585Y-112094109D01*
X117233585Y-111951252D01*
X117281204Y-111760776D01*
X117328823Y-111665538D01*
X117424061Y-111570300D01*
X117566919Y-111522680D01*
X117662157Y-111522680D01*
X117805014Y-111570300D01*
X117852633Y-111617919D01*
X118328823Y-112522680D02*
X118519300Y-112522680D01*
X118614538Y-112475061D01*
X118662157Y-112427442D01*
X118757395Y-112284585D01*
X118805014Y-112094109D01*
X118805014Y-111713157D01*
X118757395Y-111617919D01*
X118709776Y-111570300D01*
X118614538Y-111522680D01*
X118424061Y-111522680D01*
X118328823Y-111570300D01*
X118281204Y-111617919D01*
X118233585Y-111713157D01*
X118233585Y-111951252D01*
X118281204Y-112046490D01*
X118328823Y-112094109D01*
X118424061Y-112141728D01*
X118614538Y-112141728D01*
X118709776Y-112094109D01*
X118757395Y-112046490D01*
X118805014Y-111951252D01*
X121092633Y-112427442D02*
X121045014Y-112475061D01*
X120902157Y-112522680D01*
X120806919Y-112522680D01*
X120664061Y-112475061D01*
X120568823Y-112379823D01*
X120521204Y-112284585D01*
X120473585Y-112094109D01*
X120473585Y-111951252D01*
X120521204Y-111760776D01*
X120568823Y-111665538D01*
X120664061Y-111570300D01*
X120806919Y-111522680D01*
X120902157Y-111522680D01*
X121045014Y-111570300D01*
X121092633Y-111617919D01*
X121664061Y-111951252D02*
X121568823Y-111903633D01*
X121521204Y-111856014D01*
X121473585Y-111760776D01*
X121473585Y-111713157D01*
X121521204Y-111617919D01*
X121568823Y-111570300D01*
X121664061Y-111522680D01*
X121854538Y-111522680D01*
X121949776Y-111570300D01*
X121997395Y-111617919D01*
X122045014Y-111713157D01*
X122045014Y-111760776D01*
X121997395Y-111856014D01*
X121949776Y-111903633D01*
X121854538Y-111951252D01*
X121664061Y-111951252D01*
X121568823Y-111998871D01*
X121521204Y-112046490D01*
X121473585Y-112141728D01*
X121473585Y-112332204D01*
X121521204Y-112427442D01*
X121568823Y-112475061D01*
X121664061Y-112522680D01*
X121854538Y-112522680D01*
X121949776Y-112475061D01*
X121997395Y-112427442D01*
X122045014Y-112332204D01*
X122045014Y-112141728D01*
X121997395Y-112046490D01*
X121949776Y-111998871D01*
X121854538Y-111951252D01*
X116355833Y-78747880D02*
X116022500Y-78271690D01*
X115784404Y-78747880D02*
X115784404Y-77747880D01*
X116165357Y-77747880D01*
X116260595Y-77795500D01*
X116308214Y-77843119D01*
X116355833Y-77938357D01*
X116355833Y-78081214D01*
X116308214Y-78176452D01*
X116260595Y-78224071D01*
X116165357Y-78271690D01*
X115784404Y-78271690D01*
X116927261Y-78176452D02*
X116832023Y-78128833D01*
X116784404Y-78081214D01*
X116736785Y-77985976D01*
X116736785Y-77938357D01*
X116784404Y-77843119D01*
X116832023Y-77795500D01*
X116927261Y-77747880D01*
X117117738Y-77747880D01*
X117212976Y-77795500D01*
X117260595Y-77843119D01*
X117308214Y-77938357D01*
X117308214Y-77985976D01*
X117260595Y-78081214D01*
X117212976Y-78128833D01*
X117117738Y-78176452D01*
X116927261Y-78176452D01*
X116832023Y-78224071D01*
X116784404Y-78271690D01*
X116736785Y-78366928D01*
X116736785Y-78557404D01*
X116784404Y-78652642D01*
X116832023Y-78700261D01*
X116927261Y-78747880D01*
X117117738Y-78747880D01*
X117212976Y-78700261D01*
X117260595Y-78652642D01*
X117308214Y-78557404D01*
X117308214Y-78366928D01*
X117260595Y-78271690D01*
X117212976Y-78224071D01*
X117117738Y-78176452D01*
X116419333Y-72651880D02*
X116086000Y-72175690D01*
X115847904Y-72651880D02*
X115847904Y-71651880D01*
X116228857Y-71651880D01*
X116324095Y-71699500D01*
X116371714Y-71747119D01*
X116419333Y-71842357D01*
X116419333Y-71985214D01*
X116371714Y-72080452D01*
X116324095Y-72128071D01*
X116228857Y-72175690D01*
X115847904Y-72175690D01*
X117324095Y-71651880D02*
X116847904Y-71651880D01*
X116800285Y-72128071D01*
X116847904Y-72080452D01*
X116943142Y-72032833D01*
X117181238Y-72032833D01*
X117276476Y-72080452D01*
X117324095Y-72128071D01*
X117371714Y-72223309D01*
X117371714Y-72461404D01*
X117324095Y-72556642D01*
X117276476Y-72604261D01*
X117181238Y-72651880D01*
X116943142Y-72651880D01*
X116847904Y-72604261D01*
X116800285Y-72556642D01*
X124872809Y-102973190D02*
X124872809Y-103449380D01*
X124539476Y-102449380D02*
X124872809Y-102973190D01*
X125206142Y-102449380D01*
X126063285Y-103449380D02*
X125491857Y-103449380D01*
X125777571Y-103449380D02*
X125777571Y-102449380D01*
X125682333Y-102592238D01*
X125587095Y-102687476D01*
X125491857Y-102735095D01*
X115570095Y-74509380D02*
X115570095Y-75318904D01*
X115617714Y-75414142D01*
X115665333Y-75461761D01*
X115760571Y-75509380D01*
X115951047Y-75509380D01*
X116046285Y-75461761D01*
X116093904Y-75414142D01*
X116141523Y-75318904D01*
X116141523Y-74509380D01*
X117141523Y-75509380D02*
X116570095Y-75509380D01*
X116855809Y-75509380D02*
X116855809Y-74509380D01*
X116760571Y-74652238D01*
X116665333Y-74747476D01*
X116570095Y-74795095D01*
X147637666Y-101115761D02*
X147780523Y-101163380D01*
X148018619Y-101163380D01*
X148113857Y-101115761D01*
X148161476Y-101068142D01*
X148209095Y-100972904D01*
X148209095Y-100877666D01*
X148161476Y-100782428D01*
X148113857Y-100734809D01*
X148018619Y-100687190D01*
X147828142Y-100639571D01*
X147732904Y-100591952D01*
X147685285Y-100544333D01*
X147637666Y-100449095D01*
X147637666Y-100353857D01*
X147685285Y-100258619D01*
X147732904Y-100211000D01*
X147828142Y-100163380D01*
X148066238Y-100163380D01*
X148209095Y-100211000D01*
X148542428Y-100163380D02*
X148780523Y-101163380D01*
X148971000Y-100449095D01*
X149161476Y-101163380D01*
X149399571Y-100163380D01*
X149685285Y-100163380D02*
X150304333Y-100163380D01*
X149971000Y-100544333D01*
X150113857Y-100544333D01*
X150209095Y-100591952D01*
X150256714Y-100639571D01*
X150304333Y-100734809D01*
X150304333Y-100972904D01*
X150256714Y-101068142D01*
X150209095Y-101115761D01*
X150113857Y-101163380D01*
X149828142Y-101163380D01*
X149732904Y-101115761D01*
X149685285Y-101068142D01*
X165798666Y-101115761D02*
X165941523Y-101163380D01*
X166179619Y-101163380D01*
X166274857Y-101115761D01*
X166322476Y-101068142D01*
X166370095Y-100972904D01*
X166370095Y-100877666D01*
X166322476Y-100782428D01*
X166274857Y-100734809D01*
X166179619Y-100687190D01*
X165989142Y-100639571D01*
X165893904Y-100591952D01*
X165846285Y-100544333D01*
X165798666Y-100449095D01*
X165798666Y-100353857D01*
X165846285Y-100258619D01*
X165893904Y-100211000D01*
X165989142Y-100163380D01*
X166227238Y-100163380D01*
X166370095Y-100211000D01*
X166703428Y-100163380D02*
X166941523Y-101163380D01*
X167132000Y-100449095D01*
X167322476Y-101163380D01*
X167560571Y-100163380D01*
X168370095Y-100496714D02*
X168370095Y-101163380D01*
X168132000Y-100115761D02*
X167893904Y-100830047D01*
X168512952Y-100830047D01*
X161427842Y-98826180D02*
X161094509Y-98349990D01*
X160856414Y-98826180D02*
X160856414Y-97826180D01*
X161237366Y-97826180D01*
X161332604Y-97873800D01*
X161380223Y-97921419D01*
X161427842Y-98016657D01*
X161427842Y-98159514D01*
X161380223Y-98254752D01*
X161332604Y-98302371D01*
X161237366Y-98349990D01*
X160856414Y-98349990D01*
X162380223Y-98826180D02*
X161808795Y-98826180D01*
X162094509Y-98826180D02*
X162094509Y-97826180D01*
X161999271Y-97969038D01*
X161904033Y-98064276D01*
X161808795Y-98111895D01*
X163284985Y-97826180D02*
X162808795Y-97826180D01*
X162761176Y-98302371D01*
X162808795Y-98254752D01*
X162904033Y-98207133D01*
X163142128Y-98207133D01*
X163237366Y-98254752D01*
X163284985Y-98302371D01*
X163332604Y-98397609D01*
X163332604Y-98635704D01*
X163284985Y-98730942D01*
X163237366Y-98778561D01*
X163142128Y-98826180D01*
X162904033Y-98826180D01*
X162808795Y-98778561D01*
X162761176Y-98730942D01*
X153368342Y-98833880D02*
X153035009Y-98357690D01*
X152796914Y-98833880D02*
X152796914Y-97833880D01*
X153177866Y-97833880D01*
X153273104Y-97881500D01*
X153320723Y-97929119D01*
X153368342Y-98024357D01*
X153368342Y-98167214D01*
X153320723Y-98262452D01*
X153273104Y-98310071D01*
X153177866Y-98357690D01*
X152796914Y-98357690D01*
X154320723Y-98833880D02*
X153749295Y-98833880D01*
X154035009Y-98833880D02*
X154035009Y-97833880D01*
X153939771Y-97976738D01*
X153844533Y-98071976D01*
X153749295Y-98119595D01*
X155177866Y-98167214D02*
X155177866Y-98833880D01*
X154939771Y-97786261D02*
X154701676Y-98500547D01*
X155320723Y-98500547D01*
X165917714Y-88336380D02*
X165917714Y-87336380D01*
X166155809Y-87336380D01*
X166298666Y-87384000D01*
X166393904Y-87479238D01*
X166441523Y-87574476D01*
X166489142Y-87764952D01*
X166489142Y-87907809D01*
X166441523Y-88098285D01*
X166393904Y-88193523D01*
X166298666Y-88288761D01*
X166155809Y-88336380D01*
X165917714Y-88336380D01*
X167441523Y-88336380D02*
X166870095Y-88336380D01*
X167155809Y-88336380D02*
X167155809Y-87336380D01*
X167060571Y-87479238D01*
X166965333Y-87574476D01*
X166870095Y-87622095D01*
X168060571Y-87336380D02*
X168155809Y-87336380D01*
X168251047Y-87384000D01*
X168298666Y-87431619D01*
X168346285Y-87526857D01*
X168393904Y-87717333D01*
X168393904Y-87955428D01*
X168346285Y-88145904D01*
X168298666Y-88241142D01*
X168251047Y-88288761D01*
X168155809Y-88336380D01*
X168060571Y-88336380D01*
X167965333Y-88288761D01*
X167917714Y-88241142D01*
X167870095Y-88145904D01*
X167822476Y-87955428D01*
X167822476Y-87717333D01*
X167870095Y-87526857D01*
X167917714Y-87431619D01*
X167965333Y-87384000D01*
X168060571Y-87336380D01*
X157262604Y-88336380D02*
X157262604Y-87336380D01*
X157500700Y-87336380D01*
X157643557Y-87384000D01*
X157738795Y-87479238D01*
X157786414Y-87574476D01*
X157834033Y-87764952D01*
X157834033Y-87907809D01*
X157786414Y-88098285D01*
X157738795Y-88193523D01*
X157643557Y-88288761D01*
X157500700Y-88336380D01*
X157262604Y-88336380D01*
X158310223Y-88336380D02*
X158500700Y-88336380D01*
X158595938Y-88288761D01*
X158643557Y-88241142D01*
X158738795Y-88098285D01*
X158786414Y-87907809D01*
X158786414Y-87526857D01*
X158738795Y-87431619D01*
X158691176Y-87384000D01*
X158595938Y-87336380D01*
X158405461Y-87336380D01*
X158310223Y-87384000D01*
X158262604Y-87431619D01*
X158214985Y-87526857D01*
X158214985Y-87764952D01*
X158262604Y-87860190D01*
X158310223Y-87907809D01*
X158405461Y-87955428D01*
X158595938Y-87955428D01*
X158691176Y-87907809D01*
X158738795Y-87860190D01*
X158786414Y-87764952D01*
X148245704Y-88183980D02*
X148245704Y-87183980D01*
X148483800Y-87183980D01*
X148626657Y-87231600D01*
X148721895Y-87326838D01*
X148769514Y-87422076D01*
X148817133Y-87612552D01*
X148817133Y-87755409D01*
X148769514Y-87945885D01*
X148721895Y-88041123D01*
X148626657Y-88136361D01*
X148483800Y-88183980D01*
X148245704Y-88183980D01*
X149388561Y-87612552D02*
X149293323Y-87564933D01*
X149245704Y-87517314D01*
X149198085Y-87422076D01*
X149198085Y-87374457D01*
X149245704Y-87279219D01*
X149293323Y-87231600D01*
X149388561Y-87183980D01*
X149579038Y-87183980D01*
X149674276Y-87231600D01*
X149721895Y-87279219D01*
X149769514Y-87374457D01*
X149769514Y-87422076D01*
X149721895Y-87517314D01*
X149674276Y-87564933D01*
X149579038Y-87612552D01*
X149388561Y-87612552D01*
X149293323Y-87660171D01*
X149245704Y-87707790D01*
X149198085Y-87803028D01*
X149198085Y-87993504D01*
X149245704Y-88088742D01*
X149293323Y-88136361D01*
X149388561Y-88183980D01*
X149579038Y-88183980D01*
X149674276Y-88136361D01*
X149721895Y-88088742D01*
X149769514Y-87993504D01*
X149769514Y-87803028D01*
X149721895Y-87707790D01*
X149674276Y-87660171D01*
X149579038Y-87612552D01*
X139088904Y-88336380D02*
X139088904Y-87336380D01*
X139327000Y-87336380D01*
X139469857Y-87384000D01*
X139565095Y-87479238D01*
X139612714Y-87574476D01*
X139660333Y-87764952D01*
X139660333Y-87907809D01*
X139612714Y-88098285D01*
X139565095Y-88193523D01*
X139469857Y-88288761D01*
X139327000Y-88336380D01*
X139088904Y-88336380D01*
X139993666Y-87336380D02*
X140660333Y-87336380D01*
X140231761Y-88336380D01*
X129944904Y-88336380D02*
X129944904Y-87336380D01*
X130183000Y-87336380D01*
X130325857Y-87384000D01*
X130421095Y-87479238D01*
X130468714Y-87574476D01*
X130516333Y-87764952D01*
X130516333Y-87907809D01*
X130468714Y-88098285D01*
X130421095Y-88193523D01*
X130325857Y-88288761D01*
X130183000Y-88336380D01*
X129944904Y-88336380D01*
X131373476Y-87336380D02*
X131183000Y-87336380D01*
X131087761Y-87384000D01*
X131040142Y-87431619D01*
X130944904Y-87574476D01*
X130897285Y-87764952D01*
X130897285Y-88145904D01*
X130944904Y-88241142D01*
X130992523Y-88288761D01*
X131087761Y-88336380D01*
X131278238Y-88336380D01*
X131373476Y-88288761D01*
X131421095Y-88241142D01*
X131468714Y-88145904D01*
X131468714Y-87907809D01*
X131421095Y-87812571D01*
X131373476Y-87764952D01*
X131278238Y-87717333D01*
X131087761Y-87717333D01*
X130992523Y-87764952D01*
X130944904Y-87812571D01*
X130897285Y-87907809D01*
X120864404Y-88336380D02*
X120864404Y-87336380D01*
X121102500Y-87336380D01*
X121245357Y-87384000D01*
X121340595Y-87479238D01*
X121388214Y-87574476D01*
X121435833Y-87764952D01*
X121435833Y-87907809D01*
X121388214Y-88098285D01*
X121340595Y-88193523D01*
X121245357Y-88288761D01*
X121102500Y-88336380D01*
X120864404Y-88336380D01*
X122340595Y-87336380D02*
X121864404Y-87336380D01*
X121816785Y-87812571D01*
X121864404Y-87764952D01*
X121959642Y-87717333D01*
X122197738Y-87717333D01*
X122292976Y-87764952D01*
X122340595Y-87812571D01*
X122388214Y-87907809D01*
X122388214Y-88145904D01*
X122340595Y-88241142D01*
X122292976Y-88288761D01*
X122197738Y-88336380D01*
X121959642Y-88336380D01*
X121864404Y-88288761D01*
X121816785Y-88241142D01*
X111910904Y-88336380D02*
X111910904Y-87336380D01*
X112149000Y-87336380D01*
X112291857Y-87384000D01*
X112387095Y-87479238D01*
X112434714Y-87574476D01*
X112482333Y-87764952D01*
X112482333Y-87907809D01*
X112434714Y-88098285D01*
X112387095Y-88193523D01*
X112291857Y-88288761D01*
X112149000Y-88336380D01*
X111910904Y-88336380D01*
X113339476Y-87669714D02*
X113339476Y-88336380D01*
X113101380Y-87288761D02*
X112863285Y-88003047D01*
X113482333Y-88003047D01*
X154265333Y-72080380D02*
X153932000Y-71604190D01*
X153693904Y-72080380D02*
X153693904Y-71080380D01*
X154074857Y-71080380D01*
X154170095Y-71128000D01*
X154217714Y-71175619D01*
X154265333Y-71270857D01*
X154265333Y-71413714D01*
X154217714Y-71508952D01*
X154170095Y-71556571D01*
X154074857Y-71604190D01*
X153693904Y-71604190D01*
X155122476Y-71080380D02*
X154932000Y-71080380D01*
X154836761Y-71128000D01*
X154789142Y-71175619D01*
X154693904Y-71318476D01*
X154646285Y-71508952D01*
X154646285Y-71889904D01*
X154693904Y-71985142D01*
X154741523Y-72032761D01*
X154836761Y-72080380D01*
X155027238Y-72080380D01*
X155122476Y-72032761D01*
X155170095Y-71985142D01*
X155217714Y-71889904D01*
X155217714Y-71651809D01*
X155170095Y-71556571D01*
X155122476Y-71508952D01*
X155027238Y-71461333D01*
X154836761Y-71461333D01*
X154741523Y-71508952D01*
X154693904Y-71556571D01*
X154646285Y-71651809D01*
X153560542Y-86202780D02*
X153227209Y-85726590D01*
X152989114Y-86202780D02*
X152989114Y-85202780D01*
X153370066Y-85202780D01*
X153465304Y-85250400D01*
X153512923Y-85298019D01*
X153560542Y-85393257D01*
X153560542Y-85536114D01*
X153512923Y-85631352D01*
X153465304Y-85678971D01*
X153370066Y-85726590D01*
X152989114Y-85726590D01*
X153941495Y-85298019D02*
X153989114Y-85250400D01*
X154084352Y-85202780D01*
X154322447Y-85202780D01*
X154417685Y-85250400D01*
X154465304Y-85298019D01*
X154512923Y-85393257D01*
X154512923Y-85488495D01*
X154465304Y-85631352D01*
X153893876Y-86202780D01*
X154512923Y-86202780D01*
X155131971Y-85202780D02*
X155227209Y-85202780D01*
X155322447Y-85250400D01*
X155370066Y-85298019D01*
X155417685Y-85393257D01*
X155465304Y-85583733D01*
X155465304Y-85821828D01*
X155417685Y-86012304D01*
X155370066Y-86107542D01*
X155322447Y-86155161D01*
X155227209Y-86202780D01*
X155131971Y-86202780D01*
X155036733Y-86155161D01*
X154989114Y-86107542D01*
X154941495Y-86012304D01*
X154893876Y-85821828D01*
X154893876Y-85583733D01*
X154941495Y-85393257D01*
X154989114Y-85298019D01*
X155036733Y-85250400D01*
X155131971Y-85202780D01*
X143375142Y-102306380D02*
X143041809Y-101830190D01*
X142803714Y-102306380D02*
X142803714Y-101306380D01*
X143184666Y-101306380D01*
X143279904Y-101354000D01*
X143327523Y-101401619D01*
X143375142Y-101496857D01*
X143375142Y-101639714D01*
X143327523Y-101734952D01*
X143279904Y-101782571D01*
X143184666Y-101830190D01*
X142803714Y-101830190D01*
X144327523Y-102306380D02*
X143756095Y-102306380D01*
X144041809Y-102306380D02*
X144041809Y-101306380D01*
X143946571Y-101449238D01*
X143851333Y-101544476D01*
X143756095Y-101592095D01*
X144708476Y-101401619D02*
X144756095Y-101354000D01*
X144851333Y-101306380D01*
X145089428Y-101306380D01*
X145184666Y-101354000D01*
X145232285Y-101401619D01*
X145279904Y-101496857D01*
X145279904Y-101592095D01*
X145232285Y-101734952D01*
X144660857Y-102306380D01*
X145279904Y-102306380D01*
X166108142Y-81732380D02*
X165774809Y-81256190D01*
X165536714Y-81732380D02*
X165536714Y-80732380D01*
X165917666Y-80732380D01*
X166012904Y-80780000D01*
X166060523Y-80827619D01*
X166108142Y-80922857D01*
X166108142Y-81065714D01*
X166060523Y-81160952D01*
X166012904Y-81208571D01*
X165917666Y-81256190D01*
X165536714Y-81256190D01*
X167060523Y-81732380D02*
X166489095Y-81732380D01*
X166774809Y-81732380D02*
X166774809Y-80732380D01*
X166679571Y-80875238D01*
X166584333Y-80970476D01*
X166489095Y-81018095D01*
X168012904Y-81732380D02*
X167441476Y-81732380D01*
X167727190Y-81732380D02*
X167727190Y-80732380D01*
X167631952Y-80875238D01*
X167536714Y-80970476D01*
X167441476Y-81018095D01*
X164679333Y-72461380D02*
X164346000Y-71985190D01*
X164107904Y-72461380D02*
X164107904Y-71461380D01*
X164488857Y-71461380D01*
X164584095Y-71509000D01*
X164631714Y-71556619D01*
X164679333Y-71651857D01*
X164679333Y-71794714D01*
X164631714Y-71889952D01*
X164584095Y-71937571D01*
X164488857Y-71985190D01*
X164107904Y-71985190D01*
X165155523Y-72461380D02*
X165346000Y-72461380D01*
X165441238Y-72413761D01*
X165488857Y-72366142D01*
X165584095Y-72223285D01*
X165631714Y-72032809D01*
X165631714Y-71651857D01*
X165584095Y-71556619D01*
X165536476Y-71509000D01*
X165441238Y-71461380D01*
X165250761Y-71461380D01*
X165155523Y-71509000D01*
X165107904Y-71556619D01*
X165060285Y-71651857D01*
X165060285Y-71889952D01*
X165107904Y-71985190D01*
X165155523Y-72032809D01*
X165250761Y-72080428D01*
X165441238Y-72080428D01*
X165536476Y-72032809D01*
X165584095Y-71985190D01*
X165631714Y-71889952D01*
X151979333Y-72080380D02*
X151646000Y-71604190D01*
X151407904Y-72080380D02*
X151407904Y-71080380D01*
X151788857Y-71080380D01*
X151884095Y-71128000D01*
X151931714Y-71175619D01*
X151979333Y-71270857D01*
X151979333Y-71413714D01*
X151931714Y-71508952D01*
X151884095Y-71556571D01*
X151788857Y-71604190D01*
X151407904Y-71604190D01*
X152312666Y-71080380D02*
X152979333Y-71080380D01*
X152550761Y-72080380D01*
X126706333Y-79097142D02*
X126658714Y-79144761D01*
X126515857Y-79192380D01*
X126420619Y-79192380D01*
X126277761Y-79144761D01*
X126182523Y-79049523D01*
X126134904Y-78954285D01*
X126087285Y-78763809D01*
X126087285Y-78620952D01*
X126134904Y-78430476D01*
X126182523Y-78335238D01*
X126277761Y-78240000D01*
X126420619Y-78192380D01*
X126515857Y-78192380D01*
X126658714Y-78240000D01*
X126706333Y-78287619D01*
X127658714Y-79192380D02*
X127087285Y-79192380D01*
X127373000Y-79192380D02*
X127373000Y-78192380D01*
X127277761Y-78335238D01*
X127182523Y-78430476D01*
X127087285Y-78478095D01*
X122828633Y-96835442D02*
X122781014Y-96883061D01*
X122638157Y-96930680D01*
X122542919Y-96930680D01*
X122400061Y-96883061D01*
X122304823Y-96787823D01*
X122257204Y-96692585D01*
X122209585Y-96502109D01*
X122209585Y-96359252D01*
X122257204Y-96168776D01*
X122304823Y-96073538D01*
X122400061Y-95978300D01*
X122542919Y-95930680D01*
X122638157Y-95930680D01*
X122781014Y-95978300D01*
X122828633Y-96025919D01*
X123161966Y-95930680D02*
X123828633Y-95930680D01*
X123400061Y-96930680D01*
X139146042Y-92197180D02*
X138812709Y-91720990D01*
X138574614Y-92197180D02*
X138574614Y-91197180D01*
X138955566Y-91197180D01*
X139050804Y-91244800D01*
X139098423Y-91292419D01*
X139146042Y-91387657D01*
X139146042Y-91530514D01*
X139098423Y-91625752D01*
X139050804Y-91673371D01*
X138955566Y-91720990D01*
X138574614Y-91720990D01*
X140098423Y-92197180D02*
X139526995Y-92197180D01*
X139812709Y-92197180D02*
X139812709Y-91197180D01*
X139717471Y-91340038D01*
X139622233Y-91435276D01*
X139526995Y-91482895D01*
X140431757Y-91197180D02*
X141050804Y-91197180D01*
X140717471Y-91578133D01*
X140860328Y-91578133D01*
X140955566Y-91625752D01*
X141003185Y-91673371D01*
X141050804Y-91768609D01*
X141050804Y-92006704D01*
X141003185Y-92101942D01*
X140955566Y-92149561D01*
X140860328Y-92197180D01*
X140574614Y-92197180D01*
X140479376Y-92149561D01*
X140431757Y-92101942D01*
M02*
