M48
; DRILL file {KiCad (5.1.5)-3} date 7/17/2020 5:22:07 PM
; FORMAT={-:-/ absolute / inch / decimal}
; #@! TF.CreationDate,2020-07-17T17:22:07-07:00
; #@! TF.GenerationSoftware,Kicad,Pcbnew,(5.1.5)-3
; #@! TF.FileFunction,Plated,1,2,PTH
FMAT,2
INCH
T1C0.0118
T2C0.0157
T3C0.0394
T4C0.0469
%
G90
G05
T1
X4.17Y-3.955
X4.39Y-3.47
X4.425Y-3.915
X4.46Y-3.945
X4.515Y-3.6
X4.545Y-3.625
X4.6043Y-4.1484
X4.615Y-3.73
X4.62Y-3.7911
X4.6775Y-4.1309
X4.7078Y-4.1309
X4.709Y-3.796
X4.737Y-2.9955
X4.7704Y-4.1317
X4.7733Y-3.9064
X4.7733Y-3.8614
X4.795Y-3.735
X4.8263Y-3.9664
X4.835Y-3.74
X4.835Y-4.155
X4.8917Y-3.8655
X4.8917Y-3.9217
X4.8917Y-3.9777
X4.8917Y-4.0237
X4.8917Y-4.0667
X4.985Y-4.165
X5.01Y-3.65
X5.1Y-3.625
X5.115Y-3.6
X5.125Y-4.01
X5.185Y-3.885
X5.185Y-3.965
X5.2355Y-3.6205
X5.2355Y-3.6855
X5.245Y-3.885
X5.245Y-3.965
X5.305Y-3.885
X5.305Y-3.965
X5.355Y-3.715
X5.355Y-3.885
X5.3729Y-3.1141
X5.375Y-3.61
X5.405Y-3.715
X5.43Y-3.61
X5.455Y-3.715
X5.505Y-3.715
X5.555Y-3.715
X5.595Y-3.855
X5.595Y-3.915
X5.595Y-3.985
X5.605Y-3.715
X5.665Y-4.07
X5.725Y-3.89
X5.9288Y-3.4032
X6.395Y-3.125
X6.44Y-2.91
X6.48Y-2.98
X6.655Y-3.3
T2
X3.97Y-3.015
X4.055Y-3.22
X4.055Y-3.32
X4.055Y-3.415
X4.055Y-3.555
X4.055Y-3.685
X4.055Y-3.82
X4.085Y-3.015
X4.105Y-4.095
X4.135Y-2.845
X4.135Y-2.91
X4.14Y-2.765
X4.155Y-2.975
X4.155Y-3.22
X4.205Y-4.33
X4.21Y-4.095
X4.23Y-2.765
X4.23Y-2.975
X4.245Y-3.22
X4.26Y-3.705
X4.26Y-3.81
X4.26Y-3.945
X4.275Y-3.475
X4.275Y-3.585
X4.285Y-3.115
X4.3Y-2.975
X4.3Y-4.4
X4.305Y-3.89
X4.31Y-2.765
X4.355Y-3.945
X4.4Y-2.765
X4.41Y-3.14
X4.41Y-3.22
X4.42Y-2.975
X4.425Y-4.415
X4.43Y-3.075
X4.43Y-3.705
X4.43Y-3.81
X4.46Y-4.36
X4.475Y-3.505
X4.48Y-2.765
X4.54Y-4.24
X4.54Y-4.325
X4.54Y-4.505
X4.5544Y-2.765
X4.5816Y-3.0496
X4.5831Y-2.9957
X4.595Y-2.895
X4.615Y-2.765
X4.615Y-3.73
X4.67Y-3.525
X4.7086Y-3.9076
X4.71Y-4.505
X4.795Y-3.525
X4.8555Y-4.2032
X4.86Y-4.505
X4.88Y-3.355
X4.9048Y-3.2367
X4.925Y-3.525
X4.94Y-4.315
X4.955Y-3.795
X4.97Y-2.785
X4.97Y-2.95
X4.97Y-3.025
X4.975Y-3.26
X4.99Y-4.505
X5.01Y-3.1
X5.0229Y-3.2619
X5.05Y-2.785
X5.05Y-3.025
X5.06Y-3.6586
X5.06Y-4.23
X5.085Y-3.215
X5.095Y-3.54
X5.105Y-4.505
X5.1357Y-3.115
X5.16Y-4.23
X5.205Y-2.79
X5.205Y-2.84
X5.205Y-2.89
X5.205Y-2.94
X5.225Y-4.505
X5.24Y-4.23
X5.2544Y-3.3339
X5.255Y-2.79
X5.255Y-2.84
X5.255Y-2.89
X5.255Y-2.94
X5.2989Y-3.1989
X5.305Y-2.79
X5.305Y-2.84
X5.305Y-2.89
X5.305Y-2.94
X5.33Y-4.23
X5.36Y-4.505
X5.385Y-2.83
X5.385Y-2.885
X5.385Y-2.945
X5.385Y-3.21
X5.432Y-3.243
X5.47Y-2.96
X5.47Y-3.28
X5.63Y-3.235
X5.635Y-2.77
X5.645Y-4.235
X5.645Y-4.505
X5.648Y-3.334
X5.675Y-3.8
X5.72Y-2.95
X5.72Y-3.235
X5.73Y-3.63
X5.745Y-4.235
X5.765Y-4.505
X5.79Y-3.73
X5.805Y-3.97
X5.855Y-4.235
X5.875Y-4.505
X5.88Y-3.805
X5.885Y-2.945
X5.89Y-3.205
X5.89Y-4.05
X5.9275Y-3.565
X5.9571Y-4.3229
X5.98Y-3.65
X6.0Y-3.52
X6.005Y-3.205
X6.005Y-3.5875
X6.01Y-4.505
X6.03Y-2.945
X6.04Y-4.265
X6.0426Y-3.38
X6.065Y-3.765
X6.135Y-3.205
X6.135Y-4.0055
X6.14Y-3.92
X6.15Y-4.505
X6.17Y-3.69
X6.185Y-2.975
X6.195Y-2.76
X6.2Y-4.185
X6.23Y-2.855
X6.25Y-3.205
X6.25Y-4.26
X6.26Y-3.605
X6.29Y-4.5
X6.2945Y-4.0065
X6.295Y-2.975
X6.295Y-3.915
X6.355Y-3.525
X6.36Y-3.205
X6.39Y-2.975
X6.41Y-3.39
X6.425Y-4.235
X6.45Y-4.505
X6.465Y-3.7
X6.56Y-3.61
X6.57Y-4.225
X6.58Y-2.8
X6.58Y-2.905
X6.58Y-3.005
X6.58Y-3.105
X6.58Y-3.245
X6.58Y-3.965
X6.58Y-4.505
X6.585Y-4.12
X6.62Y-4.395
X6.625Y-4.225
X6.66Y-3.925
X6.66Y-4.015
X6.68Y-3.48
X6.68Y-3.56
X6.68Y-3.65
X6.71Y-4.505
X6.73Y-3.215
X6.81Y-3.76
X6.81Y-3.9
X6.81Y-4.025
X6.81Y-4.14
X6.82Y-3.365
T3
X4.695Y-2.84
X4.795Y-2.84
X4.895Y-2.84
T4
X5.57Y-3.15
X5.67Y-3.15
X5.77Y-3.15
X5.435Y-4.24
X5.535Y-4.24
X4.23Y-2.865
X4.33Y-2.865
X5.4741Y-2.8743
X5.5741Y-2.8743
X5.6741Y-2.8743
X5.7741Y-2.8743
T0
M30
