G04 #@! TF.GenerationSoftware,KiCad,Pcbnew,(5.1.5)-3*
G04 #@! TF.CreationDate,2020-07-17T17:22:00-07:00*
G04 #@! TF.ProjectId,4-mill-vent,342d6d69-6c6c-42d7-9665-6e742e6b6963,rev?*
G04 #@! TF.SameCoordinates,Original*
G04 #@! TF.FileFunction,Paste,Bot*
G04 #@! TF.FilePolarity,Positive*
%FSLAX46Y46*%
G04 Gerber Fmt 4.6, Leading zero omitted, Abs format (unit mm)*
G04 Created by KiCad (PCBNEW (5.1.5)-3) date 2020-07-17 17:22:00*
%MOMM*%
%LPD*%
G04 APERTURE LIST*
%ADD10R,0.550000X1.600000*%
%ADD11R,1.600000X0.550000*%
%ADD12R,2.750000X3.050000*%
%ADD13R,1.200000X2.200000*%
%ADD14R,3.050000X2.750000*%
%ADD15R,2.200000X1.200000*%
%ADD16R,2.500000X2.300000*%
%ADD17C,0.100000*%
%ADD18R,1.500000X2.000000*%
%ADD19R,3.800000X2.000000*%
%ADD20R,3.150000X1.000000*%
G04 APERTURE END LIST*
D10*
X124398300Y-104919300D03*
X123598300Y-104919300D03*
X122798300Y-104919300D03*
X121998300Y-104919300D03*
X121198300Y-104919300D03*
X120398300Y-104919300D03*
X119598300Y-104919300D03*
X118798300Y-104919300D03*
D11*
X117348300Y-103469300D03*
X117348300Y-102669300D03*
X117348300Y-101869300D03*
X117348300Y-101069300D03*
X117348300Y-100269300D03*
X117348300Y-99469300D03*
X117348300Y-98669300D03*
X117348300Y-97869300D03*
D10*
X118798300Y-96419300D03*
X119598300Y-96419300D03*
X120398300Y-96419300D03*
X121198300Y-96419300D03*
X121998300Y-96419300D03*
X122798300Y-96419300D03*
X123598300Y-96419300D03*
X124398300Y-96419300D03*
D11*
X125848300Y-97869300D03*
X125848300Y-98669300D03*
X125848300Y-99469300D03*
X125848300Y-100269300D03*
X125848300Y-101069300D03*
X125848300Y-101869300D03*
X125848300Y-102669300D03*
X125848300Y-103469300D03*
D12*
X130936000Y-74505000D03*
X133986000Y-71155000D03*
X133986000Y-74505000D03*
X130936000Y-71155000D03*
D13*
X130181000Y-79130000D03*
X132461000Y-79130000D03*
X134741000Y-79130000D03*
D14*
X121368000Y-84456000D03*
X118018000Y-81406000D03*
X121368000Y-81406000D03*
X118018000Y-84456000D03*
D15*
X125993000Y-85211000D03*
X125993000Y-80651000D03*
D16*
X131073000Y-88011000D03*
X135373000Y-88011000D03*
D17*
G36*
X136624504Y-82519204D02*
G01*
X136648773Y-82522804D01*
X136672571Y-82528765D01*
X136695671Y-82537030D01*
X136717849Y-82547520D01*
X136738893Y-82560133D01*
X136758598Y-82574747D01*
X136776777Y-82591223D01*
X136793253Y-82609402D01*
X136807867Y-82629107D01*
X136820480Y-82650151D01*
X136830970Y-82672329D01*
X136839235Y-82695429D01*
X136845196Y-82719227D01*
X136848796Y-82743496D01*
X136850000Y-82768000D01*
X136850000Y-84618000D01*
X136848796Y-84642504D01*
X136845196Y-84666773D01*
X136839235Y-84690571D01*
X136830970Y-84713671D01*
X136820480Y-84735849D01*
X136807867Y-84756893D01*
X136793253Y-84776598D01*
X136776777Y-84794777D01*
X136758598Y-84811253D01*
X136738893Y-84825867D01*
X136717849Y-84838480D01*
X136695671Y-84848970D01*
X136672571Y-84857235D01*
X136648773Y-84863196D01*
X136624504Y-84866796D01*
X136600000Y-84868000D01*
X135025000Y-84868000D01*
X135000496Y-84866796D01*
X134976227Y-84863196D01*
X134952429Y-84857235D01*
X134929329Y-84848970D01*
X134907151Y-84838480D01*
X134886107Y-84825867D01*
X134866402Y-84811253D01*
X134848223Y-84794777D01*
X134831747Y-84776598D01*
X134817133Y-84756893D01*
X134804520Y-84735849D01*
X134794030Y-84713671D01*
X134785765Y-84690571D01*
X134779804Y-84666773D01*
X134776204Y-84642504D01*
X134775000Y-84618000D01*
X134775000Y-82768000D01*
X134776204Y-82743496D01*
X134779804Y-82719227D01*
X134785765Y-82695429D01*
X134794030Y-82672329D01*
X134804520Y-82650151D01*
X134817133Y-82629107D01*
X134831747Y-82609402D01*
X134848223Y-82591223D01*
X134866402Y-82574747D01*
X134886107Y-82560133D01*
X134907151Y-82547520D01*
X134929329Y-82537030D01*
X134952429Y-82528765D01*
X134976227Y-82522804D01*
X135000496Y-82519204D01*
X135025000Y-82518000D01*
X136600000Y-82518000D01*
X136624504Y-82519204D01*
G37*
G36*
X131699504Y-82519204D02*
G01*
X131723773Y-82522804D01*
X131747571Y-82528765D01*
X131770671Y-82537030D01*
X131792849Y-82547520D01*
X131813893Y-82560133D01*
X131833598Y-82574747D01*
X131851777Y-82591223D01*
X131868253Y-82609402D01*
X131882867Y-82629107D01*
X131895480Y-82650151D01*
X131905970Y-82672329D01*
X131914235Y-82695429D01*
X131920196Y-82719227D01*
X131923796Y-82743496D01*
X131925000Y-82768000D01*
X131925000Y-84618000D01*
X131923796Y-84642504D01*
X131920196Y-84666773D01*
X131914235Y-84690571D01*
X131905970Y-84713671D01*
X131895480Y-84735849D01*
X131882867Y-84756893D01*
X131868253Y-84776598D01*
X131851777Y-84794777D01*
X131833598Y-84811253D01*
X131813893Y-84825867D01*
X131792849Y-84838480D01*
X131770671Y-84848970D01*
X131747571Y-84857235D01*
X131723773Y-84863196D01*
X131699504Y-84866796D01*
X131675000Y-84868000D01*
X130100000Y-84868000D01*
X130075496Y-84866796D01*
X130051227Y-84863196D01*
X130027429Y-84857235D01*
X130004329Y-84848970D01*
X129982151Y-84838480D01*
X129961107Y-84825867D01*
X129941402Y-84811253D01*
X129923223Y-84794777D01*
X129906747Y-84776598D01*
X129892133Y-84756893D01*
X129879520Y-84735849D01*
X129869030Y-84713671D01*
X129860765Y-84690571D01*
X129854804Y-84666773D01*
X129851204Y-84642504D01*
X129850000Y-84618000D01*
X129850000Y-82768000D01*
X129851204Y-82743496D01*
X129854804Y-82719227D01*
X129860765Y-82695429D01*
X129869030Y-82672329D01*
X129879520Y-82650151D01*
X129892133Y-82629107D01*
X129906747Y-82609402D01*
X129923223Y-82591223D01*
X129941402Y-82574747D01*
X129961107Y-82560133D01*
X129982151Y-82547520D01*
X130004329Y-82537030D01*
X130027429Y-82528765D01*
X130051227Y-82522804D01*
X130075496Y-82519204D01*
X130100000Y-82518000D01*
X131675000Y-82518000D01*
X131699504Y-82519204D01*
G37*
D18*
X147052000Y-98831000D03*
X151652000Y-98831000D03*
X149352000Y-98831000D03*
D19*
X149352000Y-105131000D03*
D18*
X154982000Y-77211000D03*
X150382000Y-77211000D03*
X152682000Y-77211000D03*
D19*
X152682000Y-70911000D03*
D20*
X146467000Y-85431000D03*
X141417000Y-85431000D03*
X146467000Y-87971000D03*
X141417000Y-87971000D03*
X146467000Y-90511000D03*
X141417000Y-90511000D03*
M02*
