G04 #@! TF.GenerationSoftware,KiCad,Pcbnew,(5.1.5)-3*
G04 #@! TF.CreationDate,2020-08-02T12:18:09-07:00*
G04 #@! TF.ProjectId,4-mill-vent,342d6d69-6c6c-42d7-9665-6e742e6b6963,rev?*
G04 #@! TF.SameCoordinates,Original*
G04 #@! TF.FileFunction,Copper,L2,Bot*
G04 #@! TF.FilePolarity,Positive*
%FSLAX46Y46*%
G04 Gerber Fmt 4.6, Leading zero omitted, Abs format (unit mm)*
G04 Created by KiCad (PCBNEW (5.1.5)-3) date 2020-08-02 12:18:09*
%MOMM*%
%LPD*%
G04 APERTURE LIST*
%ADD10C,0.150000*%
%ADD11O,1.740000X2.190000*%
%ADD12C,0.100000*%
%ADD13R,0.550000X1.600000*%
%ADD14R,1.600000X0.550000*%
%ADD15R,5.800000X6.400000*%
%ADD16R,1.200000X2.200000*%
%ADD17O,1.500000X2.500000*%
%ADD18R,1.500000X2.500000*%
%ADD19R,6.400000X5.800000*%
%ADD20R,2.200000X1.200000*%
%ADD21R,2.500000X2.300000*%
%ADD22R,1.500000X2.000000*%
%ADD23R,3.800000X2.000000*%
%ADD24R,3.150000X1.000000*%
%ADD25C,0.800000*%
%ADD26C,0.400000*%
%ADD27C,0.508000*%
%ADD28C,0.254000*%
%ADD29C,0.250000*%
%ADD30C,0.635000*%
%ADD31C,0.762000*%
%ADD32C,0.381000*%
G04 APERTURE END LIST*
D10*
X109743619Y-108275380D02*
X109743619Y-107275380D01*
X109172190Y-108275380D02*
X109600761Y-107703952D01*
X109172190Y-107275380D02*
X109743619Y-107846809D01*
X108696000Y-108275380D02*
X108505523Y-108275380D01*
X108410285Y-108227761D01*
X108362666Y-108180142D01*
X108267428Y-108037285D01*
X108219809Y-107846809D01*
X108219809Y-107465857D01*
X108267428Y-107370619D01*
X108315047Y-107323000D01*
X108410285Y-107275380D01*
X108600761Y-107275380D01*
X108696000Y-107323000D01*
X108743619Y-107370619D01*
X108791238Y-107465857D01*
X108791238Y-107703952D01*
X108743619Y-107799190D01*
X108696000Y-107846809D01*
X108600761Y-107894428D01*
X108410285Y-107894428D01*
X108315047Y-107846809D01*
X108267428Y-107799190D01*
X108219809Y-107703952D01*
X107791238Y-108275380D02*
X107791238Y-107275380D01*
X107553142Y-107275380D01*
X107410285Y-107323000D01*
X107315047Y-107418238D01*
X107267428Y-107513476D01*
X107219809Y-107703952D01*
X107219809Y-107846809D01*
X107267428Y-108037285D01*
X107315047Y-108132523D01*
X107410285Y-108227761D01*
X107553142Y-108275380D01*
X107791238Y-108275380D01*
X106934095Y-107275380D02*
X106362666Y-107275380D01*
X106648380Y-108275380D02*
X106648380Y-107275380D01*
X106172190Y-107275380D02*
X105838857Y-108275380D01*
X105505523Y-107275380D01*
D11*
X138049000Y-107696000D03*
G04 #@! TA.AperFunction,ComponentPad*
D12*
G36*
X141233505Y-106602204D02*
G01*
X141257773Y-106605804D01*
X141281572Y-106611765D01*
X141304671Y-106620030D01*
X141326850Y-106630520D01*
X141347893Y-106643132D01*
X141367599Y-106657747D01*
X141385777Y-106674223D01*
X141402253Y-106692401D01*
X141416868Y-106712107D01*
X141429480Y-106733150D01*
X141439970Y-106755329D01*
X141448235Y-106778428D01*
X141454196Y-106802227D01*
X141457796Y-106826495D01*
X141459000Y-106850999D01*
X141459000Y-108541001D01*
X141457796Y-108565505D01*
X141454196Y-108589773D01*
X141448235Y-108613572D01*
X141439970Y-108636671D01*
X141429480Y-108658850D01*
X141416868Y-108679893D01*
X141402253Y-108699599D01*
X141385777Y-108717777D01*
X141367599Y-108734253D01*
X141347893Y-108748868D01*
X141326850Y-108761480D01*
X141304671Y-108771970D01*
X141281572Y-108780235D01*
X141257773Y-108786196D01*
X141233505Y-108789796D01*
X141209001Y-108791000D01*
X139968999Y-108791000D01*
X139944495Y-108789796D01*
X139920227Y-108786196D01*
X139896428Y-108780235D01*
X139873329Y-108771970D01*
X139851150Y-108761480D01*
X139830107Y-108748868D01*
X139810401Y-108734253D01*
X139792223Y-108717777D01*
X139775747Y-108699599D01*
X139761132Y-108679893D01*
X139748520Y-108658850D01*
X139738030Y-108636671D01*
X139729765Y-108613572D01*
X139723804Y-108589773D01*
X139720204Y-108565505D01*
X139719000Y-108541001D01*
X139719000Y-106850999D01*
X139720204Y-106826495D01*
X139723804Y-106802227D01*
X139729765Y-106778428D01*
X139738030Y-106755329D01*
X139748520Y-106733150D01*
X139761132Y-106712107D01*
X139775747Y-106692401D01*
X139792223Y-106674223D01*
X139810401Y-106657747D01*
X139830107Y-106643132D01*
X139851150Y-106630520D01*
X139873329Y-106620030D01*
X139896428Y-106611765D01*
X139920227Y-106605804D01*
X139944495Y-106602204D01*
X139968999Y-106601000D01*
X141209001Y-106601000D01*
X141233505Y-106602204D01*
G37*
G04 #@! TD.AperFunction*
D13*
X124398300Y-104919300D03*
X123598300Y-104919300D03*
X122798300Y-104919300D03*
X121998300Y-104919300D03*
X121198300Y-104919300D03*
X120398300Y-104919300D03*
X119598300Y-104919300D03*
X118798300Y-104919300D03*
D14*
X117348300Y-103469300D03*
X117348300Y-102669300D03*
X117348300Y-101869300D03*
X117348300Y-101069300D03*
X117348300Y-100269300D03*
X117348300Y-99469300D03*
X117348300Y-98669300D03*
X117348300Y-97869300D03*
D13*
X118798300Y-96419300D03*
X119598300Y-96419300D03*
X120398300Y-96419300D03*
X121198300Y-96419300D03*
X121998300Y-96419300D03*
X122798300Y-96419300D03*
X123598300Y-96419300D03*
X124398300Y-96419300D03*
D14*
X125848300Y-97869300D03*
X125848300Y-98669300D03*
X125848300Y-99469300D03*
X125848300Y-100269300D03*
X125848300Y-101069300D03*
X125848300Y-101869300D03*
X125848300Y-102669300D03*
X125848300Y-103469300D03*
D15*
X132461000Y-72830000D03*
D16*
X130181000Y-79130000D03*
X132461000Y-79130000D03*
X134741000Y-79130000D03*
D17*
X124333000Y-72136000D03*
X121793000Y-72136000D03*
D18*
X119253000Y-72136000D03*
D19*
X119693000Y-82931000D03*
D20*
X125993000Y-85211000D03*
X125993000Y-80651000D03*
D11*
X146558000Y-80010000D03*
X144018000Y-80010000D03*
G04 #@! TA.AperFunction,ComponentPad*
D12*
G36*
X142122505Y-78916204D02*
G01*
X142146773Y-78919804D01*
X142170572Y-78925765D01*
X142193671Y-78934030D01*
X142215850Y-78944520D01*
X142236893Y-78957132D01*
X142256599Y-78971747D01*
X142274777Y-78988223D01*
X142291253Y-79006401D01*
X142305868Y-79026107D01*
X142318480Y-79047150D01*
X142328970Y-79069329D01*
X142337235Y-79092428D01*
X142343196Y-79116227D01*
X142346796Y-79140495D01*
X142348000Y-79164999D01*
X142348000Y-80855001D01*
X142346796Y-80879505D01*
X142343196Y-80903773D01*
X142337235Y-80927572D01*
X142328970Y-80950671D01*
X142318480Y-80972850D01*
X142305868Y-80993893D01*
X142291253Y-81013599D01*
X142274777Y-81031777D01*
X142256599Y-81048253D01*
X142236893Y-81062868D01*
X142215850Y-81075480D01*
X142193671Y-81085970D01*
X142170572Y-81094235D01*
X142146773Y-81100196D01*
X142122505Y-81103796D01*
X142098001Y-81105000D01*
X140857999Y-81105000D01*
X140833495Y-81103796D01*
X140809227Y-81100196D01*
X140785428Y-81094235D01*
X140762329Y-81085970D01*
X140740150Y-81075480D01*
X140719107Y-81062868D01*
X140699401Y-81048253D01*
X140681223Y-81031777D01*
X140664747Y-81013599D01*
X140650132Y-80993893D01*
X140637520Y-80972850D01*
X140627030Y-80950671D01*
X140618765Y-80927572D01*
X140612804Y-80903773D01*
X140609204Y-80879505D01*
X140608000Y-80855001D01*
X140608000Y-79164999D01*
X140609204Y-79140495D01*
X140612804Y-79116227D01*
X140618765Y-79092428D01*
X140627030Y-79069329D01*
X140637520Y-79047150D01*
X140650132Y-79026107D01*
X140664747Y-79006401D01*
X140681223Y-78988223D01*
X140699401Y-78971747D01*
X140719107Y-78957132D01*
X140740150Y-78944520D01*
X140762329Y-78934030D01*
X140785428Y-78925765D01*
X140809227Y-78919804D01*
X140833495Y-78916204D01*
X140857999Y-78915000D01*
X142098001Y-78915000D01*
X142122505Y-78916204D01*
G37*
G04 #@! TD.AperFunction*
D21*
X131073000Y-88011000D03*
X135373000Y-88011000D03*
G04 #@! TA.AperFunction,SMDPad,CuDef*
D12*
G36*
X136624504Y-82519204D02*
G01*
X136648773Y-82522804D01*
X136672571Y-82528765D01*
X136695671Y-82537030D01*
X136717849Y-82547520D01*
X136738893Y-82560133D01*
X136758598Y-82574747D01*
X136776777Y-82591223D01*
X136793253Y-82609402D01*
X136807867Y-82629107D01*
X136820480Y-82650151D01*
X136830970Y-82672329D01*
X136839235Y-82695429D01*
X136845196Y-82719227D01*
X136848796Y-82743496D01*
X136850000Y-82768000D01*
X136850000Y-84618000D01*
X136848796Y-84642504D01*
X136845196Y-84666773D01*
X136839235Y-84690571D01*
X136830970Y-84713671D01*
X136820480Y-84735849D01*
X136807867Y-84756893D01*
X136793253Y-84776598D01*
X136776777Y-84794777D01*
X136758598Y-84811253D01*
X136738893Y-84825867D01*
X136717849Y-84838480D01*
X136695671Y-84848970D01*
X136672571Y-84857235D01*
X136648773Y-84863196D01*
X136624504Y-84866796D01*
X136600000Y-84868000D01*
X135025000Y-84868000D01*
X135000496Y-84866796D01*
X134976227Y-84863196D01*
X134952429Y-84857235D01*
X134929329Y-84848970D01*
X134907151Y-84838480D01*
X134886107Y-84825867D01*
X134866402Y-84811253D01*
X134848223Y-84794777D01*
X134831747Y-84776598D01*
X134817133Y-84756893D01*
X134804520Y-84735849D01*
X134794030Y-84713671D01*
X134785765Y-84690571D01*
X134779804Y-84666773D01*
X134776204Y-84642504D01*
X134775000Y-84618000D01*
X134775000Y-82768000D01*
X134776204Y-82743496D01*
X134779804Y-82719227D01*
X134785765Y-82695429D01*
X134794030Y-82672329D01*
X134804520Y-82650151D01*
X134817133Y-82629107D01*
X134831747Y-82609402D01*
X134848223Y-82591223D01*
X134866402Y-82574747D01*
X134886107Y-82560133D01*
X134907151Y-82547520D01*
X134929329Y-82537030D01*
X134952429Y-82528765D01*
X134976227Y-82522804D01*
X135000496Y-82519204D01*
X135025000Y-82518000D01*
X136600000Y-82518000D01*
X136624504Y-82519204D01*
G37*
G04 #@! TD.AperFunction*
G04 #@! TA.AperFunction,SMDPad,CuDef*
G36*
X131699504Y-82519204D02*
G01*
X131723773Y-82522804D01*
X131747571Y-82528765D01*
X131770671Y-82537030D01*
X131792849Y-82547520D01*
X131813893Y-82560133D01*
X131833598Y-82574747D01*
X131851777Y-82591223D01*
X131868253Y-82609402D01*
X131882867Y-82629107D01*
X131895480Y-82650151D01*
X131905970Y-82672329D01*
X131914235Y-82695429D01*
X131920196Y-82719227D01*
X131923796Y-82743496D01*
X131925000Y-82768000D01*
X131925000Y-84618000D01*
X131923796Y-84642504D01*
X131920196Y-84666773D01*
X131914235Y-84690571D01*
X131905970Y-84713671D01*
X131895480Y-84735849D01*
X131882867Y-84756893D01*
X131868253Y-84776598D01*
X131851777Y-84794777D01*
X131833598Y-84811253D01*
X131813893Y-84825867D01*
X131792849Y-84838480D01*
X131770671Y-84848970D01*
X131747571Y-84857235D01*
X131723773Y-84863196D01*
X131699504Y-84866796D01*
X131675000Y-84868000D01*
X130100000Y-84868000D01*
X130075496Y-84866796D01*
X130051227Y-84863196D01*
X130027429Y-84857235D01*
X130004329Y-84848970D01*
X129982151Y-84838480D01*
X129961107Y-84825867D01*
X129941402Y-84811253D01*
X129923223Y-84794777D01*
X129906747Y-84776598D01*
X129892133Y-84756893D01*
X129879520Y-84735849D01*
X129869030Y-84713671D01*
X129860765Y-84690571D01*
X129854804Y-84666773D01*
X129851204Y-84642504D01*
X129850000Y-84618000D01*
X129850000Y-82768000D01*
X129851204Y-82743496D01*
X129854804Y-82719227D01*
X129860765Y-82695429D01*
X129869030Y-82672329D01*
X129879520Y-82650151D01*
X129892133Y-82629107D01*
X129906747Y-82609402D01*
X129923223Y-82591223D01*
X129941402Y-82574747D01*
X129961107Y-82560133D01*
X129982151Y-82547520D01*
X130004329Y-82537030D01*
X130027429Y-82528765D01*
X130051227Y-82522804D01*
X130075496Y-82519204D01*
X130100000Y-82518000D01*
X131675000Y-82518000D01*
X131699504Y-82519204D01*
G37*
G04 #@! TD.AperFunction*
D11*
X109982000Y-72771000D03*
G04 #@! TA.AperFunction,ComponentPad*
D12*
G36*
X108086505Y-71677204D02*
G01*
X108110773Y-71680804D01*
X108134572Y-71686765D01*
X108157671Y-71695030D01*
X108179850Y-71705520D01*
X108200893Y-71718132D01*
X108220599Y-71732747D01*
X108238777Y-71749223D01*
X108255253Y-71767401D01*
X108269868Y-71787107D01*
X108282480Y-71808150D01*
X108292970Y-71830329D01*
X108301235Y-71853428D01*
X108307196Y-71877227D01*
X108310796Y-71901495D01*
X108312000Y-71925999D01*
X108312000Y-73616001D01*
X108310796Y-73640505D01*
X108307196Y-73664773D01*
X108301235Y-73688572D01*
X108292970Y-73711671D01*
X108282480Y-73733850D01*
X108269868Y-73754893D01*
X108255253Y-73774599D01*
X108238777Y-73792777D01*
X108220599Y-73809253D01*
X108200893Y-73823868D01*
X108179850Y-73836480D01*
X108157671Y-73846970D01*
X108134572Y-73855235D01*
X108110773Y-73861196D01*
X108086505Y-73864796D01*
X108062001Y-73866000D01*
X106821999Y-73866000D01*
X106797495Y-73864796D01*
X106773227Y-73861196D01*
X106749428Y-73855235D01*
X106726329Y-73846970D01*
X106704150Y-73836480D01*
X106683107Y-73823868D01*
X106663401Y-73809253D01*
X106645223Y-73792777D01*
X106628747Y-73774599D01*
X106614132Y-73754893D01*
X106601520Y-73733850D01*
X106591030Y-73711671D01*
X106582765Y-73688572D01*
X106576804Y-73664773D01*
X106573204Y-73640505D01*
X106572000Y-73616001D01*
X106572000Y-71925999D01*
X106573204Y-71901495D01*
X106576804Y-71877227D01*
X106582765Y-71853428D01*
X106591030Y-71830329D01*
X106601520Y-71808150D01*
X106614132Y-71787107D01*
X106628747Y-71767401D01*
X106645223Y-71749223D01*
X106663401Y-71732747D01*
X106683107Y-71718132D01*
X106704150Y-71705520D01*
X106726329Y-71695030D01*
X106749428Y-71686765D01*
X106773227Y-71680804D01*
X106797495Y-71677204D01*
X106821999Y-71676000D01*
X108062001Y-71676000D01*
X108086505Y-71677204D01*
G37*
G04 #@! TD.AperFunction*
D22*
X147052000Y-98831000D03*
X151652000Y-98831000D03*
X149352000Y-98831000D03*
D23*
X149352000Y-105131000D03*
D22*
X154982000Y-77211000D03*
X150382000Y-77211000D03*
X152682000Y-77211000D03*
D23*
X152682000Y-70911000D03*
D11*
X146662800Y-73006500D03*
X144122800Y-73006500D03*
X141582800Y-73006500D03*
G04 #@! TA.AperFunction,ComponentPad*
D12*
G36*
X139687305Y-71912704D02*
G01*
X139711573Y-71916304D01*
X139735372Y-71922265D01*
X139758471Y-71930530D01*
X139780650Y-71941020D01*
X139801693Y-71953632D01*
X139821399Y-71968247D01*
X139839577Y-71984723D01*
X139856053Y-72002901D01*
X139870668Y-72022607D01*
X139883280Y-72043650D01*
X139893770Y-72065829D01*
X139902035Y-72088928D01*
X139907996Y-72112727D01*
X139911596Y-72136995D01*
X139912800Y-72161499D01*
X139912800Y-73851501D01*
X139911596Y-73876005D01*
X139907996Y-73900273D01*
X139902035Y-73924072D01*
X139893770Y-73947171D01*
X139883280Y-73969350D01*
X139870668Y-73990393D01*
X139856053Y-74010099D01*
X139839577Y-74028277D01*
X139821399Y-74044753D01*
X139801693Y-74059368D01*
X139780650Y-74071980D01*
X139758471Y-74082470D01*
X139735372Y-74090735D01*
X139711573Y-74096696D01*
X139687305Y-74100296D01*
X139662801Y-74101500D01*
X138422799Y-74101500D01*
X138398295Y-74100296D01*
X138374027Y-74096696D01*
X138350228Y-74090735D01*
X138327129Y-74082470D01*
X138304950Y-74071980D01*
X138283907Y-74059368D01*
X138264201Y-74044753D01*
X138246023Y-74028277D01*
X138229547Y-74010099D01*
X138214932Y-73990393D01*
X138202320Y-73969350D01*
X138191830Y-73947171D01*
X138183565Y-73924072D01*
X138177604Y-73900273D01*
X138174004Y-73876005D01*
X138172800Y-73851501D01*
X138172800Y-72161499D01*
X138174004Y-72136995D01*
X138177604Y-72112727D01*
X138183565Y-72088928D01*
X138191830Y-72065829D01*
X138202320Y-72043650D01*
X138214932Y-72022607D01*
X138229547Y-72002901D01*
X138246023Y-71984723D01*
X138264201Y-71968247D01*
X138283907Y-71953632D01*
X138304950Y-71941020D01*
X138327129Y-71930530D01*
X138350228Y-71922265D01*
X138374027Y-71916304D01*
X138398295Y-71912704D01*
X138422799Y-71911500D01*
X139662801Y-71911500D01*
X139687305Y-71912704D01*
G37*
G04 #@! TD.AperFunction*
D24*
X146467000Y-85431000D03*
X141417000Y-85431000D03*
X146467000Y-87971000D03*
X141417000Y-87971000D03*
X146467000Y-90511000D03*
X141417000Y-90511000D03*
D25*
X128524000Y-92929010D03*
X130447000Y-79121000D03*
D26*
X122809000Y-105537000D03*
X120321000Y-76085500D03*
X121242700Y-99221500D03*
X124248300Y-103294300D03*
X122588900Y-100745500D03*
X124248300Y-98184300D03*
X117348300Y-96294300D03*
D25*
X116412000Y-76091000D03*
D26*
X124248300Y-101033300D03*
X124248300Y-99610900D03*
X124248300Y-102201700D03*
X121242742Y-98078542D03*
X126619000Y-105791000D03*
X116950100Y-105368300D03*
D25*
X152527000Y-81407000D03*
X116372000Y-77461000D03*
X117221000Y-70231000D03*
X115682000Y-70231000D03*
X103759000Y-76581000D03*
X127582000Y-82851000D03*
X137972800Y-82372200D03*
X107823000Y-81788000D03*
X105537000Y-81788000D03*
X162814000Y-86106000D03*
X149606000Y-81407000D03*
X145288000Y-82169000D03*
X153482000Y-85851000D03*
X159893000Y-99441000D03*
X159880300Y-101765100D03*
X155956000Y-99568000D03*
X155829000Y-101739700D03*
X136779000Y-81534000D03*
X136779000Y-71882000D03*
X136779000Y-74803000D03*
X136779000Y-73279000D03*
X126238000Y-70739000D03*
X116713000Y-73533000D03*
X112014000Y-79756000D03*
X112014000Y-81788000D03*
X126365000Y-82804000D03*
D26*
X121168300Y-104944300D03*
D25*
X131064000Y-107442000D03*
X125476000Y-109601000D03*
X143383000Y-107569000D03*
X148717000Y-107569000D03*
X145923000Y-107569000D03*
X153416000Y-108331000D03*
X158750000Y-108204000D03*
X151892000Y-92710000D03*
X115316000Y-107696000D03*
X115316000Y-109855000D03*
X115316000Y-114427000D03*
X119634000Y-114427000D03*
X123444000Y-114427000D03*
X126746000Y-114427000D03*
X167132000Y-100711000D03*
X121793000Y-89535000D03*
X167132000Y-82423000D03*
X167132000Y-76327000D03*
X167132000Y-71120000D03*
X143129000Y-70358000D03*
X107442000Y-70231000D03*
X111760000Y-70231000D03*
X102997000Y-84328000D03*
X102997000Y-86741000D03*
X102997000Y-90297000D03*
X102997000Y-93599000D03*
X102997000Y-97028000D03*
X110617000Y-100203000D03*
X104267000Y-104013000D03*
D26*
X142113000Y-97917000D03*
X142113000Y-101219000D03*
X142113000Y-99441000D03*
X136017000Y-98679000D03*
X134747000Y-98679000D03*
X131699000Y-98679000D03*
X133223000Y-98679000D03*
X131699000Y-100711000D03*
X137922000Y-91694000D03*
X136525000Y-91694000D03*
X121793000Y-94869000D03*
D25*
X109220000Y-111760000D03*
X129667000Y-114427000D03*
X132715000Y-114427000D03*
X136144000Y-114427000D03*
X143383000Y-114427000D03*
X146431000Y-114427000D03*
X149225000Y-114427000D03*
X152654000Y-114427000D03*
X156210000Y-114427000D03*
X159766000Y-114300000D03*
X163830000Y-114427000D03*
X167132000Y-114427000D03*
X170434000Y-114427000D03*
X113792000Y-70231000D03*
X109474000Y-70231000D03*
X105156000Y-70231000D03*
X100838000Y-76581000D03*
X105029000Y-72263000D03*
X105029000Y-73914000D03*
X105537000Y-75565000D03*
X128270000Y-76835000D03*
X127254000Y-78740000D03*
X126238000Y-74930000D03*
X113665000Y-89027000D03*
X138938000Y-83312000D03*
X128524000Y-107442000D03*
X135382000Y-107442000D03*
X133096000Y-107442000D03*
X149606000Y-102870000D03*
X157353000Y-70104000D03*
X152400000Y-89408000D03*
X161417000Y-89535000D03*
X152527000Y-91122500D03*
X159004000Y-91567000D03*
X156718000Y-93726000D03*
X154051000Y-95631000D03*
X169672000Y-88392000D03*
X166624000Y-91694000D03*
X164211000Y-93980000D03*
X157099000Y-75565000D03*
X162306000Y-75565000D03*
X159893000Y-75565000D03*
X161544000Y-81407000D03*
X155829000Y-81407000D03*
X158750000Y-81407000D03*
X143002000Y-82169000D03*
X125095000Y-89535000D03*
X118618000Y-89535000D03*
X108585000Y-91059000D03*
X108585000Y-88265000D03*
X112522000Y-94107000D03*
X108204000Y-96774000D03*
X112522000Y-96774000D03*
X108204000Y-100203000D03*
X108204000Y-94107000D03*
X106934000Y-104013000D03*
X106807000Y-109982000D03*
X168275000Y-107315000D03*
X166878000Y-107315000D03*
X172974000Y-105156000D03*
X168148000Y-111633000D03*
X172974000Y-102235000D03*
X172974000Y-99060000D03*
X172974000Y-95504000D03*
X169672000Y-92710000D03*
X169672000Y-90424000D03*
X167132000Y-73787000D03*
X167132000Y-78867000D03*
X170942000Y-81661000D03*
X173228000Y-85471000D03*
X109220000Y-75565000D03*
X107442000Y-75565000D03*
X102997000Y-81788000D03*
X128270000Y-70739000D03*
X149479000Y-74803000D03*
X153162000Y-74803000D03*
X149352000Y-96647000D03*
X157480000Y-106299000D03*
X145542000Y-92202000D03*
X147066000Y-94742000D03*
X125857000Y-96393000D03*
X169164000Y-101981000D03*
X169164000Y-99695000D03*
X145288000Y-74930000D03*
X138938000Y-75184000D03*
X112268000Y-75565000D03*
X112522000Y-78105000D03*
X126238000Y-76835000D03*
D26*
X133223000Y-100711000D03*
X134747000Y-100711000D03*
D25*
X163195000Y-107569000D03*
X167259000Y-104648000D03*
X109347000Y-98806000D03*
D26*
X113284000Y-100203000D03*
D25*
X113284000Y-110744000D03*
X151311174Y-109800826D03*
X147447000Y-100838000D03*
X119598300Y-99253500D03*
X123329300Y-106760300D03*
X133462000Y-84681000D03*
X158242000Y-72517000D03*
D26*
X111506000Y-88138000D03*
X117221000Y-94742000D03*
X119608250Y-96418750D03*
D25*
X117221000Y-94742000D03*
X143459500Y-84683500D03*
D26*
X141097000Y-94361000D03*
X169037000Y-83820000D03*
X112395000Y-99441000D03*
D25*
X112395000Y-112141000D03*
D26*
X138557000Y-94361000D03*
X137287000Y-94361000D03*
X136017000Y-94361000D03*
X122809000Y-94996000D03*
D25*
X108839000Y-79121000D03*
X123952000Y-85217000D03*
D26*
X127254000Y-92710000D03*
X130175000Y-101854000D03*
X142367000Y-94361000D03*
X143891000Y-103378000D03*
X150592000Y-86441000D03*
D25*
X150558500Y-90551000D03*
X144145000Y-96520000D03*
D26*
X105918000Y-100457000D03*
D25*
X124582000Y-82211000D03*
D26*
X162433000Y-79375000D03*
X145415000Y-98806000D03*
D25*
X132207000Y-74676000D03*
X132207000Y-73406000D03*
X132207000Y-72136000D03*
X132207000Y-70866000D03*
X133477000Y-70866000D03*
X133477000Y-72136000D03*
X133477000Y-73406000D03*
X133477000Y-74676000D03*
X134747000Y-74676000D03*
X134747000Y-73406000D03*
X134747000Y-72136000D03*
X134747000Y-70866000D03*
X134591800Y-81251800D03*
D26*
X139827000Y-94361000D03*
X114681000Y-91440000D03*
X129921000Y-91440000D03*
X129540000Y-92075000D03*
X115443000Y-92075000D03*
X119578300Y-104924300D03*
X118808300Y-104924300D03*
D25*
X129159000Y-81661000D03*
X129413000Y-89916000D03*
D26*
X132982000Y-91961000D03*
X132982000Y-93612000D03*
X136471800Y-79097500D03*
X164592000Y-75692000D03*
X163576000Y-73914000D03*
D27*
X128143000Y-84843798D02*
X128143000Y-91948000D01*
X124333000Y-80135328D02*
X123727999Y-80740329D01*
X127456201Y-84156999D02*
X128143000Y-84843798D01*
X124333000Y-72136000D02*
X124333000Y-80135328D01*
X123727999Y-83355199D02*
X124529799Y-84156999D01*
X123727999Y-80740329D02*
X123727999Y-83355199D01*
X124529799Y-84156999D02*
X127456201Y-84156999D01*
X128124001Y-91966999D02*
X128143000Y-91948000D01*
X128124001Y-92529011D02*
X128124001Y-91966999D01*
X128524000Y-92929010D02*
X128124001Y-92529011D01*
D28*
X121998300Y-95074300D02*
X121793000Y-94869000D01*
X121998300Y-96419300D02*
X121998300Y-95074300D01*
D29*
X122798300Y-104919300D02*
X122798300Y-103007700D01*
X122798300Y-103007700D02*
X121274300Y-103007700D01*
X121198300Y-103083700D02*
X121198300Y-104919300D01*
X121274300Y-103007700D02*
X121198300Y-103083700D01*
X121998300Y-96419300D02*
X121998300Y-97965700D01*
X121885458Y-98078542D02*
X121242742Y-98078542D01*
X121998300Y-97965700D02*
X121885458Y-98078542D01*
X113350300Y-100269300D02*
X113284000Y-100203000D01*
X117348300Y-100269300D02*
X113350300Y-100269300D01*
D28*
X136398000Y-110490000D02*
X150622000Y-110490000D01*
X113284000Y-110744000D02*
X114011001Y-111471001D01*
X150622000Y-110490000D02*
X151311174Y-109800826D01*
X135416999Y-111471001D02*
X136398000Y-110490000D01*
X114011001Y-111471001D02*
X135416999Y-111471001D01*
D29*
X125848300Y-102669300D02*
X145548702Y-102669300D01*
D28*
X145548702Y-102669300D02*
X146885700Y-102669300D01*
X147447000Y-102108000D02*
X147447000Y-100711000D01*
X146885700Y-102669300D02*
X147447000Y-102108000D01*
D30*
X120398300Y-103712798D02*
X120398300Y-104919300D01*
X119598300Y-102912798D02*
X120398300Y-103712798D01*
X121998300Y-106125802D02*
X121998300Y-104919300D01*
X121887301Y-106236801D02*
X121998300Y-106125802D01*
X120398300Y-106125802D02*
X120509299Y-106236801D01*
X120509299Y-106236801D02*
X121887301Y-106236801D01*
X120398300Y-104919300D02*
X120398300Y-106125802D01*
X119598300Y-99253500D02*
X119598300Y-102912798D01*
D28*
X122010801Y-106360301D02*
X121887301Y-106236801D01*
X122929301Y-106360301D02*
X122010801Y-106360301D01*
X123329300Y-106760300D02*
X122929301Y-106360301D01*
D27*
X133644000Y-88091000D02*
X135402000Y-88091000D01*
X133462000Y-87909000D02*
X133644000Y-88091000D01*
X133462000Y-84681000D02*
X133462000Y-87909000D01*
D28*
X135402000Y-88091000D02*
X135302000Y-88091000D01*
X133462000Y-84115315D02*
X133462000Y-84681000D01*
X133462000Y-83457562D02*
X133462000Y-84115315D01*
X117221000Y-94742000D02*
X117221000Y-94742000D01*
D27*
X117221000Y-94742000D02*
X117021001Y-94542001D01*
X139711000Y-85431000D02*
X141417000Y-85431000D01*
X137131000Y-88011000D02*
X139711000Y-85431000D01*
X135373000Y-88011000D02*
X137131000Y-88011000D01*
X142164500Y-84683500D02*
X141417000Y-85431000D01*
X143459500Y-84683500D02*
X143459500Y-84683500D01*
X143459500Y-84683500D02*
X142164500Y-84683500D01*
D28*
X147911490Y-71584490D02*
X149860000Y-73533000D01*
X143626983Y-71584490D02*
X147911490Y-71584490D01*
X140239810Y-76549190D02*
X140081000Y-76708000D01*
X140632510Y-71584490D02*
X140239810Y-71977190D01*
X143626983Y-71584490D02*
X140632510Y-71584490D01*
X140239810Y-71977190D02*
X140239810Y-76549190D01*
X140081000Y-76708000D02*
X133462000Y-83457562D01*
D29*
X157099000Y-73533000D02*
X157226000Y-73533000D01*
X157226000Y-73533000D02*
X158242000Y-72517000D01*
X149860000Y-73533000D02*
X157099000Y-73533000D01*
D27*
X111506000Y-88420842D02*
X111506000Y-88138000D01*
X111506000Y-89782922D02*
X111506000Y-88420842D01*
X112239079Y-90516001D02*
X111506000Y-89782922D01*
X115789001Y-90516001D02*
X112239079Y-90516001D01*
X117021001Y-91748001D02*
X115789001Y-90516001D01*
X117021001Y-94542001D02*
X117021001Y-91748001D01*
D29*
X119598300Y-98687815D02*
X119598300Y-96419300D01*
X119598300Y-99253500D02*
X119598300Y-98687815D01*
D28*
X139065000Y-96393000D02*
X141097000Y-94361000D01*
X129978600Y-96393000D02*
X139065000Y-96393000D01*
X125848300Y-99469300D02*
X126902300Y-99469300D01*
X126902300Y-99469300D02*
X129978600Y-96393000D01*
D29*
X168021000Y-94742000D02*
X168021000Y-94742000D01*
X168021000Y-84836000D02*
X168021000Y-94742000D01*
X169037000Y-83820000D02*
X168021000Y-84836000D01*
X113312300Y-99469300D02*
X113284000Y-99441000D01*
X113284000Y-99441000D02*
X112395000Y-99441000D01*
X117348300Y-99469300D02*
X113312300Y-99469300D01*
D28*
X136779000Y-111125000D02*
X135763000Y-112141000D01*
X170307000Y-94742000D02*
X171484999Y-95919999D01*
X171484999Y-95919999D02*
X171484999Y-106010001D01*
X166370000Y-111125000D02*
X136779000Y-111125000D01*
X168021000Y-94742000D02*
X170307000Y-94742000D01*
X135763000Y-112141000D02*
X112395000Y-112141000D01*
X171484999Y-106010001D02*
X166370000Y-111125000D01*
X138357001Y-94560999D02*
X138557000Y-94361000D01*
X137448981Y-95469019D02*
X138357001Y-94560999D01*
X129447981Y-95469019D02*
X137448981Y-95469019D01*
X125848300Y-97869300D02*
X127047700Y-97869300D01*
X127047700Y-97869300D02*
X129447981Y-95469019D01*
X136632991Y-95015009D02*
X137287000Y-94361000D01*
X124567991Y-95015009D02*
X136632991Y-95015009D01*
X124398300Y-96419300D02*
X124398300Y-95184700D01*
X124398300Y-95184700D02*
X124567991Y-95015009D01*
X135817001Y-94560999D02*
X136017000Y-94361000D01*
X123752001Y-94560999D02*
X135817001Y-94560999D01*
X123598300Y-96419300D02*
X123598300Y-94714700D01*
X123598300Y-94714700D02*
X123752001Y-94560999D01*
X122798300Y-96419300D02*
X122798300Y-95006700D01*
X122798300Y-95006700D02*
X122809000Y-94996000D01*
D31*
X126012560Y-85262060D02*
X125971000Y-85220500D01*
D28*
X123958000Y-85211000D02*
X123952000Y-85217000D01*
X125993000Y-85211000D02*
X123958000Y-85211000D01*
D27*
X109982000Y-81026000D02*
X108839000Y-79883000D01*
X109982000Y-83248500D02*
X109982000Y-81026000D01*
X110045500Y-83312000D02*
X109982000Y-83248500D01*
X114681000Y-83312000D02*
X110045500Y-83312000D01*
X125971000Y-85220500D02*
X125971000Y-85992000D01*
X125971000Y-85992000D02*
X125668499Y-86294501D01*
X116107799Y-86294501D02*
X115443000Y-85629702D01*
X108839000Y-79883000D02*
X108839000Y-79121000D01*
X125668499Y-86294501D02*
X116107799Y-86294501D01*
X115443000Y-84074000D02*
X114681000Y-83312000D01*
X115443000Y-85629702D02*
X115443000Y-84074000D01*
D28*
X127254000Y-87326000D02*
X127254000Y-92710000D01*
X125993000Y-85211000D02*
X125993000Y-86065000D01*
X125993000Y-86065000D02*
X127254000Y-87326000D01*
X125848300Y-101869300D02*
X126902300Y-101869300D01*
X126917600Y-101854000D02*
X130175000Y-101854000D01*
X126902300Y-101869300D02*
X126917600Y-101854000D01*
X139880990Y-96847010D02*
X142367000Y-94361000D01*
X125848300Y-100269300D02*
X126902300Y-100269300D01*
X130324590Y-96847010D02*
X139880990Y-96847010D01*
X126902300Y-100269300D02*
X130324590Y-96847010D01*
D29*
X125848300Y-103469300D02*
X143799700Y-103469300D01*
X143799700Y-103469300D02*
X143891000Y-103378000D01*
X143891000Y-103378000D02*
X143891000Y-103378000D01*
D31*
X141362000Y-80391000D02*
X141624962Y-80391000D01*
D28*
X141478000Y-78915000D02*
X141478000Y-80010000D01*
X141854999Y-78538001D02*
X141478000Y-78915000D01*
X152608999Y-78538001D02*
X141854999Y-78538001D01*
X152682000Y-78465000D02*
X152608999Y-78538001D01*
X152682000Y-77211000D02*
X152682000Y-78465000D01*
X150592000Y-86723842D02*
X150592000Y-86441000D01*
X150592000Y-88215000D02*
X150592000Y-86723842D01*
X146467000Y-90511000D02*
X146467000Y-90511000D01*
X146467000Y-90511000D02*
X148296000Y-90511000D01*
X150592000Y-89438000D02*
X150592000Y-88215000D01*
X143383000Y-96520000D02*
X144145000Y-96520000D01*
X143002000Y-96520000D02*
X143383000Y-96520000D01*
X141224000Y-96520000D02*
X143383000Y-96520000D01*
X140442980Y-97301020D02*
X141224000Y-96520000D01*
X130512647Y-97301020D02*
X140442980Y-97301020D01*
X148296000Y-90511000D02*
X150535000Y-90511000D01*
X150535000Y-90511000D02*
X150558500Y-90487500D01*
X150592000Y-89438000D02*
X150558500Y-90487500D01*
D29*
X127381000Y-100586600D02*
X127381000Y-100584000D01*
X126898300Y-101069300D02*
X127381000Y-100586600D01*
X125848300Y-101069300D02*
X126898300Y-101069300D01*
D28*
X127381000Y-100584000D02*
X130512647Y-97301020D01*
X117348300Y-101869300D02*
X106695300Y-101869300D01*
X106695300Y-101869300D02*
X105918000Y-101092000D01*
X105918000Y-101092000D02*
X105918000Y-100457000D01*
X105918000Y-100457000D02*
X105918000Y-100457000D01*
X125971000Y-80660500D02*
X126246375Y-80385125D01*
X126246375Y-80385125D02*
X126642606Y-80385125D01*
X124582000Y-80708000D02*
X124582000Y-81645315D01*
X124582000Y-81645315D02*
X124582000Y-82211000D01*
X124639000Y-80651000D02*
X124582000Y-80708000D01*
X125993000Y-80651000D02*
X124639000Y-80651000D01*
D29*
X154982000Y-77211000D02*
X162428000Y-77211000D01*
X162433000Y-77216000D02*
X162433000Y-79375000D01*
X162428000Y-77211000D02*
X162433000Y-77216000D01*
X146052000Y-98831000D02*
X146027000Y-98806000D01*
X147052000Y-98831000D02*
X146052000Y-98831000D01*
X146027000Y-98806000D02*
X145415000Y-98806000D01*
X145415000Y-98806000D02*
X145415000Y-98806000D01*
D30*
X119231000Y-82500500D02*
X119671000Y-82940500D01*
X119231000Y-72145500D02*
X119231000Y-82500500D01*
D29*
X149352000Y-105131000D02*
X140652100Y-105131000D01*
X140652100Y-105131000D02*
X138049000Y-107734100D01*
D27*
X132432800Y-81251800D02*
X134591800Y-81251800D01*
X132432800Y-79106500D02*
X132432800Y-81251800D01*
X134591800Y-81251800D02*
X134591800Y-81251800D01*
X130797000Y-87786000D02*
X131102000Y-88091000D01*
X130797000Y-83731000D02*
X130797000Y-87786000D01*
D31*
X132461000Y-79130000D02*
X132461000Y-72830000D01*
X132461000Y-82119500D02*
X130887500Y-83693000D01*
X133997915Y-81280000D02*
X132461000Y-81280000D01*
X134026115Y-81251800D02*
X133997915Y-81280000D01*
X134591800Y-81251800D02*
X134026115Y-81251800D01*
X132461000Y-79130000D02*
X132461000Y-81280000D01*
X132461000Y-81280000D02*
X132461000Y-82119500D01*
D28*
X129755971Y-95923029D02*
X138264971Y-95923029D01*
X125848300Y-98669300D02*
X127009700Y-98669300D01*
X138264971Y-95923029D02*
X139827000Y-94361000D01*
X127009700Y-98669300D02*
X129755971Y-95923029D01*
D29*
X116298300Y-98669300D02*
X114681000Y-97052000D01*
X117348300Y-98669300D02*
X116298300Y-98669300D01*
X114681000Y-97052000D02*
X114681000Y-93726000D01*
X114681000Y-91821000D02*
X114681000Y-91567000D01*
X114681000Y-93726000D02*
X114681000Y-91821000D01*
X136652000Y-89662000D02*
X131191000Y-89662000D01*
X141417000Y-87971000D02*
X138343000Y-87971000D01*
X138343000Y-87971000D02*
X136652000Y-89662000D01*
D28*
X131191000Y-89662000D02*
X131064000Y-89789000D01*
X131064000Y-89789000D02*
X131064000Y-90805000D01*
X131064000Y-90805000D02*
X131064000Y-91313000D01*
X131064000Y-91313000D02*
X130937000Y-91440000D01*
X130937000Y-91440000D02*
X129921000Y-91440000D01*
D29*
X146467000Y-87971000D02*
X146346998Y-87971000D01*
X146346998Y-87971000D02*
X144781499Y-89536499D01*
D28*
X129286011Y-94106989D02*
X129286000Y-94106989D01*
X129286011Y-94106989D02*
X118999011Y-94106989D01*
X118798300Y-94307700D02*
X118798300Y-96419300D01*
X118999011Y-94106989D02*
X118798300Y-94307700D01*
X139727899Y-89536499D02*
X144781499Y-89536499D01*
X138586398Y-90678000D02*
X139727899Y-89536499D01*
X131953011Y-94106989D02*
X132080000Y-93980000D01*
X129286011Y-94106989D02*
X131953011Y-94106989D01*
X132080000Y-93980000D02*
X132080000Y-90932000D01*
X132080000Y-90932000D02*
X132334000Y-90678000D01*
X132334000Y-90678000D02*
X138586398Y-90678000D01*
D29*
X116298300Y-97869300D02*
X115443000Y-97014000D01*
X117348300Y-97869300D02*
X116298300Y-97869300D01*
X115443000Y-97014000D02*
X115443000Y-93599000D01*
X143275002Y-88773000D02*
X143252001Y-88796001D01*
X146467000Y-85431000D02*
X144642000Y-85431000D01*
X144642000Y-85431000D02*
X143821991Y-86251009D01*
D28*
X143252001Y-88796001D02*
X143359999Y-88796001D01*
X143821991Y-88334009D02*
X143821991Y-86251009D01*
X143359999Y-88796001D02*
X143821991Y-88334009D01*
D29*
X143252001Y-88796001D02*
X138279999Y-88796001D01*
X136906000Y-90170000D02*
X132114002Y-90170000D01*
X138279999Y-88796001D02*
X136906000Y-90170000D01*
D28*
X131699000Y-90170000D02*
X131572000Y-90297000D01*
X132114002Y-90170000D02*
X131699000Y-90170000D01*
X131572000Y-90297000D02*
X131572000Y-91440000D01*
X131572000Y-91440000D02*
X131572000Y-91821000D01*
X131318000Y-92075000D02*
X129540000Y-92075000D01*
X131572000Y-91821000D02*
X131318000Y-92075000D01*
D29*
X115443000Y-93599000D02*
X115443000Y-92075000D01*
D28*
X132982000Y-93612000D02*
X132982000Y-91961000D01*
X132982000Y-91961000D02*
X132982000Y-91961000D01*
X129159000Y-81661000D02*
X129159000Y-89662000D01*
X129159000Y-89662000D02*
X129413000Y-89916000D01*
X129413000Y-89916000D02*
X129413000Y-89916000D01*
D32*
X134721800Y-79097500D02*
X134712800Y-79106500D01*
X136471800Y-79097500D02*
X134721800Y-79097500D01*
D28*
X117348300Y-104140300D02*
X117348300Y-103469300D01*
X118110000Y-104902000D02*
X117348300Y-104140300D01*
X118110000Y-106172000D02*
X118110000Y-104902000D01*
X126385199Y-107675801D02*
X119613801Y-107675801D01*
X119613801Y-107675801D02*
X118110000Y-106172000D01*
X164592000Y-77851000D02*
X164592000Y-75692000D01*
D29*
X164592000Y-78486000D02*
X164592000Y-77851000D01*
X164592000Y-90170000D02*
X164592000Y-78486000D01*
X149606000Y-109855000D02*
X157734000Y-101727000D01*
X128564398Y-109855000D02*
X149606000Y-109855000D01*
X157734000Y-101727000D02*
X157734000Y-97028000D01*
X126385199Y-107675801D02*
X128564398Y-109855000D01*
X157734000Y-97028000D02*
X164592000Y-90170000D01*
X124923300Y-104919300D02*
X124398300Y-104919300D01*
X125338601Y-104503999D02*
X124923300Y-104919300D01*
X146014003Y-104503999D02*
X125338601Y-104503999D01*
X150576999Y-99941003D02*
X146014003Y-104503999D01*
X163775999Y-82985001D02*
X150576999Y-96184001D01*
X163576000Y-73914000D02*
X163775999Y-74113999D01*
X150576999Y-96184001D02*
X150576999Y-99941003D01*
X163775999Y-82985001D02*
X163775999Y-74113999D01*
D28*
G36*
X173211545Y-69024909D02*
G01*
X173562208Y-69130780D01*
X173885625Y-69302744D01*
X174169484Y-69534254D01*
X174402965Y-69816486D01*
X174577183Y-70138695D01*
X174685502Y-70488614D01*
X174727000Y-70883443D01*
X174727001Y-113378711D01*
X174688091Y-113775545D01*
X174582220Y-114126206D01*
X174410257Y-114449623D01*
X174178748Y-114733482D01*
X173896514Y-114966965D01*
X173574304Y-115141184D01*
X173224385Y-115249502D01*
X172829557Y-115291000D01*
X116682370Y-115291000D01*
X115084665Y-115216545D01*
X113516667Y-114994274D01*
X111976533Y-114625425D01*
X110477960Y-114113279D01*
X109034224Y-113462373D01*
X107658163Y-112678495D01*
X106361970Y-111768590D01*
X105157156Y-110740738D01*
X104054428Y-109604074D01*
X103063560Y-108368675D01*
X102193357Y-107045522D01*
X101867283Y-106430500D01*
X104700286Y-106430500D01*
X104700286Y-109350500D01*
X110691715Y-109350500D01*
X110691715Y-106430500D01*
X104700286Y-106430500D01*
X101867283Y-106430500D01*
X101451522Y-105646319D01*
X100844662Y-104183530D01*
X100378159Y-102670124D01*
X100056147Y-101119528D01*
X99990717Y-100529867D01*
X100231390Y-100529867D01*
X100231390Y-100912133D01*
X100305966Y-101287055D01*
X100452254Y-101640224D01*
X100664630Y-101958067D01*
X100934933Y-102228370D01*
X101252776Y-102440746D01*
X101605945Y-102587034D01*
X101980867Y-102661610D01*
X102363133Y-102661610D01*
X102738055Y-102587034D01*
X103091224Y-102440746D01*
X103409067Y-102228370D01*
X103679370Y-101958067D01*
X103891746Y-101640224D01*
X104038034Y-101287055D01*
X104112610Y-100912133D01*
X104112610Y-100529867D01*
X104081758Y-100374760D01*
X105083000Y-100374760D01*
X105083000Y-100539240D01*
X105115089Y-100700560D01*
X105156000Y-100799328D01*
X105156000Y-101054577D01*
X105152314Y-101092000D01*
X105156000Y-101129423D01*
X105156000Y-101129425D01*
X105167026Y-101241377D01*
X105210598Y-101385014D01*
X105237185Y-101434754D01*
X105281355Y-101517392D01*
X105317131Y-101560985D01*
X105376578Y-101633422D01*
X105405653Y-101657284D01*
X106130020Y-102381651D01*
X106153878Y-102410722D01*
X106269908Y-102505945D01*
X106402285Y-102576702D01*
X106545922Y-102620274D01*
X106657874Y-102631300D01*
X106657876Y-102631300D01*
X106695299Y-102634986D01*
X106732722Y-102631300D01*
X115910228Y-102631300D01*
X115910228Y-102944300D01*
X115922488Y-103068782D01*
X115922645Y-103069300D01*
X115922488Y-103069818D01*
X115910228Y-103194300D01*
X115910228Y-103744300D01*
X115922488Y-103868782D01*
X115958798Y-103988480D01*
X116017763Y-104098794D01*
X116097115Y-104195485D01*
X116193806Y-104274837D01*
X116304120Y-104333802D01*
X116423818Y-104370112D01*
X116548300Y-104382372D01*
X116625445Y-104382372D01*
X116640898Y-104433314D01*
X116640899Y-104433315D01*
X116711655Y-104565692D01*
X116740969Y-104601411D01*
X116806878Y-104681722D01*
X116835953Y-104705584D01*
X117348001Y-105217631D01*
X117348000Y-106134576D01*
X117344314Y-106172000D01*
X117348000Y-106209423D01*
X117348000Y-106209425D01*
X117359026Y-106321377D01*
X117402598Y-106465014D01*
X117426472Y-106509679D01*
X117473355Y-106597392D01*
X117500790Y-106630821D01*
X117568578Y-106713422D01*
X117597654Y-106737284D01*
X119048522Y-108188153D01*
X119072379Y-108217223D01*
X119101449Y-108241080D01*
X119188408Y-108312446D01*
X119248185Y-108344397D01*
X119320786Y-108383203D01*
X119464423Y-108426775D01*
X119576375Y-108437801D01*
X119576378Y-108437801D01*
X119613801Y-108441487D01*
X119651224Y-108437801D01*
X126072398Y-108437801D01*
X128000599Y-110366003D01*
X128024397Y-110395001D01*
X128140122Y-110489974D01*
X128272151Y-110560546D01*
X128415412Y-110604003D01*
X128527065Y-110615000D01*
X128527073Y-110615000D01*
X128564398Y-110618676D01*
X128601723Y-110615000D01*
X135195370Y-110615000D01*
X135101369Y-110709001D01*
X114326631Y-110709001D01*
X114319000Y-110701370D01*
X114319000Y-110642061D01*
X114279226Y-110442102D01*
X114201205Y-110253744D01*
X114087937Y-110084226D01*
X113943774Y-109940063D01*
X113774256Y-109826795D01*
X113585898Y-109748774D01*
X113385939Y-109709000D01*
X113182061Y-109709000D01*
X112982102Y-109748774D01*
X112793744Y-109826795D01*
X112624226Y-109940063D01*
X112480063Y-110084226D01*
X112366795Y-110253744D01*
X112288774Y-110442102D01*
X112249000Y-110642061D01*
X112249000Y-110845939D01*
X112288774Y-111045898D01*
X112313669Y-111106000D01*
X112293061Y-111106000D01*
X112093102Y-111145774D01*
X111904744Y-111223795D01*
X111735226Y-111337063D01*
X111591063Y-111481226D01*
X111477795Y-111650744D01*
X111399774Y-111839102D01*
X111360000Y-112039061D01*
X111360000Y-112242939D01*
X111399774Y-112442898D01*
X111477795Y-112631256D01*
X111591063Y-112800774D01*
X111735226Y-112944937D01*
X111904744Y-113058205D01*
X112093102Y-113136226D01*
X112293061Y-113176000D01*
X112496939Y-113176000D01*
X112696898Y-113136226D01*
X112885256Y-113058205D01*
X113054774Y-112944937D01*
X113096711Y-112903000D01*
X135725577Y-112903000D01*
X135763000Y-112906686D01*
X135800423Y-112903000D01*
X135800426Y-112903000D01*
X135912378Y-112891974D01*
X136056015Y-112848402D01*
X136188392Y-112777645D01*
X136304422Y-112682422D01*
X136328284Y-112653346D01*
X137094631Y-111887000D01*
X138094735Y-111887000D01*
X137960966Y-112209945D01*
X137886390Y-112584867D01*
X137886390Y-112967133D01*
X137960966Y-113342055D01*
X138107254Y-113695224D01*
X138319630Y-114013067D01*
X138589933Y-114283370D01*
X138907776Y-114495746D01*
X139260945Y-114642034D01*
X139635867Y-114716610D01*
X140018133Y-114716610D01*
X140393055Y-114642034D01*
X140746224Y-114495746D01*
X141064067Y-114283370D01*
X141334370Y-114013067D01*
X141546746Y-113695224D01*
X141693034Y-113342055D01*
X141767610Y-112967133D01*
X141767610Y-112584867D01*
X141693034Y-112209945D01*
X141559265Y-111887000D01*
X166332577Y-111887000D01*
X166370000Y-111890686D01*
X166407423Y-111887000D01*
X166407426Y-111887000D01*
X166519378Y-111875974D01*
X166663015Y-111832402D01*
X166795392Y-111761645D01*
X166911422Y-111666422D01*
X166935284Y-111637346D01*
X169162763Y-109409867D01*
X170271390Y-109409867D01*
X170271390Y-109792133D01*
X170345966Y-110167055D01*
X170492254Y-110520224D01*
X170704630Y-110838067D01*
X170974933Y-111108370D01*
X171292776Y-111320746D01*
X171645945Y-111467034D01*
X172020867Y-111541610D01*
X172403133Y-111541610D01*
X172778055Y-111467034D01*
X173131224Y-111320746D01*
X173449067Y-111108370D01*
X173719370Y-110838067D01*
X173931746Y-110520224D01*
X174078034Y-110167055D01*
X174152610Y-109792133D01*
X174152610Y-109409867D01*
X174078034Y-109034945D01*
X173931746Y-108681776D01*
X173719370Y-108363933D01*
X173449067Y-108093630D01*
X173131224Y-107881254D01*
X172778055Y-107734966D01*
X172403133Y-107660390D01*
X172020867Y-107660390D01*
X171645945Y-107734966D01*
X171292776Y-107881254D01*
X170974933Y-108093630D01*
X170704630Y-108363933D01*
X170492254Y-108681776D01*
X170345966Y-109034945D01*
X170271390Y-109409867D01*
X169162763Y-109409867D01*
X171997351Y-106575280D01*
X172026421Y-106551423D01*
X172075131Y-106492070D01*
X172121644Y-106435394D01*
X172159464Y-106364637D01*
X172192401Y-106303016D01*
X172235973Y-106159379D01*
X172246999Y-106047427D01*
X172246999Y-106047424D01*
X172250685Y-106010001D01*
X172246999Y-105972578D01*
X172246999Y-95957421D01*
X172250685Y-95919998D01*
X172246999Y-95882573D01*
X172235973Y-95770621D01*
X172192401Y-95626984D01*
X172121644Y-95494607D01*
X172026421Y-95378577D01*
X171997352Y-95354721D01*
X170872284Y-94229654D01*
X170848422Y-94200578D01*
X170732392Y-94105355D01*
X170600015Y-94034598D01*
X170456378Y-93991026D01*
X170344426Y-93980000D01*
X170344423Y-93980000D01*
X170307000Y-93976314D01*
X170269577Y-93980000D01*
X168781000Y-93980000D01*
X168781000Y-85150801D01*
X169328923Y-84602878D01*
X169432521Y-84559967D01*
X169569281Y-84468587D01*
X169685587Y-84352281D01*
X169776967Y-84215521D01*
X169839911Y-84063560D01*
X169872000Y-83902240D01*
X169872000Y-83737760D01*
X169839911Y-83576440D01*
X169776967Y-83424479D01*
X169685587Y-83287719D01*
X169569281Y-83171413D01*
X169432521Y-83080033D01*
X169280560Y-83017089D01*
X169119240Y-82985000D01*
X168954760Y-82985000D01*
X168793440Y-83017089D01*
X168641479Y-83080033D01*
X168504719Y-83171413D01*
X168388413Y-83287719D01*
X168297033Y-83424479D01*
X168254122Y-83528077D01*
X167510002Y-84272196D01*
X167480999Y-84295999D01*
X167438729Y-84347506D01*
X167386026Y-84411724D01*
X167333910Y-84509225D01*
X167315454Y-84543754D01*
X167271997Y-84687015D01*
X167261000Y-84798668D01*
X167261000Y-84798678D01*
X167257324Y-84836000D01*
X167261000Y-84873322D01*
X167261001Y-94684257D01*
X167255314Y-94742000D01*
X167270026Y-94891378D01*
X167313598Y-95035015D01*
X167384355Y-95167392D01*
X167479578Y-95283422D01*
X167595608Y-95378645D01*
X167727985Y-95449402D01*
X167871622Y-95492974D01*
X167983574Y-95504000D01*
X168003973Y-95504000D01*
X168021000Y-95505677D01*
X168038027Y-95504000D01*
X169991370Y-95504000D01*
X170722999Y-96235630D01*
X170723000Y-105694369D01*
X166054370Y-110363000D01*
X152180325Y-110363000D01*
X152228379Y-110291082D01*
X152306400Y-110102724D01*
X152346174Y-109902765D01*
X152346174Y-109698887D01*
X152306400Y-109498928D01*
X152228379Y-109310570D01*
X152115111Y-109141052D01*
X151970948Y-108996889D01*
X151801430Y-108883621D01*
X151695895Y-108839907D01*
X158245004Y-102290798D01*
X158274001Y-102267001D01*
X158368974Y-102151276D01*
X158439546Y-102019247D01*
X158483003Y-101875986D01*
X158494000Y-101764333D01*
X158494000Y-101764323D01*
X158497676Y-101727000D01*
X158494000Y-101689677D01*
X158494000Y-97342801D01*
X165103004Y-90733798D01*
X165132001Y-90710001D01*
X165226974Y-90594276D01*
X165297546Y-90462247D01*
X165341003Y-90318986D01*
X165352000Y-90207333D01*
X165352000Y-90207332D01*
X165355677Y-90170000D01*
X165352000Y-90132667D01*
X165352000Y-77908733D01*
X165354000Y-77888426D01*
X165354000Y-76034328D01*
X165394911Y-75935560D01*
X165427000Y-75774240D01*
X165427000Y-75609760D01*
X165394911Y-75448440D01*
X165331967Y-75296479D01*
X165240587Y-75159719D01*
X165124281Y-75043413D01*
X164987521Y-74952033D01*
X164835560Y-74889089D01*
X164674240Y-74857000D01*
X164535999Y-74857000D01*
X164535999Y-74151321D01*
X164539675Y-74113998D01*
X164535999Y-74076675D01*
X164535999Y-74076666D01*
X164525002Y-73965013D01*
X164490074Y-73849867D01*
X170271390Y-73849867D01*
X170271390Y-74232133D01*
X170345966Y-74607055D01*
X170492254Y-74960224D01*
X170704630Y-75278067D01*
X170974933Y-75548370D01*
X171292776Y-75760746D01*
X171645945Y-75907034D01*
X172020867Y-75981610D01*
X172403133Y-75981610D01*
X172778055Y-75907034D01*
X173131224Y-75760746D01*
X173449067Y-75548370D01*
X173719370Y-75278067D01*
X173931746Y-74960224D01*
X174078034Y-74607055D01*
X174152610Y-74232133D01*
X174152610Y-73849867D01*
X174078034Y-73474945D01*
X173931746Y-73121776D01*
X173719370Y-72803933D01*
X173449067Y-72533630D01*
X173131224Y-72321254D01*
X172778055Y-72174966D01*
X172403133Y-72100390D01*
X172020867Y-72100390D01*
X171645945Y-72174966D01*
X171292776Y-72321254D01*
X170974933Y-72533630D01*
X170704630Y-72803933D01*
X170492254Y-73121776D01*
X170345966Y-73474945D01*
X170271390Y-73849867D01*
X164490074Y-73849867D01*
X164481545Y-73821752D01*
X164410973Y-73689723D01*
X164362365Y-73630494D01*
X164315967Y-73518479D01*
X164224587Y-73381719D01*
X164108281Y-73265413D01*
X163971521Y-73174033D01*
X163819560Y-73111089D01*
X163658240Y-73079000D01*
X163493760Y-73079000D01*
X163332440Y-73111089D01*
X163180479Y-73174033D01*
X163043719Y-73265413D01*
X162927413Y-73381719D01*
X162836033Y-73518479D01*
X162773089Y-73670440D01*
X162741000Y-73831760D01*
X162741000Y-73996240D01*
X162773089Y-74157560D01*
X162836033Y-74309521D01*
X162927413Y-74446281D01*
X163016000Y-74534868D01*
X163016000Y-76728393D01*
X162973001Y-76675999D01*
X162970255Y-76673745D01*
X162968001Y-76670999D01*
X162852276Y-76576026D01*
X162720247Y-76505454D01*
X162576986Y-76461997D01*
X162465333Y-76451000D01*
X162465322Y-76451000D01*
X162428000Y-76447324D01*
X162390678Y-76451000D01*
X156370072Y-76451000D01*
X156370072Y-76211000D01*
X156357812Y-76086518D01*
X156321502Y-75966820D01*
X156262537Y-75856506D01*
X156183185Y-75759815D01*
X156086494Y-75680463D01*
X155976180Y-75621498D01*
X155856482Y-75585188D01*
X155732000Y-75572928D01*
X154232000Y-75572928D01*
X154107518Y-75585188D01*
X153987820Y-75621498D01*
X153877506Y-75680463D01*
X153832000Y-75717809D01*
X153786494Y-75680463D01*
X153676180Y-75621498D01*
X153556482Y-75585188D01*
X153432000Y-75572928D01*
X151932000Y-75572928D01*
X151807518Y-75585188D01*
X151687820Y-75621498D01*
X151577506Y-75680463D01*
X151532000Y-75717809D01*
X151486494Y-75680463D01*
X151376180Y-75621498D01*
X151256482Y-75585188D01*
X151132000Y-75572928D01*
X150667750Y-75576000D01*
X150509000Y-75734750D01*
X150509000Y-77084000D01*
X150529000Y-77084000D01*
X150529000Y-77338000D01*
X150509000Y-77338000D01*
X150509000Y-77358000D01*
X150255000Y-77358000D01*
X150255000Y-77338000D01*
X149155750Y-77338000D01*
X148997000Y-77496750D01*
X148995799Y-77776001D01*
X141892421Y-77776001D01*
X141854998Y-77772315D01*
X141817575Y-77776001D01*
X141817573Y-77776001D01*
X141705621Y-77787027D01*
X141561984Y-77830599D01*
X141429607Y-77901356D01*
X141313577Y-77996579D01*
X141289715Y-78025655D01*
X141038442Y-78276928D01*
X140857999Y-78276928D01*
X140684745Y-78293992D01*
X140518149Y-78344528D01*
X140364613Y-78426595D01*
X140230038Y-78537038D01*
X140119595Y-78671613D01*
X140037528Y-78825149D01*
X139986992Y-78991745D01*
X139969928Y-79164999D01*
X139969928Y-80855001D01*
X139986992Y-81028255D01*
X140037528Y-81194851D01*
X140119595Y-81348387D01*
X140230038Y-81482962D01*
X140364613Y-81593405D01*
X140518149Y-81675472D01*
X140684745Y-81726008D01*
X140857999Y-81743072D01*
X142098001Y-81743072D01*
X142271255Y-81726008D01*
X142437851Y-81675472D01*
X142591387Y-81593405D01*
X142725962Y-81482962D01*
X142836405Y-81348387D01*
X142894934Y-81238886D01*
X142948655Y-81304345D01*
X143177822Y-81492417D01*
X143439276Y-81632166D01*
X143722969Y-81718224D01*
X144018000Y-81747282D01*
X144313032Y-81718224D01*
X144596725Y-81632166D01*
X144858179Y-81492417D01*
X145087345Y-81304345D01*
X145275417Y-81075179D01*
X145288000Y-81051638D01*
X145300583Y-81075179D01*
X145488655Y-81304345D01*
X145717822Y-81492417D01*
X145979276Y-81632166D01*
X146262969Y-81718224D01*
X146558000Y-81747282D01*
X146853032Y-81718224D01*
X147136725Y-81632166D01*
X147398179Y-81492417D01*
X147627345Y-81304345D01*
X147815417Y-81075179D01*
X147955166Y-80813724D01*
X148041224Y-80530031D01*
X148063000Y-80308935D01*
X148063000Y-79711064D01*
X148041224Y-79489968D01*
X147983598Y-79300001D01*
X152571576Y-79300001D01*
X152608999Y-79303687D01*
X152646422Y-79300001D01*
X152646425Y-79300001D01*
X152758377Y-79288975D01*
X152902014Y-79245403D01*
X153034391Y-79174646D01*
X153150421Y-79079423D01*
X153174283Y-79050347D01*
X153194346Y-79030284D01*
X153223422Y-79006422D01*
X153318645Y-78890392D01*
X153340731Y-78849072D01*
X153432000Y-78849072D01*
X153556482Y-78836812D01*
X153676180Y-78800502D01*
X153786494Y-78741537D01*
X153832000Y-78704191D01*
X153877506Y-78741537D01*
X153987820Y-78800502D01*
X154107518Y-78836812D01*
X154232000Y-78849072D01*
X155732000Y-78849072D01*
X155856482Y-78836812D01*
X155976180Y-78800502D01*
X156086494Y-78741537D01*
X156183185Y-78662185D01*
X156262537Y-78565494D01*
X156321502Y-78455180D01*
X156357812Y-78335482D01*
X156370072Y-78211000D01*
X156370072Y-77971000D01*
X161673000Y-77971000D01*
X161673001Y-79027841D01*
X161630089Y-79131440D01*
X161598000Y-79292760D01*
X161598000Y-79457240D01*
X161630089Y-79618560D01*
X161693033Y-79770521D01*
X161784413Y-79907281D01*
X161900719Y-80023587D01*
X162037479Y-80114967D01*
X162189440Y-80177911D01*
X162350760Y-80210000D01*
X162515240Y-80210000D01*
X162676560Y-80177911D01*
X162828521Y-80114967D01*
X162965281Y-80023587D01*
X163015999Y-79972869D01*
X163015999Y-82670199D01*
X150066002Y-95620197D01*
X150036998Y-95644000D01*
X150008453Y-95678783D01*
X149942025Y-95759725D01*
X149892928Y-95851578D01*
X149871453Y-95891755D01*
X149827996Y-96035016D01*
X149816999Y-96146669D01*
X149816999Y-96146679D01*
X149813323Y-96184001D01*
X149816999Y-96221324D01*
X149816999Y-97192928D01*
X148602000Y-97192928D01*
X148477518Y-97205188D01*
X148357820Y-97241498D01*
X148247506Y-97300463D01*
X148202000Y-97337809D01*
X148156494Y-97300463D01*
X148046180Y-97241498D01*
X147926482Y-97205188D01*
X147802000Y-97192928D01*
X146302000Y-97192928D01*
X146177518Y-97205188D01*
X146057820Y-97241498D01*
X145947506Y-97300463D01*
X145850815Y-97379815D01*
X145771463Y-97476506D01*
X145712498Y-97586820D01*
X145676188Y-97706518D01*
X145663928Y-97831000D01*
X145663928Y-98005312D01*
X145658560Y-98003089D01*
X145497240Y-97971000D01*
X145332760Y-97971000D01*
X145171440Y-98003089D01*
X145019479Y-98066033D01*
X144882719Y-98157413D01*
X144766413Y-98273719D01*
X144675033Y-98410479D01*
X144612089Y-98562440D01*
X144580000Y-98723760D01*
X144580000Y-98888240D01*
X144612089Y-99049560D01*
X144675033Y-99201521D01*
X144766413Y-99338281D01*
X144882719Y-99454587D01*
X145019479Y-99545967D01*
X145171440Y-99608911D01*
X145332760Y-99641000D01*
X145497240Y-99641000D01*
X145658560Y-99608911D01*
X145663928Y-99606688D01*
X145663928Y-99831000D01*
X145676188Y-99955482D01*
X145712498Y-100075180D01*
X145771463Y-100185494D01*
X145850815Y-100282185D01*
X145947506Y-100361537D01*
X146057820Y-100420502D01*
X146177518Y-100456812D01*
X146302000Y-100469072D01*
X146479539Y-100469072D01*
X146451774Y-100536102D01*
X146412000Y-100736061D01*
X146412000Y-100939939D01*
X146451774Y-101139898D01*
X146529795Y-101328256D01*
X146643063Y-101497774D01*
X146685000Y-101539711D01*
X146685000Y-101792369D01*
X146570070Y-101907300D01*
X145511276Y-101907300D01*
X145490969Y-101909300D01*
X131010000Y-101909300D01*
X131010000Y-101771760D01*
X130977911Y-101610440D01*
X130914967Y-101458479D01*
X130823587Y-101321719D01*
X130707281Y-101205413D01*
X130570521Y-101114033D01*
X130418560Y-101051089D01*
X130257240Y-101019000D01*
X130092760Y-101019000D01*
X129931440Y-101051089D01*
X129832672Y-101092000D01*
X127949502Y-101092000D01*
X130838859Y-98063020D01*
X140405557Y-98063020D01*
X140442980Y-98066706D01*
X140480403Y-98063020D01*
X140480406Y-98063020D01*
X140592358Y-98051994D01*
X140735995Y-98008422D01*
X140868372Y-97937665D01*
X140984402Y-97842442D01*
X141008264Y-97813367D01*
X141539631Y-97282000D01*
X143443289Y-97282000D01*
X143485226Y-97323937D01*
X143654744Y-97437205D01*
X143843102Y-97515226D01*
X144043061Y-97555000D01*
X144246939Y-97555000D01*
X144446898Y-97515226D01*
X144635256Y-97437205D01*
X144804774Y-97323937D01*
X144948937Y-97179774D01*
X145062205Y-97010256D01*
X145140226Y-96821898D01*
X145180000Y-96621939D01*
X145180000Y-96418061D01*
X145140226Y-96218102D01*
X145062205Y-96029744D01*
X144948937Y-95860226D01*
X144804774Y-95716063D01*
X144635256Y-95602795D01*
X144446898Y-95524774D01*
X144246939Y-95485000D01*
X144043061Y-95485000D01*
X143843102Y-95524774D01*
X143654744Y-95602795D01*
X143485226Y-95716063D01*
X143443289Y-95758000D01*
X142047631Y-95758000D01*
X142663753Y-95141878D01*
X142762521Y-95100967D01*
X142899281Y-95009587D01*
X143015587Y-94893281D01*
X143106967Y-94756521D01*
X143169911Y-94604560D01*
X143202000Y-94443240D01*
X143202000Y-94278760D01*
X143169911Y-94117440D01*
X143106967Y-93965479D01*
X143015587Y-93828719D01*
X142899281Y-93712413D01*
X142762521Y-93621033D01*
X142610560Y-93558089D01*
X142449240Y-93526000D01*
X142284760Y-93526000D01*
X142123440Y-93558089D01*
X141971479Y-93621033D01*
X141834719Y-93712413D01*
X141732000Y-93815132D01*
X141629281Y-93712413D01*
X141492521Y-93621033D01*
X141340560Y-93558089D01*
X141179240Y-93526000D01*
X141014760Y-93526000D01*
X140853440Y-93558089D01*
X140701479Y-93621033D01*
X140564719Y-93712413D01*
X140462000Y-93815132D01*
X140359281Y-93712413D01*
X140222521Y-93621033D01*
X140070560Y-93558089D01*
X139909240Y-93526000D01*
X139744760Y-93526000D01*
X139583440Y-93558089D01*
X139431479Y-93621033D01*
X139294719Y-93712413D01*
X139192000Y-93815132D01*
X139089281Y-93712413D01*
X138952521Y-93621033D01*
X138800560Y-93558089D01*
X138639240Y-93526000D01*
X138474760Y-93526000D01*
X138313440Y-93558089D01*
X138161479Y-93621033D01*
X138024719Y-93712413D01*
X137922000Y-93815132D01*
X137819281Y-93712413D01*
X137682521Y-93621033D01*
X137530560Y-93558089D01*
X137369240Y-93526000D01*
X137204760Y-93526000D01*
X137043440Y-93558089D01*
X136891479Y-93621033D01*
X136754719Y-93712413D01*
X136652000Y-93815132D01*
X136549281Y-93712413D01*
X136412521Y-93621033D01*
X136260560Y-93558089D01*
X136099240Y-93526000D01*
X135934760Y-93526000D01*
X135773440Y-93558089D01*
X135621479Y-93621033D01*
X135484719Y-93712413D01*
X135398133Y-93798999D01*
X133796162Y-93798999D01*
X133817000Y-93694240D01*
X133817000Y-93529760D01*
X133784911Y-93368440D01*
X133744000Y-93269672D01*
X133744000Y-92303328D01*
X133784911Y-92204560D01*
X133817000Y-92043240D01*
X133817000Y-91878760D01*
X133784911Y-91717440D01*
X133721967Y-91565479D01*
X133638125Y-91440000D01*
X138548975Y-91440000D01*
X138586398Y-91443686D01*
X138623821Y-91440000D01*
X138623824Y-91440000D01*
X138735776Y-91428974D01*
X138879413Y-91385402D01*
X139011790Y-91314645D01*
X139127820Y-91219422D01*
X139151682Y-91190346D01*
X139215324Y-91126705D01*
X139216188Y-91135482D01*
X139252498Y-91255180D01*
X139311463Y-91365494D01*
X139390815Y-91462185D01*
X139487506Y-91541537D01*
X139597820Y-91600502D01*
X139717518Y-91636812D01*
X139842000Y-91649072D01*
X141131250Y-91646000D01*
X141290000Y-91487250D01*
X141290000Y-90638000D01*
X141544000Y-90638000D01*
X141544000Y-91487250D01*
X141702750Y-91646000D01*
X142992000Y-91649072D01*
X143116482Y-91636812D01*
X143236180Y-91600502D01*
X143346494Y-91541537D01*
X143443185Y-91462185D01*
X143522537Y-91365494D01*
X143581502Y-91255180D01*
X143617812Y-91135482D01*
X143630072Y-91011000D01*
X143627000Y-90796750D01*
X143468250Y-90638000D01*
X141544000Y-90638000D01*
X141290000Y-90638000D01*
X141270000Y-90638000D01*
X141270000Y-90384000D01*
X141290000Y-90384000D01*
X141290000Y-90364000D01*
X141544000Y-90364000D01*
X141544000Y-90384000D01*
X143468250Y-90384000D01*
X143553751Y-90298499D01*
X144253928Y-90298499D01*
X144253928Y-91011000D01*
X144266188Y-91135482D01*
X144302498Y-91255180D01*
X144361463Y-91365494D01*
X144440815Y-91462185D01*
X144537506Y-91541537D01*
X144647820Y-91600502D01*
X144767518Y-91636812D01*
X144892000Y-91649072D01*
X148042000Y-91649072D01*
X148166482Y-91636812D01*
X148286180Y-91600502D01*
X148396494Y-91541537D01*
X148493185Y-91462185D01*
X148572537Y-91365494D01*
X148621977Y-91273000D01*
X149816789Y-91273000D01*
X149898726Y-91354937D01*
X150068244Y-91468205D01*
X150256602Y-91546226D01*
X150456561Y-91586000D01*
X150660439Y-91586000D01*
X150860398Y-91546226D01*
X151048756Y-91468205D01*
X151218274Y-91354937D01*
X151362437Y-91210774D01*
X151475705Y-91041256D01*
X151553726Y-90852898D01*
X151593500Y-90652939D01*
X151593500Y-90449061D01*
X151553726Y-90249102D01*
X151475705Y-90060744D01*
X151362437Y-89891226D01*
X151340618Y-89869407D01*
X151352807Y-89487544D01*
X151354000Y-89475426D01*
X151354000Y-89450155D01*
X151354806Y-89424904D01*
X151354000Y-89412759D01*
X151354000Y-86783328D01*
X151394911Y-86684560D01*
X151427000Y-86523240D01*
X151427000Y-86358760D01*
X151394911Y-86197440D01*
X151331967Y-86045479D01*
X151240587Y-85908719D01*
X151124281Y-85792413D01*
X150987521Y-85701033D01*
X150835560Y-85638089D01*
X150674240Y-85606000D01*
X150509760Y-85606000D01*
X150348440Y-85638089D01*
X150196479Y-85701033D01*
X150059719Y-85792413D01*
X149943413Y-85908719D01*
X149852033Y-86045479D01*
X149789089Y-86197440D01*
X149757000Y-86358760D01*
X149757000Y-86523240D01*
X149789089Y-86684560D01*
X149830001Y-86783331D01*
X149830000Y-88252425D01*
X149830001Y-88252435D01*
X149830000Y-89425842D01*
X149819685Y-89749000D01*
X148621977Y-89749000D01*
X148572537Y-89656506D01*
X148493185Y-89559815D01*
X148396494Y-89480463D01*
X148286180Y-89421498D01*
X148166482Y-89385188D01*
X148042000Y-89372928D01*
X146019871Y-89372928D01*
X146283728Y-89109072D01*
X148042000Y-89109072D01*
X148166482Y-89096812D01*
X148286180Y-89060502D01*
X148396494Y-89001537D01*
X148493185Y-88922185D01*
X148572537Y-88825494D01*
X148631502Y-88715180D01*
X148667812Y-88595482D01*
X148680072Y-88471000D01*
X148680072Y-87471000D01*
X148667812Y-87346518D01*
X148631502Y-87226820D01*
X148572537Y-87116506D01*
X148493185Y-87019815D01*
X148396494Y-86940463D01*
X148286180Y-86881498D01*
X148166482Y-86845188D01*
X148042000Y-86832928D01*
X144892000Y-86832928D01*
X144767518Y-86845188D01*
X144647820Y-86881498D01*
X144583991Y-86915616D01*
X144583991Y-86563810D01*
X144634447Y-86513354D01*
X144647820Y-86520502D01*
X144767518Y-86556812D01*
X144892000Y-86569072D01*
X148042000Y-86569072D01*
X148166482Y-86556812D01*
X148286180Y-86520502D01*
X148396494Y-86461537D01*
X148493185Y-86382185D01*
X148572537Y-86285494D01*
X148631502Y-86175180D01*
X148667812Y-86055482D01*
X148680072Y-85931000D01*
X148680072Y-84931000D01*
X148667812Y-84806518D01*
X148631502Y-84686820D01*
X148572537Y-84576506D01*
X148493185Y-84479815D01*
X148396494Y-84400463D01*
X148286180Y-84341498D01*
X148166482Y-84305188D01*
X148042000Y-84292928D01*
X144892000Y-84292928D01*
X144767518Y-84305188D01*
X144647820Y-84341498D01*
X144537506Y-84400463D01*
X144469568Y-84456218D01*
X144454726Y-84381602D01*
X144376705Y-84193244D01*
X144263437Y-84023726D01*
X144119274Y-83879563D01*
X143949756Y-83766295D01*
X143761398Y-83688274D01*
X143561439Y-83648500D01*
X143357561Y-83648500D01*
X143157602Y-83688274D01*
X142969244Y-83766295D01*
X142927032Y-83794500D01*
X142208160Y-83794500D01*
X142164500Y-83790200D01*
X142120840Y-83794500D01*
X142120833Y-83794500D01*
X142006825Y-83805729D01*
X141990225Y-83807364D01*
X141964568Y-83815147D01*
X141822649Y-83858197D01*
X141668209Y-83940747D01*
X141621902Y-83978750D01*
X141574307Y-84017811D01*
X141532841Y-84051841D01*
X141505005Y-84085759D01*
X141297836Y-84292928D01*
X139842000Y-84292928D01*
X139717518Y-84305188D01*
X139597820Y-84341498D01*
X139487506Y-84400463D01*
X139390815Y-84479815D01*
X139311463Y-84576506D01*
X139266545Y-84660540D01*
X139214709Y-84688247D01*
X139183433Y-84713915D01*
X139133689Y-84754739D01*
X139079341Y-84799341D01*
X139051506Y-84833258D01*
X137225406Y-86659359D01*
X137212502Y-86616820D01*
X137153537Y-86506506D01*
X137074185Y-86409815D01*
X136977494Y-86330463D01*
X136867180Y-86271498D01*
X136747482Y-86235188D01*
X136623000Y-86222928D01*
X134351000Y-86222928D01*
X134351000Y-85341495D01*
X134420506Y-85398537D01*
X134530820Y-85457502D01*
X134650518Y-85493812D01*
X134775000Y-85506072D01*
X135526750Y-85503000D01*
X135685500Y-85344250D01*
X135685500Y-83820000D01*
X135939500Y-83820000D01*
X135939500Y-85344250D01*
X136098250Y-85503000D01*
X136850000Y-85506072D01*
X136974482Y-85493812D01*
X137094180Y-85457502D01*
X137204494Y-85398537D01*
X137301185Y-85319185D01*
X137380537Y-85222494D01*
X137439502Y-85112180D01*
X137475812Y-84992482D01*
X137488072Y-84868000D01*
X137485000Y-83978750D01*
X137326250Y-83820000D01*
X135939500Y-83820000D01*
X135685500Y-83820000D01*
X135665500Y-83820000D01*
X135665500Y-83566000D01*
X135685500Y-83566000D01*
X135685500Y-83546000D01*
X135939500Y-83546000D01*
X135939500Y-83566000D01*
X137326250Y-83566000D01*
X137485000Y-83407250D01*
X137488072Y-82518000D01*
X137475812Y-82393518D01*
X137439502Y-82273820D01*
X137380537Y-82163506D01*
X137301185Y-82066815D01*
X137204494Y-81987463D01*
X137094180Y-81928498D01*
X136974482Y-81892188D01*
X136850000Y-81879928D01*
X136098250Y-81883000D01*
X135939502Y-82041748D01*
X135939502Y-82019502D01*
X140622511Y-77244119D01*
X140752156Y-77114474D01*
X140781232Y-77090612D01*
X140876455Y-76974582D01*
X140947212Y-76842205D01*
X140990784Y-76698568D01*
X141001810Y-76586616D01*
X141001810Y-76586614D01*
X141005496Y-76549191D01*
X141001810Y-76511768D01*
X141001810Y-76211000D01*
X148993928Y-76211000D01*
X148997000Y-76925250D01*
X149155750Y-77084000D01*
X150255000Y-77084000D01*
X150255000Y-75734750D01*
X150096250Y-75576000D01*
X149632000Y-75572928D01*
X149507518Y-75585188D01*
X149387820Y-75621498D01*
X149277506Y-75680463D01*
X149180815Y-75759815D01*
X149101463Y-75856506D01*
X149042498Y-75966820D01*
X149006188Y-76086518D01*
X148993928Y-76211000D01*
X141001810Y-76211000D01*
X141001810Y-74627455D01*
X141004076Y-74628666D01*
X141287769Y-74714724D01*
X141582800Y-74743782D01*
X141877832Y-74714724D01*
X142161525Y-74628666D01*
X142422979Y-74488917D01*
X142652145Y-74300845D01*
X142840217Y-74071679D01*
X142852800Y-74048138D01*
X142865383Y-74071679D01*
X143053455Y-74300845D01*
X143282622Y-74488917D01*
X143544076Y-74628666D01*
X143827769Y-74714724D01*
X144122800Y-74743782D01*
X144417832Y-74714724D01*
X144701525Y-74628666D01*
X144962979Y-74488917D01*
X145192145Y-74300845D01*
X145380217Y-74071679D01*
X145392800Y-74048138D01*
X145405383Y-74071679D01*
X145593455Y-74300845D01*
X145822622Y-74488917D01*
X146084076Y-74628666D01*
X146367769Y-74714724D01*
X146662800Y-74743782D01*
X146957832Y-74714724D01*
X147241525Y-74628666D01*
X147502979Y-74488917D01*
X147732145Y-74300845D01*
X147920217Y-74071679D01*
X148059966Y-73810224D01*
X148146024Y-73526531D01*
X148167800Y-73305435D01*
X148167800Y-72918430D01*
X149309148Y-74059779D01*
X149319999Y-74073001D01*
X149333221Y-74083852D01*
X149347648Y-74098279D01*
X149434607Y-74169644D01*
X149566983Y-74240401D01*
X149710621Y-74283973D01*
X149859999Y-74298686D01*
X149917728Y-74293000D01*
X157188678Y-74293000D01*
X157226000Y-74296676D01*
X157263322Y-74293000D01*
X157263333Y-74293000D01*
X157374986Y-74282003D01*
X157518247Y-74238546D01*
X157650276Y-74167974D01*
X157766001Y-74073001D01*
X157789804Y-74043998D01*
X158281802Y-73552000D01*
X158343939Y-73552000D01*
X158543898Y-73512226D01*
X158732256Y-73434205D01*
X158901774Y-73320937D01*
X159045937Y-73176774D01*
X159159205Y-73007256D01*
X159237226Y-72818898D01*
X159277000Y-72618939D01*
X159277000Y-72415061D01*
X159237226Y-72215102D01*
X159159205Y-72026744D01*
X159045937Y-71857226D01*
X158901774Y-71713063D01*
X158732256Y-71599795D01*
X158543898Y-71521774D01*
X158343939Y-71482000D01*
X158140061Y-71482000D01*
X157940102Y-71521774D01*
X157751744Y-71599795D01*
X157582226Y-71713063D01*
X157438063Y-71857226D01*
X157324795Y-72026744D01*
X157246774Y-72215102D01*
X157207000Y-72415061D01*
X157207000Y-72477198D01*
X156911199Y-72773000D01*
X150177631Y-72773000D01*
X148476774Y-71072144D01*
X148452912Y-71043068D01*
X148336882Y-70947845D01*
X148204505Y-70877088D01*
X148060868Y-70833516D01*
X147948916Y-70822490D01*
X147948913Y-70822490D01*
X147911490Y-70818804D01*
X147874067Y-70822490D01*
X140669933Y-70822490D01*
X140632510Y-70818804D01*
X140595087Y-70822490D01*
X140595084Y-70822490D01*
X140483132Y-70833516D01*
X140339495Y-70877088D01*
X140207118Y-70947845D01*
X140091088Y-71043068D01*
X140067222Y-71072149D01*
X139865695Y-71273676D01*
X139328550Y-71276500D01*
X139169800Y-71435250D01*
X139169800Y-72879500D01*
X139189800Y-72879500D01*
X139189800Y-73133500D01*
X139169800Y-73133500D01*
X139169800Y-74577750D01*
X139328550Y-74736500D01*
X139477811Y-74737285D01*
X139477811Y-76234776D01*
X137149589Y-78608923D01*
X137120387Y-78565219D01*
X137004081Y-78448913D01*
X136867321Y-78357533D01*
X136715360Y-78294589D01*
X136554040Y-78262500D01*
X136389560Y-78262500D01*
X136341801Y-78272000D01*
X135979072Y-78272000D01*
X135979072Y-78030000D01*
X135966812Y-77905518D01*
X135930502Y-77785820D01*
X135871537Y-77675506D01*
X135792185Y-77578815D01*
X135695494Y-77499463D01*
X135585180Y-77440498D01*
X135465482Y-77404188D01*
X135341000Y-77391928D01*
X134141000Y-77391928D01*
X134016518Y-77404188D01*
X133896820Y-77440498D01*
X133786506Y-77499463D01*
X133689815Y-77578815D01*
X133610463Y-77675506D01*
X133601000Y-77693210D01*
X133591537Y-77675506D01*
X133512185Y-77578815D01*
X133477000Y-77549940D01*
X133477000Y-76668072D01*
X135361000Y-76668072D01*
X135485482Y-76655812D01*
X135605180Y-76619502D01*
X135715494Y-76560537D01*
X135812185Y-76481185D01*
X135891537Y-76384494D01*
X135950502Y-76274180D01*
X135986812Y-76154482D01*
X135999072Y-76030000D01*
X135999072Y-74101500D01*
X137534728Y-74101500D01*
X137546988Y-74225982D01*
X137583298Y-74345680D01*
X137642263Y-74455994D01*
X137721615Y-74552685D01*
X137818306Y-74632037D01*
X137928620Y-74691002D01*
X138048318Y-74727312D01*
X138172800Y-74739572D01*
X138757050Y-74736500D01*
X138915800Y-74577750D01*
X138915800Y-73133500D01*
X137696550Y-73133500D01*
X137537800Y-73292250D01*
X137534728Y-74101500D01*
X135999072Y-74101500D01*
X135999072Y-71911500D01*
X137534728Y-71911500D01*
X137537800Y-72720750D01*
X137696550Y-72879500D01*
X138915800Y-72879500D01*
X138915800Y-71435250D01*
X138757050Y-71276500D01*
X138172800Y-71273428D01*
X138048318Y-71285688D01*
X137928620Y-71321998D01*
X137818306Y-71380963D01*
X137721615Y-71460315D01*
X137642263Y-71557006D01*
X137583298Y-71667320D01*
X137546988Y-71787018D01*
X137534728Y-71911500D01*
X135999072Y-71911500D01*
X135999072Y-69911000D01*
X150143928Y-69911000D01*
X150143928Y-71911000D01*
X150156188Y-72035482D01*
X150192498Y-72155180D01*
X150251463Y-72265494D01*
X150330815Y-72362185D01*
X150427506Y-72441537D01*
X150537820Y-72500502D01*
X150657518Y-72536812D01*
X150782000Y-72549072D01*
X154582000Y-72549072D01*
X154706482Y-72536812D01*
X154826180Y-72500502D01*
X154936494Y-72441537D01*
X155033185Y-72362185D01*
X155112537Y-72265494D01*
X155171502Y-72155180D01*
X155207812Y-72035482D01*
X155220072Y-71911000D01*
X155220072Y-69911000D01*
X155207812Y-69786518D01*
X155171502Y-69666820D01*
X155112537Y-69556506D01*
X155033185Y-69459815D01*
X154936494Y-69380463D01*
X154826180Y-69321498D01*
X154706482Y-69285188D01*
X154582000Y-69272928D01*
X150782000Y-69272928D01*
X150657518Y-69285188D01*
X150537820Y-69321498D01*
X150427506Y-69380463D01*
X150330815Y-69459815D01*
X150251463Y-69556506D01*
X150192498Y-69666820D01*
X150156188Y-69786518D01*
X150143928Y-69911000D01*
X135999072Y-69911000D01*
X135999072Y-69630000D01*
X135986812Y-69505518D01*
X135950502Y-69385820D01*
X135891537Y-69275506D01*
X135812185Y-69178815D01*
X135715494Y-69099463D01*
X135605180Y-69040498D01*
X135485482Y-69004188D01*
X135361000Y-68991928D01*
X129561000Y-68991928D01*
X129436518Y-69004188D01*
X129316820Y-69040498D01*
X129206506Y-69099463D01*
X129109815Y-69178815D01*
X129030463Y-69275506D01*
X128971498Y-69385820D01*
X128935188Y-69505518D01*
X128922928Y-69630000D01*
X128922928Y-76030000D01*
X128935188Y-76154482D01*
X128971498Y-76274180D01*
X129030463Y-76384494D01*
X129109815Y-76481185D01*
X129206506Y-76560537D01*
X129316820Y-76619502D01*
X129436518Y-76655812D01*
X129561000Y-76668072D01*
X131445000Y-76668072D01*
X131445000Y-77549939D01*
X131409815Y-77578815D01*
X131330463Y-77675506D01*
X131321000Y-77693210D01*
X131311537Y-77675506D01*
X131232185Y-77578815D01*
X131135494Y-77499463D01*
X131025180Y-77440498D01*
X130905482Y-77404188D01*
X130781000Y-77391928D01*
X129581000Y-77391928D01*
X129456518Y-77404188D01*
X129336820Y-77440498D01*
X129226506Y-77499463D01*
X129129815Y-77578815D01*
X129050463Y-77675506D01*
X128991498Y-77785820D01*
X128955188Y-77905518D01*
X128942928Y-78030000D01*
X128942928Y-80230000D01*
X128955188Y-80354482D01*
X128991498Y-80474180D01*
X129050463Y-80584494D01*
X129084526Y-80626000D01*
X129057061Y-80626000D01*
X128857102Y-80665774D01*
X128668744Y-80743795D01*
X128499226Y-80857063D01*
X128355063Y-81001226D01*
X128241795Y-81170744D01*
X128163774Y-81359102D01*
X128124000Y-81559061D01*
X128124000Y-81762939D01*
X128163774Y-81962898D01*
X128241795Y-82151256D01*
X128355063Y-82320774D01*
X128397000Y-82362711D01*
X128397000Y-83840563D01*
X128115699Y-83559262D01*
X128087860Y-83525340D01*
X127952492Y-83414246D01*
X127798052Y-83331696D01*
X127630475Y-83280863D01*
X127499868Y-83267999D01*
X127499861Y-83267999D01*
X127456201Y-83263699D01*
X127412541Y-83267999D01*
X124898035Y-83267999D01*
X124844165Y-83214129D01*
X124883898Y-83206226D01*
X125072256Y-83128205D01*
X125241774Y-83014937D01*
X125385937Y-82870774D01*
X125499205Y-82701256D01*
X125577226Y-82512898D01*
X125617000Y-82312939D01*
X125617000Y-82109061D01*
X125577226Y-81909102D01*
X125568929Y-81889072D01*
X127093000Y-81889072D01*
X127217482Y-81876812D01*
X127337180Y-81840502D01*
X127447494Y-81781537D01*
X127544185Y-81702185D01*
X127623537Y-81605494D01*
X127682502Y-81495180D01*
X127718812Y-81375482D01*
X127731072Y-81251000D01*
X127731072Y-80051000D01*
X127718812Y-79926518D01*
X127682502Y-79806820D01*
X127623537Y-79696506D01*
X127544185Y-79599815D01*
X127447494Y-79520463D01*
X127337180Y-79461498D01*
X127217482Y-79425188D01*
X127093000Y-79412928D01*
X125222000Y-79412928D01*
X125222000Y-73698112D01*
X125317081Y-73620081D01*
X125490157Y-73409188D01*
X125618764Y-73168581D01*
X125697960Y-72907507D01*
X125718000Y-72704037D01*
X125718000Y-71567963D01*
X125697960Y-71364493D01*
X125618764Y-71103419D01*
X125490157Y-70862812D01*
X125317080Y-70651919D01*
X125106187Y-70478843D01*
X124865580Y-70350236D01*
X124604506Y-70271040D01*
X124333000Y-70244299D01*
X124061493Y-70271040D01*
X123800419Y-70350236D01*
X123559812Y-70478843D01*
X123348919Y-70651920D01*
X123175843Y-70862813D01*
X123060514Y-71078579D01*
X123023972Y-70988651D01*
X122874028Y-70760939D01*
X122682540Y-70566855D01*
X122456868Y-70413858D01*
X122205684Y-70307827D01*
X122134185Y-70293682D01*
X121920000Y-70416344D01*
X121920000Y-72009000D01*
X121940000Y-72009000D01*
X121940000Y-72263000D01*
X121920000Y-72263000D01*
X121920000Y-73855656D01*
X122134185Y-73978318D01*
X122205684Y-73964173D01*
X122456868Y-73858142D01*
X122682540Y-73705145D01*
X122874028Y-73511061D01*
X123023972Y-73283349D01*
X123060514Y-73193422D01*
X123175843Y-73409188D01*
X123348920Y-73620081D01*
X123444000Y-73698112D01*
X123444001Y-79714791D01*
X123423537Y-79676506D01*
X123344185Y-79579815D01*
X123247494Y-79500463D01*
X123137180Y-79441498D01*
X123017482Y-79405188D01*
X122893000Y-79392928D01*
X120183500Y-79392928D01*
X120183500Y-73994819D01*
X120247180Y-73975502D01*
X120357494Y-73916537D01*
X120454185Y-73837185D01*
X120533537Y-73740494D01*
X120592502Y-73630180D01*
X120628812Y-73510482D01*
X120639582Y-73401126D01*
X120711972Y-73511061D01*
X120903460Y-73705145D01*
X121129132Y-73858142D01*
X121380316Y-73964173D01*
X121451815Y-73978318D01*
X121666000Y-73855656D01*
X121666000Y-72263000D01*
X121646000Y-72263000D01*
X121646000Y-72009000D01*
X121666000Y-72009000D01*
X121666000Y-70416344D01*
X121451815Y-70293682D01*
X121380316Y-70307827D01*
X121129132Y-70413858D01*
X120903460Y-70566855D01*
X120711972Y-70760939D01*
X120639582Y-70870874D01*
X120628812Y-70761518D01*
X120592502Y-70641820D01*
X120533537Y-70531506D01*
X120454185Y-70434815D01*
X120357494Y-70355463D01*
X120247180Y-70296498D01*
X120127482Y-70260188D01*
X120003000Y-70247928D01*
X118503000Y-70247928D01*
X118378518Y-70260188D01*
X118258820Y-70296498D01*
X118148506Y-70355463D01*
X118051815Y-70434815D01*
X117972463Y-70531506D01*
X117913498Y-70641820D01*
X117877188Y-70761518D01*
X117864928Y-70886000D01*
X117864928Y-73386000D01*
X117877188Y-73510482D01*
X117913498Y-73630180D01*
X117972463Y-73740494D01*
X118051815Y-73837185D01*
X118148506Y-73916537D01*
X118258820Y-73975502D01*
X118278500Y-73981472D01*
X118278501Y-79392928D01*
X116493000Y-79392928D01*
X116368518Y-79405188D01*
X116248820Y-79441498D01*
X116138506Y-79500463D01*
X116041815Y-79579815D01*
X115962463Y-79676506D01*
X115903498Y-79786820D01*
X115867188Y-79906518D01*
X115854928Y-80031000D01*
X115854928Y-83228692D01*
X115340499Y-82714263D01*
X115312659Y-82680341D01*
X115177291Y-82569247D01*
X115022851Y-82486697D01*
X114855274Y-82435864D01*
X114724667Y-82423000D01*
X114724660Y-82423000D01*
X114681000Y-82418700D01*
X114637340Y-82423000D01*
X110871000Y-82423000D01*
X110871000Y-81069659D01*
X110875300Y-81025999D01*
X110871000Y-80982339D01*
X110871000Y-80982333D01*
X110858662Y-80857063D01*
X110858136Y-80851724D01*
X110811099Y-80696663D01*
X110807303Y-80684149D01*
X110724753Y-80529709D01*
X110613659Y-80394341D01*
X110579741Y-80366505D01*
X109776206Y-79562970D01*
X109834226Y-79422898D01*
X109874000Y-79222939D01*
X109874000Y-79019061D01*
X109834226Y-78819102D01*
X109756205Y-78630744D01*
X109642937Y-78461226D01*
X109498774Y-78317063D01*
X109329256Y-78203795D01*
X109140898Y-78125774D01*
X108940939Y-78086000D01*
X108737061Y-78086000D01*
X108537102Y-78125774D01*
X108348744Y-78203795D01*
X108179226Y-78317063D01*
X108035063Y-78461226D01*
X107921795Y-78630744D01*
X107843774Y-78819102D01*
X107804000Y-79019061D01*
X107804000Y-79222939D01*
X107843774Y-79422898D01*
X107921795Y-79611256D01*
X107950000Y-79653468D01*
X107950000Y-79839340D01*
X107945700Y-79883000D01*
X107950000Y-79926660D01*
X107950000Y-79926666D01*
X107953257Y-79959733D01*
X107962864Y-80057274D01*
X107980365Y-80114967D01*
X108013697Y-80224850D01*
X108096247Y-80379290D01*
X108207341Y-80514659D01*
X108241264Y-80542499D01*
X109093001Y-81394237D01*
X109093000Y-83204840D01*
X109088700Y-83248500D01*
X109093000Y-83292160D01*
X109093000Y-83292166D01*
X109100109Y-83364341D01*
X109105864Y-83422774D01*
X109122820Y-83478670D01*
X109156697Y-83590350D01*
X109239247Y-83744790D01*
X109350341Y-83880159D01*
X109384264Y-83907999D01*
X109386001Y-83909736D01*
X109413841Y-83943659D01*
X109549209Y-84054753D01*
X109703649Y-84137303D01*
X109859932Y-84184710D01*
X109871226Y-84188136D01*
X110045500Y-84205301D01*
X110089168Y-84201000D01*
X114312765Y-84201000D01*
X114554001Y-84442236D01*
X114554000Y-85586042D01*
X114549700Y-85629702D01*
X114554000Y-85673362D01*
X114554000Y-85673368D01*
X114563799Y-85772852D01*
X114566864Y-85803976D01*
X114575062Y-85831000D01*
X114617697Y-85971552D01*
X114700247Y-86125992D01*
X114811341Y-86261361D01*
X114845263Y-86289200D01*
X115448304Y-86892242D01*
X115476140Y-86926160D01*
X115510057Y-86953995D01*
X115510058Y-86953996D01*
X115533557Y-86973281D01*
X115611508Y-87037254D01*
X115765948Y-87119804D01*
X115860557Y-87148503D01*
X115933524Y-87170637D01*
X115950124Y-87172272D01*
X116064132Y-87183501D01*
X116064139Y-87183501D01*
X116107799Y-87187801D01*
X116151459Y-87183501D01*
X125624839Y-87183501D01*
X125668499Y-87187801D01*
X125712159Y-87183501D01*
X125712166Y-87183501D01*
X125842773Y-87170637D01*
X125979524Y-87129155D01*
X126492000Y-87641631D01*
X126492001Y-92367669D01*
X126451089Y-92466440D01*
X126419000Y-92627760D01*
X126419000Y-92792240D01*
X126451089Y-92953560D01*
X126514033Y-93105521D01*
X126605413Y-93242281D01*
X126708121Y-93344989D01*
X119036433Y-93344989D01*
X118999010Y-93341303D01*
X118961587Y-93344989D01*
X118961585Y-93344989D01*
X118849633Y-93356015D01*
X118705996Y-93399587D01*
X118573619Y-93470344D01*
X118457589Y-93565567D01*
X118433727Y-93594643D01*
X118285954Y-93742416D01*
X118256878Y-93766278D01*
X118213136Y-93819579D01*
X118161655Y-93882308D01*
X118139181Y-93924354D01*
X118090898Y-94014686D01*
X118056211Y-94129032D01*
X118024937Y-94082226D01*
X117910001Y-93967290D01*
X117910001Y-91791660D01*
X117914301Y-91748000D01*
X117910001Y-91704340D01*
X117910001Y-91704334D01*
X117897137Y-91573727D01*
X117897137Y-91573725D01*
X117853150Y-91428719D01*
X117846304Y-91406150D01*
X117763754Y-91251710D01*
X117652660Y-91116342D01*
X117618742Y-91088506D01*
X116448500Y-89918265D01*
X116420660Y-89884342D01*
X116285292Y-89773248D01*
X116130852Y-89690698D01*
X115963275Y-89639865D01*
X115832668Y-89627001D01*
X115832661Y-89627001D01*
X115789001Y-89622701D01*
X115745341Y-89627001D01*
X112607314Y-89627001D01*
X112395000Y-89414687D01*
X112395000Y-88094334D01*
X112382136Y-87963727D01*
X112331303Y-87796149D01*
X112248753Y-87641709D01*
X112137659Y-87506341D01*
X112002291Y-87395247D01*
X111847851Y-87312697D01*
X111680274Y-87261864D01*
X111506000Y-87244699D01*
X111331727Y-87261864D01*
X111164150Y-87312697D01*
X111009710Y-87395247D01*
X110874341Y-87506341D01*
X110763247Y-87641709D01*
X110680697Y-87796149D01*
X110629864Y-87963726D01*
X110617000Y-88094333D01*
X110617000Y-88464508D01*
X110617001Y-88464518D01*
X110617000Y-89739262D01*
X110612700Y-89782922D01*
X110617000Y-89826582D01*
X110617000Y-89826588D01*
X110625807Y-89916000D01*
X110629864Y-89957196D01*
X110633930Y-89970599D01*
X110680697Y-90124772D01*
X110763247Y-90279212D01*
X110874341Y-90414581D01*
X110908264Y-90442421D01*
X111579580Y-91113737D01*
X111607420Y-91147660D01*
X111742788Y-91258754D01*
X111897228Y-91341304D01*
X111927300Y-91350426D01*
X112064803Y-91392137D01*
X112098003Y-91395407D01*
X112195412Y-91405001D01*
X112195418Y-91405001D01*
X112239078Y-91409301D01*
X112282738Y-91405001D01*
X113846000Y-91405001D01*
X113846000Y-91522240D01*
X113878089Y-91683560D01*
X113921000Y-91787157D01*
X113921000Y-91858332D01*
X113921001Y-91858342D01*
X113921000Y-93763332D01*
X113921001Y-93763342D01*
X113921000Y-97014677D01*
X113917324Y-97052000D01*
X113921000Y-97089322D01*
X113921000Y-97089332D01*
X113931997Y-97200985D01*
X113970489Y-97327878D01*
X113975454Y-97344246D01*
X114046026Y-97476276D01*
X114077992Y-97515226D01*
X114140999Y-97592001D01*
X114170003Y-97615804D01*
X115263498Y-98709300D01*
X113490027Y-98709300D01*
X113432986Y-98691997D01*
X113321333Y-98681000D01*
X113321322Y-98681000D01*
X113284000Y-98677324D01*
X113246678Y-98681000D01*
X112742157Y-98681000D01*
X112638560Y-98638089D01*
X112477240Y-98606000D01*
X112312760Y-98606000D01*
X112151440Y-98638089D01*
X111999479Y-98701033D01*
X111862719Y-98792413D01*
X111746413Y-98908719D01*
X111655033Y-99045479D01*
X111592089Y-99197440D01*
X111560000Y-99358760D01*
X111560000Y-99523240D01*
X111592089Y-99684560D01*
X111655033Y-99836521D01*
X111746413Y-99973281D01*
X111862719Y-100089587D01*
X111999479Y-100180967D01*
X112151440Y-100243911D01*
X112312760Y-100276000D01*
X112449000Y-100276000D01*
X112449000Y-100285240D01*
X112481089Y-100446560D01*
X112544033Y-100598521D01*
X112635413Y-100735281D01*
X112751719Y-100851587D01*
X112888479Y-100942967D01*
X113040440Y-101005911D01*
X113201760Y-101038000D01*
X113366240Y-101038000D01*
X113409977Y-101029300D01*
X115910228Y-101029300D01*
X115910228Y-101107300D01*
X107010931Y-101107300D01*
X106686724Y-100783094D01*
X106720911Y-100700560D01*
X106753000Y-100539240D01*
X106753000Y-100374760D01*
X106720911Y-100213440D01*
X106657967Y-100061479D01*
X106566587Y-99924719D01*
X106450281Y-99808413D01*
X106313521Y-99717033D01*
X106161560Y-99654089D01*
X106000240Y-99622000D01*
X105835760Y-99622000D01*
X105674440Y-99654089D01*
X105522479Y-99717033D01*
X105385719Y-99808413D01*
X105269413Y-99924719D01*
X105178033Y-100061479D01*
X105115089Y-100213440D01*
X105083000Y-100374760D01*
X104081758Y-100374760D01*
X104038034Y-100154945D01*
X103891746Y-99801776D01*
X103679370Y-99483933D01*
X103409067Y-99213630D01*
X103091224Y-99001254D01*
X102738055Y-98854966D01*
X102363133Y-98780390D01*
X101980867Y-98780390D01*
X101605945Y-98854966D01*
X101252776Y-99001254D01*
X100934933Y-99213630D01*
X100664630Y-99483933D01*
X100452254Y-99801776D01*
X100305966Y-100154945D01*
X100231390Y-100529867D01*
X99990717Y-100529867D01*
X99880917Y-99540356D01*
X99847000Y-98480146D01*
X99847000Y-73849867D01*
X100231390Y-73849867D01*
X100231390Y-74232133D01*
X100305966Y-74607055D01*
X100452254Y-74960224D01*
X100664630Y-75278067D01*
X100934933Y-75548370D01*
X101252776Y-75760746D01*
X101605945Y-75907034D01*
X101980867Y-75981610D01*
X102363133Y-75981610D01*
X102738055Y-75907034D01*
X103091224Y-75760746D01*
X103409067Y-75548370D01*
X103679370Y-75278067D01*
X103891746Y-74960224D01*
X104038034Y-74607055D01*
X104112610Y-74232133D01*
X104112610Y-73866000D01*
X105933928Y-73866000D01*
X105946188Y-73990482D01*
X105982498Y-74110180D01*
X106041463Y-74220494D01*
X106120815Y-74317185D01*
X106217506Y-74396537D01*
X106327820Y-74455502D01*
X106447518Y-74491812D01*
X106572000Y-74504072D01*
X107156250Y-74501000D01*
X107315000Y-74342250D01*
X107315000Y-72898000D01*
X106095750Y-72898000D01*
X105937000Y-73056750D01*
X105933928Y-73866000D01*
X104112610Y-73866000D01*
X104112610Y-73849867D01*
X104038034Y-73474945D01*
X103891746Y-73121776D01*
X103679370Y-72803933D01*
X103409067Y-72533630D01*
X103091224Y-72321254D01*
X102738055Y-72174966D01*
X102363133Y-72100390D01*
X101980867Y-72100390D01*
X101605945Y-72174966D01*
X101252776Y-72321254D01*
X100934933Y-72533630D01*
X100664630Y-72803933D01*
X100452254Y-73121776D01*
X100305966Y-73474945D01*
X100231390Y-73849867D01*
X99847000Y-73849867D01*
X99847000Y-71676000D01*
X105933928Y-71676000D01*
X105937000Y-72485250D01*
X106095750Y-72644000D01*
X107315000Y-72644000D01*
X107315000Y-71199750D01*
X107569000Y-71199750D01*
X107569000Y-72644000D01*
X107589000Y-72644000D01*
X107589000Y-72898000D01*
X107569000Y-72898000D01*
X107569000Y-74342250D01*
X107727750Y-74501000D01*
X108312000Y-74504072D01*
X108436482Y-74491812D01*
X108556180Y-74455502D01*
X108666494Y-74396537D01*
X108763185Y-74317185D01*
X108842537Y-74220494D01*
X108901502Y-74110180D01*
X108914615Y-74066953D01*
X109141822Y-74253417D01*
X109403276Y-74393166D01*
X109686969Y-74479224D01*
X109982000Y-74508282D01*
X110277032Y-74479224D01*
X110560725Y-74393166D01*
X110822179Y-74253417D01*
X111051345Y-74065345D01*
X111239417Y-73836179D01*
X111379166Y-73574724D01*
X111465224Y-73291031D01*
X111487000Y-73069935D01*
X111487000Y-72472064D01*
X111465224Y-72250968D01*
X111379166Y-71967275D01*
X111239417Y-71705821D01*
X111051345Y-71476655D01*
X110822178Y-71288583D01*
X110560724Y-71148834D01*
X110277031Y-71062776D01*
X109982000Y-71033718D01*
X109686968Y-71062776D01*
X109403275Y-71148834D01*
X109141821Y-71288583D01*
X108914615Y-71475047D01*
X108901502Y-71431820D01*
X108842537Y-71321506D01*
X108763185Y-71224815D01*
X108666494Y-71145463D01*
X108556180Y-71086498D01*
X108436482Y-71050188D01*
X108312000Y-71037928D01*
X107727750Y-71041000D01*
X107569000Y-71199750D01*
X107315000Y-71199750D01*
X107156250Y-71041000D01*
X106572000Y-71037928D01*
X106447518Y-71050188D01*
X106327820Y-71086498D01*
X106217506Y-71145463D01*
X106120815Y-71224815D01*
X106041463Y-71321506D01*
X105982498Y-71431820D01*
X105946188Y-71551518D01*
X105933928Y-71676000D01*
X99847000Y-71676000D01*
X99847000Y-70898279D01*
X99885909Y-70501455D01*
X99991780Y-70150792D01*
X100163744Y-69827375D01*
X100395254Y-69543516D01*
X100677486Y-69310035D01*
X100999695Y-69135817D01*
X101349614Y-69027498D01*
X101744443Y-68986000D01*
X172814721Y-68986000D01*
X173211545Y-69024909D01*
G37*
X173211545Y-69024909D02*
X173562208Y-69130780D01*
X173885625Y-69302744D01*
X174169484Y-69534254D01*
X174402965Y-69816486D01*
X174577183Y-70138695D01*
X174685502Y-70488614D01*
X174727000Y-70883443D01*
X174727001Y-113378711D01*
X174688091Y-113775545D01*
X174582220Y-114126206D01*
X174410257Y-114449623D01*
X174178748Y-114733482D01*
X173896514Y-114966965D01*
X173574304Y-115141184D01*
X173224385Y-115249502D01*
X172829557Y-115291000D01*
X116682370Y-115291000D01*
X115084665Y-115216545D01*
X113516667Y-114994274D01*
X111976533Y-114625425D01*
X110477960Y-114113279D01*
X109034224Y-113462373D01*
X107658163Y-112678495D01*
X106361970Y-111768590D01*
X105157156Y-110740738D01*
X104054428Y-109604074D01*
X103063560Y-108368675D01*
X102193357Y-107045522D01*
X101867283Y-106430500D01*
X104700286Y-106430500D01*
X104700286Y-109350500D01*
X110691715Y-109350500D01*
X110691715Y-106430500D01*
X104700286Y-106430500D01*
X101867283Y-106430500D01*
X101451522Y-105646319D01*
X100844662Y-104183530D01*
X100378159Y-102670124D01*
X100056147Y-101119528D01*
X99990717Y-100529867D01*
X100231390Y-100529867D01*
X100231390Y-100912133D01*
X100305966Y-101287055D01*
X100452254Y-101640224D01*
X100664630Y-101958067D01*
X100934933Y-102228370D01*
X101252776Y-102440746D01*
X101605945Y-102587034D01*
X101980867Y-102661610D01*
X102363133Y-102661610D01*
X102738055Y-102587034D01*
X103091224Y-102440746D01*
X103409067Y-102228370D01*
X103679370Y-101958067D01*
X103891746Y-101640224D01*
X104038034Y-101287055D01*
X104112610Y-100912133D01*
X104112610Y-100529867D01*
X104081758Y-100374760D01*
X105083000Y-100374760D01*
X105083000Y-100539240D01*
X105115089Y-100700560D01*
X105156000Y-100799328D01*
X105156000Y-101054577D01*
X105152314Y-101092000D01*
X105156000Y-101129423D01*
X105156000Y-101129425D01*
X105167026Y-101241377D01*
X105210598Y-101385014D01*
X105237185Y-101434754D01*
X105281355Y-101517392D01*
X105317131Y-101560985D01*
X105376578Y-101633422D01*
X105405653Y-101657284D01*
X106130020Y-102381651D01*
X106153878Y-102410722D01*
X106269908Y-102505945D01*
X106402285Y-102576702D01*
X106545922Y-102620274D01*
X106657874Y-102631300D01*
X106657876Y-102631300D01*
X106695299Y-102634986D01*
X106732722Y-102631300D01*
X115910228Y-102631300D01*
X115910228Y-102944300D01*
X115922488Y-103068782D01*
X115922645Y-103069300D01*
X115922488Y-103069818D01*
X115910228Y-103194300D01*
X115910228Y-103744300D01*
X115922488Y-103868782D01*
X115958798Y-103988480D01*
X116017763Y-104098794D01*
X116097115Y-104195485D01*
X116193806Y-104274837D01*
X116304120Y-104333802D01*
X116423818Y-104370112D01*
X116548300Y-104382372D01*
X116625445Y-104382372D01*
X116640898Y-104433314D01*
X116640899Y-104433315D01*
X116711655Y-104565692D01*
X116740969Y-104601411D01*
X116806878Y-104681722D01*
X116835953Y-104705584D01*
X117348001Y-105217631D01*
X117348000Y-106134576D01*
X117344314Y-106172000D01*
X117348000Y-106209423D01*
X117348000Y-106209425D01*
X117359026Y-106321377D01*
X117402598Y-106465014D01*
X117426472Y-106509679D01*
X117473355Y-106597392D01*
X117500790Y-106630821D01*
X117568578Y-106713422D01*
X117597654Y-106737284D01*
X119048522Y-108188153D01*
X119072379Y-108217223D01*
X119101449Y-108241080D01*
X119188408Y-108312446D01*
X119248185Y-108344397D01*
X119320786Y-108383203D01*
X119464423Y-108426775D01*
X119576375Y-108437801D01*
X119576378Y-108437801D01*
X119613801Y-108441487D01*
X119651224Y-108437801D01*
X126072398Y-108437801D01*
X128000599Y-110366003D01*
X128024397Y-110395001D01*
X128140122Y-110489974D01*
X128272151Y-110560546D01*
X128415412Y-110604003D01*
X128527065Y-110615000D01*
X128527073Y-110615000D01*
X128564398Y-110618676D01*
X128601723Y-110615000D01*
X135195370Y-110615000D01*
X135101369Y-110709001D01*
X114326631Y-110709001D01*
X114319000Y-110701370D01*
X114319000Y-110642061D01*
X114279226Y-110442102D01*
X114201205Y-110253744D01*
X114087937Y-110084226D01*
X113943774Y-109940063D01*
X113774256Y-109826795D01*
X113585898Y-109748774D01*
X113385939Y-109709000D01*
X113182061Y-109709000D01*
X112982102Y-109748774D01*
X112793744Y-109826795D01*
X112624226Y-109940063D01*
X112480063Y-110084226D01*
X112366795Y-110253744D01*
X112288774Y-110442102D01*
X112249000Y-110642061D01*
X112249000Y-110845939D01*
X112288774Y-111045898D01*
X112313669Y-111106000D01*
X112293061Y-111106000D01*
X112093102Y-111145774D01*
X111904744Y-111223795D01*
X111735226Y-111337063D01*
X111591063Y-111481226D01*
X111477795Y-111650744D01*
X111399774Y-111839102D01*
X111360000Y-112039061D01*
X111360000Y-112242939D01*
X111399774Y-112442898D01*
X111477795Y-112631256D01*
X111591063Y-112800774D01*
X111735226Y-112944937D01*
X111904744Y-113058205D01*
X112093102Y-113136226D01*
X112293061Y-113176000D01*
X112496939Y-113176000D01*
X112696898Y-113136226D01*
X112885256Y-113058205D01*
X113054774Y-112944937D01*
X113096711Y-112903000D01*
X135725577Y-112903000D01*
X135763000Y-112906686D01*
X135800423Y-112903000D01*
X135800426Y-112903000D01*
X135912378Y-112891974D01*
X136056015Y-112848402D01*
X136188392Y-112777645D01*
X136304422Y-112682422D01*
X136328284Y-112653346D01*
X137094631Y-111887000D01*
X138094735Y-111887000D01*
X137960966Y-112209945D01*
X137886390Y-112584867D01*
X137886390Y-112967133D01*
X137960966Y-113342055D01*
X138107254Y-113695224D01*
X138319630Y-114013067D01*
X138589933Y-114283370D01*
X138907776Y-114495746D01*
X139260945Y-114642034D01*
X139635867Y-114716610D01*
X140018133Y-114716610D01*
X140393055Y-114642034D01*
X140746224Y-114495746D01*
X141064067Y-114283370D01*
X141334370Y-114013067D01*
X141546746Y-113695224D01*
X141693034Y-113342055D01*
X141767610Y-112967133D01*
X141767610Y-112584867D01*
X141693034Y-112209945D01*
X141559265Y-111887000D01*
X166332577Y-111887000D01*
X166370000Y-111890686D01*
X166407423Y-111887000D01*
X166407426Y-111887000D01*
X166519378Y-111875974D01*
X166663015Y-111832402D01*
X166795392Y-111761645D01*
X166911422Y-111666422D01*
X166935284Y-111637346D01*
X169162763Y-109409867D01*
X170271390Y-109409867D01*
X170271390Y-109792133D01*
X170345966Y-110167055D01*
X170492254Y-110520224D01*
X170704630Y-110838067D01*
X170974933Y-111108370D01*
X171292776Y-111320746D01*
X171645945Y-111467034D01*
X172020867Y-111541610D01*
X172403133Y-111541610D01*
X172778055Y-111467034D01*
X173131224Y-111320746D01*
X173449067Y-111108370D01*
X173719370Y-110838067D01*
X173931746Y-110520224D01*
X174078034Y-110167055D01*
X174152610Y-109792133D01*
X174152610Y-109409867D01*
X174078034Y-109034945D01*
X173931746Y-108681776D01*
X173719370Y-108363933D01*
X173449067Y-108093630D01*
X173131224Y-107881254D01*
X172778055Y-107734966D01*
X172403133Y-107660390D01*
X172020867Y-107660390D01*
X171645945Y-107734966D01*
X171292776Y-107881254D01*
X170974933Y-108093630D01*
X170704630Y-108363933D01*
X170492254Y-108681776D01*
X170345966Y-109034945D01*
X170271390Y-109409867D01*
X169162763Y-109409867D01*
X171997351Y-106575280D01*
X172026421Y-106551423D01*
X172075131Y-106492070D01*
X172121644Y-106435394D01*
X172159464Y-106364637D01*
X172192401Y-106303016D01*
X172235973Y-106159379D01*
X172246999Y-106047427D01*
X172246999Y-106047424D01*
X172250685Y-106010001D01*
X172246999Y-105972578D01*
X172246999Y-95957421D01*
X172250685Y-95919998D01*
X172246999Y-95882573D01*
X172235973Y-95770621D01*
X172192401Y-95626984D01*
X172121644Y-95494607D01*
X172026421Y-95378577D01*
X171997352Y-95354721D01*
X170872284Y-94229654D01*
X170848422Y-94200578D01*
X170732392Y-94105355D01*
X170600015Y-94034598D01*
X170456378Y-93991026D01*
X170344426Y-93980000D01*
X170344423Y-93980000D01*
X170307000Y-93976314D01*
X170269577Y-93980000D01*
X168781000Y-93980000D01*
X168781000Y-85150801D01*
X169328923Y-84602878D01*
X169432521Y-84559967D01*
X169569281Y-84468587D01*
X169685587Y-84352281D01*
X169776967Y-84215521D01*
X169839911Y-84063560D01*
X169872000Y-83902240D01*
X169872000Y-83737760D01*
X169839911Y-83576440D01*
X169776967Y-83424479D01*
X169685587Y-83287719D01*
X169569281Y-83171413D01*
X169432521Y-83080033D01*
X169280560Y-83017089D01*
X169119240Y-82985000D01*
X168954760Y-82985000D01*
X168793440Y-83017089D01*
X168641479Y-83080033D01*
X168504719Y-83171413D01*
X168388413Y-83287719D01*
X168297033Y-83424479D01*
X168254122Y-83528077D01*
X167510002Y-84272196D01*
X167480999Y-84295999D01*
X167438729Y-84347506D01*
X167386026Y-84411724D01*
X167333910Y-84509225D01*
X167315454Y-84543754D01*
X167271997Y-84687015D01*
X167261000Y-84798668D01*
X167261000Y-84798678D01*
X167257324Y-84836000D01*
X167261000Y-84873322D01*
X167261001Y-94684257D01*
X167255314Y-94742000D01*
X167270026Y-94891378D01*
X167313598Y-95035015D01*
X167384355Y-95167392D01*
X167479578Y-95283422D01*
X167595608Y-95378645D01*
X167727985Y-95449402D01*
X167871622Y-95492974D01*
X167983574Y-95504000D01*
X168003973Y-95504000D01*
X168021000Y-95505677D01*
X168038027Y-95504000D01*
X169991370Y-95504000D01*
X170722999Y-96235630D01*
X170723000Y-105694369D01*
X166054370Y-110363000D01*
X152180325Y-110363000D01*
X152228379Y-110291082D01*
X152306400Y-110102724D01*
X152346174Y-109902765D01*
X152346174Y-109698887D01*
X152306400Y-109498928D01*
X152228379Y-109310570D01*
X152115111Y-109141052D01*
X151970948Y-108996889D01*
X151801430Y-108883621D01*
X151695895Y-108839907D01*
X158245004Y-102290798D01*
X158274001Y-102267001D01*
X158368974Y-102151276D01*
X158439546Y-102019247D01*
X158483003Y-101875986D01*
X158494000Y-101764333D01*
X158494000Y-101764323D01*
X158497676Y-101727000D01*
X158494000Y-101689677D01*
X158494000Y-97342801D01*
X165103004Y-90733798D01*
X165132001Y-90710001D01*
X165226974Y-90594276D01*
X165297546Y-90462247D01*
X165341003Y-90318986D01*
X165352000Y-90207333D01*
X165352000Y-90207332D01*
X165355677Y-90170000D01*
X165352000Y-90132667D01*
X165352000Y-77908733D01*
X165354000Y-77888426D01*
X165354000Y-76034328D01*
X165394911Y-75935560D01*
X165427000Y-75774240D01*
X165427000Y-75609760D01*
X165394911Y-75448440D01*
X165331967Y-75296479D01*
X165240587Y-75159719D01*
X165124281Y-75043413D01*
X164987521Y-74952033D01*
X164835560Y-74889089D01*
X164674240Y-74857000D01*
X164535999Y-74857000D01*
X164535999Y-74151321D01*
X164539675Y-74113998D01*
X164535999Y-74076675D01*
X164535999Y-74076666D01*
X164525002Y-73965013D01*
X164490074Y-73849867D01*
X170271390Y-73849867D01*
X170271390Y-74232133D01*
X170345966Y-74607055D01*
X170492254Y-74960224D01*
X170704630Y-75278067D01*
X170974933Y-75548370D01*
X171292776Y-75760746D01*
X171645945Y-75907034D01*
X172020867Y-75981610D01*
X172403133Y-75981610D01*
X172778055Y-75907034D01*
X173131224Y-75760746D01*
X173449067Y-75548370D01*
X173719370Y-75278067D01*
X173931746Y-74960224D01*
X174078034Y-74607055D01*
X174152610Y-74232133D01*
X174152610Y-73849867D01*
X174078034Y-73474945D01*
X173931746Y-73121776D01*
X173719370Y-72803933D01*
X173449067Y-72533630D01*
X173131224Y-72321254D01*
X172778055Y-72174966D01*
X172403133Y-72100390D01*
X172020867Y-72100390D01*
X171645945Y-72174966D01*
X171292776Y-72321254D01*
X170974933Y-72533630D01*
X170704630Y-72803933D01*
X170492254Y-73121776D01*
X170345966Y-73474945D01*
X170271390Y-73849867D01*
X164490074Y-73849867D01*
X164481545Y-73821752D01*
X164410973Y-73689723D01*
X164362365Y-73630494D01*
X164315967Y-73518479D01*
X164224587Y-73381719D01*
X164108281Y-73265413D01*
X163971521Y-73174033D01*
X163819560Y-73111089D01*
X163658240Y-73079000D01*
X163493760Y-73079000D01*
X163332440Y-73111089D01*
X163180479Y-73174033D01*
X163043719Y-73265413D01*
X162927413Y-73381719D01*
X162836033Y-73518479D01*
X162773089Y-73670440D01*
X162741000Y-73831760D01*
X162741000Y-73996240D01*
X162773089Y-74157560D01*
X162836033Y-74309521D01*
X162927413Y-74446281D01*
X163016000Y-74534868D01*
X163016000Y-76728393D01*
X162973001Y-76675999D01*
X162970255Y-76673745D01*
X162968001Y-76670999D01*
X162852276Y-76576026D01*
X162720247Y-76505454D01*
X162576986Y-76461997D01*
X162465333Y-76451000D01*
X162465322Y-76451000D01*
X162428000Y-76447324D01*
X162390678Y-76451000D01*
X156370072Y-76451000D01*
X156370072Y-76211000D01*
X156357812Y-76086518D01*
X156321502Y-75966820D01*
X156262537Y-75856506D01*
X156183185Y-75759815D01*
X156086494Y-75680463D01*
X155976180Y-75621498D01*
X155856482Y-75585188D01*
X155732000Y-75572928D01*
X154232000Y-75572928D01*
X154107518Y-75585188D01*
X153987820Y-75621498D01*
X153877506Y-75680463D01*
X153832000Y-75717809D01*
X153786494Y-75680463D01*
X153676180Y-75621498D01*
X153556482Y-75585188D01*
X153432000Y-75572928D01*
X151932000Y-75572928D01*
X151807518Y-75585188D01*
X151687820Y-75621498D01*
X151577506Y-75680463D01*
X151532000Y-75717809D01*
X151486494Y-75680463D01*
X151376180Y-75621498D01*
X151256482Y-75585188D01*
X151132000Y-75572928D01*
X150667750Y-75576000D01*
X150509000Y-75734750D01*
X150509000Y-77084000D01*
X150529000Y-77084000D01*
X150529000Y-77338000D01*
X150509000Y-77338000D01*
X150509000Y-77358000D01*
X150255000Y-77358000D01*
X150255000Y-77338000D01*
X149155750Y-77338000D01*
X148997000Y-77496750D01*
X148995799Y-77776001D01*
X141892421Y-77776001D01*
X141854998Y-77772315D01*
X141817575Y-77776001D01*
X141817573Y-77776001D01*
X141705621Y-77787027D01*
X141561984Y-77830599D01*
X141429607Y-77901356D01*
X141313577Y-77996579D01*
X141289715Y-78025655D01*
X141038442Y-78276928D01*
X140857999Y-78276928D01*
X140684745Y-78293992D01*
X140518149Y-78344528D01*
X140364613Y-78426595D01*
X140230038Y-78537038D01*
X140119595Y-78671613D01*
X140037528Y-78825149D01*
X139986992Y-78991745D01*
X139969928Y-79164999D01*
X139969928Y-80855001D01*
X139986992Y-81028255D01*
X140037528Y-81194851D01*
X140119595Y-81348387D01*
X140230038Y-81482962D01*
X140364613Y-81593405D01*
X140518149Y-81675472D01*
X140684745Y-81726008D01*
X140857999Y-81743072D01*
X142098001Y-81743072D01*
X142271255Y-81726008D01*
X142437851Y-81675472D01*
X142591387Y-81593405D01*
X142725962Y-81482962D01*
X142836405Y-81348387D01*
X142894934Y-81238886D01*
X142948655Y-81304345D01*
X143177822Y-81492417D01*
X143439276Y-81632166D01*
X143722969Y-81718224D01*
X144018000Y-81747282D01*
X144313032Y-81718224D01*
X144596725Y-81632166D01*
X144858179Y-81492417D01*
X145087345Y-81304345D01*
X145275417Y-81075179D01*
X145288000Y-81051638D01*
X145300583Y-81075179D01*
X145488655Y-81304345D01*
X145717822Y-81492417D01*
X145979276Y-81632166D01*
X146262969Y-81718224D01*
X146558000Y-81747282D01*
X146853032Y-81718224D01*
X147136725Y-81632166D01*
X147398179Y-81492417D01*
X147627345Y-81304345D01*
X147815417Y-81075179D01*
X147955166Y-80813724D01*
X148041224Y-80530031D01*
X148063000Y-80308935D01*
X148063000Y-79711064D01*
X148041224Y-79489968D01*
X147983598Y-79300001D01*
X152571576Y-79300001D01*
X152608999Y-79303687D01*
X152646422Y-79300001D01*
X152646425Y-79300001D01*
X152758377Y-79288975D01*
X152902014Y-79245403D01*
X153034391Y-79174646D01*
X153150421Y-79079423D01*
X153174283Y-79050347D01*
X153194346Y-79030284D01*
X153223422Y-79006422D01*
X153318645Y-78890392D01*
X153340731Y-78849072D01*
X153432000Y-78849072D01*
X153556482Y-78836812D01*
X153676180Y-78800502D01*
X153786494Y-78741537D01*
X153832000Y-78704191D01*
X153877506Y-78741537D01*
X153987820Y-78800502D01*
X154107518Y-78836812D01*
X154232000Y-78849072D01*
X155732000Y-78849072D01*
X155856482Y-78836812D01*
X155976180Y-78800502D01*
X156086494Y-78741537D01*
X156183185Y-78662185D01*
X156262537Y-78565494D01*
X156321502Y-78455180D01*
X156357812Y-78335482D01*
X156370072Y-78211000D01*
X156370072Y-77971000D01*
X161673000Y-77971000D01*
X161673001Y-79027841D01*
X161630089Y-79131440D01*
X161598000Y-79292760D01*
X161598000Y-79457240D01*
X161630089Y-79618560D01*
X161693033Y-79770521D01*
X161784413Y-79907281D01*
X161900719Y-80023587D01*
X162037479Y-80114967D01*
X162189440Y-80177911D01*
X162350760Y-80210000D01*
X162515240Y-80210000D01*
X162676560Y-80177911D01*
X162828521Y-80114967D01*
X162965281Y-80023587D01*
X163015999Y-79972869D01*
X163015999Y-82670199D01*
X150066002Y-95620197D01*
X150036998Y-95644000D01*
X150008453Y-95678783D01*
X149942025Y-95759725D01*
X149892928Y-95851578D01*
X149871453Y-95891755D01*
X149827996Y-96035016D01*
X149816999Y-96146669D01*
X149816999Y-96146679D01*
X149813323Y-96184001D01*
X149816999Y-96221324D01*
X149816999Y-97192928D01*
X148602000Y-97192928D01*
X148477518Y-97205188D01*
X148357820Y-97241498D01*
X148247506Y-97300463D01*
X148202000Y-97337809D01*
X148156494Y-97300463D01*
X148046180Y-97241498D01*
X147926482Y-97205188D01*
X147802000Y-97192928D01*
X146302000Y-97192928D01*
X146177518Y-97205188D01*
X146057820Y-97241498D01*
X145947506Y-97300463D01*
X145850815Y-97379815D01*
X145771463Y-97476506D01*
X145712498Y-97586820D01*
X145676188Y-97706518D01*
X145663928Y-97831000D01*
X145663928Y-98005312D01*
X145658560Y-98003089D01*
X145497240Y-97971000D01*
X145332760Y-97971000D01*
X145171440Y-98003089D01*
X145019479Y-98066033D01*
X144882719Y-98157413D01*
X144766413Y-98273719D01*
X144675033Y-98410479D01*
X144612089Y-98562440D01*
X144580000Y-98723760D01*
X144580000Y-98888240D01*
X144612089Y-99049560D01*
X144675033Y-99201521D01*
X144766413Y-99338281D01*
X144882719Y-99454587D01*
X145019479Y-99545967D01*
X145171440Y-99608911D01*
X145332760Y-99641000D01*
X145497240Y-99641000D01*
X145658560Y-99608911D01*
X145663928Y-99606688D01*
X145663928Y-99831000D01*
X145676188Y-99955482D01*
X145712498Y-100075180D01*
X145771463Y-100185494D01*
X145850815Y-100282185D01*
X145947506Y-100361537D01*
X146057820Y-100420502D01*
X146177518Y-100456812D01*
X146302000Y-100469072D01*
X146479539Y-100469072D01*
X146451774Y-100536102D01*
X146412000Y-100736061D01*
X146412000Y-100939939D01*
X146451774Y-101139898D01*
X146529795Y-101328256D01*
X146643063Y-101497774D01*
X146685000Y-101539711D01*
X146685000Y-101792369D01*
X146570070Y-101907300D01*
X145511276Y-101907300D01*
X145490969Y-101909300D01*
X131010000Y-101909300D01*
X131010000Y-101771760D01*
X130977911Y-101610440D01*
X130914967Y-101458479D01*
X130823587Y-101321719D01*
X130707281Y-101205413D01*
X130570521Y-101114033D01*
X130418560Y-101051089D01*
X130257240Y-101019000D01*
X130092760Y-101019000D01*
X129931440Y-101051089D01*
X129832672Y-101092000D01*
X127949502Y-101092000D01*
X130838859Y-98063020D01*
X140405557Y-98063020D01*
X140442980Y-98066706D01*
X140480403Y-98063020D01*
X140480406Y-98063020D01*
X140592358Y-98051994D01*
X140735995Y-98008422D01*
X140868372Y-97937665D01*
X140984402Y-97842442D01*
X141008264Y-97813367D01*
X141539631Y-97282000D01*
X143443289Y-97282000D01*
X143485226Y-97323937D01*
X143654744Y-97437205D01*
X143843102Y-97515226D01*
X144043061Y-97555000D01*
X144246939Y-97555000D01*
X144446898Y-97515226D01*
X144635256Y-97437205D01*
X144804774Y-97323937D01*
X144948937Y-97179774D01*
X145062205Y-97010256D01*
X145140226Y-96821898D01*
X145180000Y-96621939D01*
X145180000Y-96418061D01*
X145140226Y-96218102D01*
X145062205Y-96029744D01*
X144948937Y-95860226D01*
X144804774Y-95716063D01*
X144635256Y-95602795D01*
X144446898Y-95524774D01*
X144246939Y-95485000D01*
X144043061Y-95485000D01*
X143843102Y-95524774D01*
X143654744Y-95602795D01*
X143485226Y-95716063D01*
X143443289Y-95758000D01*
X142047631Y-95758000D01*
X142663753Y-95141878D01*
X142762521Y-95100967D01*
X142899281Y-95009587D01*
X143015587Y-94893281D01*
X143106967Y-94756521D01*
X143169911Y-94604560D01*
X143202000Y-94443240D01*
X143202000Y-94278760D01*
X143169911Y-94117440D01*
X143106967Y-93965479D01*
X143015587Y-93828719D01*
X142899281Y-93712413D01*
X142762521Y-93621033D01*
X142610560Y-93558089D01*
X142449240Y-93526000D01*
X142284760Y-93526000D01*
X142123440Y-93558089D01*
X141971479Y-93621033D01*
X141834719Y-93712413D01*
X141732000Y-93815132D01*
X141629281Y-93712413D01*
X141492521Y-93621033D01*
X141340560Y-93558089D01*
X141179240Y-93526000D01*
X141014760Y-93526000D01*
X140853440Y-93558089D01*
X140701479Y-93621033D01*
X140564719Y-93712413D01*
X140462000Y-93815132D01*
X140359281Y-93712413D01*
X140222521Y-93621033D01*
X140070560Y-93558089D01*
X139909240Y-93526000D01*
X139744760Y-93526000D01*
X139583440Y-93558089D01*
X139431479Y-93621033D01*
X139294719Y-93712413D01*
X139192000Y-93815132D01*
X139089281Y-93712413D01*
X138952521Y-93621033D01*
X138800560Y-93558089D01*
X138639240Y-93526000D01*
X138474760Y-93526000D01*
X138313440Y-93558089D01*
X138161479Y-93621033D01*
X138024719Y-93712413D01*
X137922000Y-93815132D01*
X137819281Y-93712413D01*
X137682521Y-93621033D01*
X137530560Y-93558089D01*
X137369240Y-93526000D01*
X137204760Y-93526000D01*
X137043440Y-93558089D01*
X136891479Y-93621033D01*
X136754719Y-93712413D01*
X136652000Y-93815132D01*
X136549281Y-93712413D01*
X136412521Y-93621033D01*
X136260560Y-93558089D01*
X136099240Y-93526000D01*
X135934760Y-93526000D01*
X135773440Y-93558089D01*
X135621479Y-93621033D01*
X135484719Y-93712413D01*
X135398133Y-93798999D01*
X133796162Y-93798999D01*
X133817000Y-93694240D01*
X133817000Y-93529760D01*
X133784911Y-93368440D01*
X133744000Y-93269672D01*
X133744000Y-92303328D01*
X133784911Y-92204560D01*
X133817000Y-92043240D01*
X133817000Y-91878760D01*
X133784911Y-91717440D01*
X133721967Y-91565479D01*
X133638125Y-91440000D01*
X138548975Y-91440000D01*
X138586398Y-91443686D01*
X138623821Y-91440000D01*
X138623824Y-91440000D01*
X138735776Y-91428974D01*
X138879413Y-91385402D01*
X139011790Y-91314645D01*
X139127820Y-91219422D01*
X139151682Y-91190346D01*
X139215324Y-91126705D01*
X139216188Y-91135482D01*
X139252498Y-91255180D01*
X139311463Y-91365494D01*
X139390815Y-91462185D01*
X139487506Y-91541537D01*
X139597820Y-91600502D01*
X139717518Y-91636812D01*
X139842000Y-91649072D01*
X141131250Y-91646000D01*
X141290000Y-91487250D01*
X141290000Y-90638000D01*
X141544000Y-90638000D01*
X141544000Y-91487250D01*
X141702750Y-91646000D01*
X142992000Y-91649072D01*
X143116482Y-91636812D01*
X143236180Y-91600502D01*
X143346494Y-91541537D01*
X143443185Y-91462185D01*
X143522537Y-91365494D01*
X143581502Y-91255180D01*
X143617812Y-91135482D01*
X143630072Y-91011000D01*
X143627000Y-90796750D01*
X143468250Y-90638000D01*
X141544000Y-90638000D01*
X141290000Y-90638000D01*
X141270000Y-90638000D01*
X141270000Y-90384000D01*
X141290000Y-90384000D01*
X141290000Y-90364000D01*
X141544000Y-90364000D01*
X141544000Y-90384000D01*
X143468250Y-90384000D01*
X143553751Y-90298499D01*
X144253928Y-90298499D01*
X144253928Y-91011000D01*
X144266188Y-91135482D01*
X144302498Y-91255180D01*
X144361463Y-91365494D01*
X144440815Y-91462185D01*
X144537506Y-91541537D01*
X144647820Y-91600502D01*
X144767518Y-91636812D01*
X144892000Y-91649072D01*
X148042000Y-91649072D01*
X148166482Y-91636812D01*
X148286180Y-91600502D01*
X148396494Y-91541537D01*
X148493185Y-91462185D01*
X148572537Y-91365494D01*
X148621977Y-91273000D01*
X149816789Y-91273000D01*
X149898726Y-91354937D01*
X150068244Y-91468205D01*
X150256602Y-91546226D01*
X150456561Y-91586000D01*
X150660439Y-91586000D01*
X150860398Y-91546226D01*
X151048756Y-91468205D01*
X151218274Y-91354937D01*
X151362437Y-91210774D01*
X151475705Y-91041256D01*
X151553726Y-90852898D01*
X151593500Y-90652939D01*
X151593500Y-90449061D01*
X151553726Y-90249102D01*
X151475705Y-90060744D01*
X151362437Y-89891226D01*
X151340618Y-89869407D01*
X151352807Y-89487544D01*
X151354000Y-89475426D01*
X151354000Y-89450155D01*
X151354806Y-89424904D01*
X151354000Y-89412759D01*
X151354000Y-86783328D01*
X151394911Y-86684560D01*
X151427000Y-86523240D01*
X151427000Y-86358760D01*
X151394911Y-86197440D01*
X151331967Y-86045479D01*
X151240587Y-85908719D01*
X151124281Y-85792413D01*
X150987521Y-85701033D01*
X150835560Y-85638089D01*
X150674240Y-85606000D01*
X150509760Y-85606000D01*
X150348440Y-85638089D01*
X150196479Y-85701033D01*
X150059719Y-85792413D01*
X149943413Y-85908719D01*
X149852033Y-86045479D01*
X149789089Y-86197440D01*
X149757000Y-86358760D01*
X149757000Y-86523240D01*
X149789089Y-86684560D01*
X149830001Y-86783331D01*
X149830000Y-88252425D01*
X149830001Y-88252435D01*
X149830000Y-89425842D01*
X149819685Y-89749000D01*
X148621977Y-89749000D01*
X148572537Y-89656506D01*
X148493185Y-89559815D01*
X148396494Y-89480463D01*
X148286180Y-89421498D01*
X148166482Y-89385188D01*
X148042000Y-89372928D01*
X146019871Y-89372928D01*
X146283728Y-89109072D01*
X148042000Y-89109072D01*
X148166482Y-89096812D01*
X148286180Y-89060502D01*
X148396494Y-89001537D01*
X148493185Y-88922185D01*
X148572537Y-88825494D01*
X148631502Y-88715180D01*
X148667812Y-88595482D01*
X148680072Y-88471000D01*
X148680072Y-87471000D01*
X148667812Y-87346518D01*
X148631502Y-87226820D01*
X148572537Y-87116506D01*
X148493185Y-87019815D01*
X148396494Y-86940463D01*
X148286180Y-86881498D01*
X148166482Y-86845188D01*
X148042000Y-86832928D01*
X144892000Y-86832928D01*
X144767518Y-86845188D01*
X144647820Y-86881498D01*
X144583991Y-86915616D01*
X144583991Y-86563810D01*
X144634447Y-86513354D01*
X144647820Y-86520502D01*
X144767518Y-86556812D01*
X144892000Y-86569072D01*
X148042000Y-86569072D01*
X148166482Y-86556812D01*
X148286180Y-86520502D01*
X148396494Y-86461537D01*
X148493185Y-86382185D01*
X148572537Y-86285494D01*
X148631502Y-86175180D01*
X148667812Y-86055482D01*
X148680072Y-85931000D01*
X148680072Y-84931000D01*
X148667812Y-84806518D01*
X148631502Y-84686820D01*
X148572537Y-84576506D01*
X148493185Y-84479815D01*
X148396494Y-84400463D01*
X148286180Y-84341498D01*
X148166482Y-84305188D01*
X148042000Y-84292928D01*
X144892000Y-84292928D01*
X144767518Y-84305188D01*
X144647820Y-84341498D01*
X144537506Y-84400463D01*
X144469568Y-84456218D01*
X144454726Y-84381602D01*
X144376705Y-84193244D01*
X144263437Y-84023726D01*
X144119274Y-83879563D01*
X143949756Y-83766295D01*
X143761398Y-83688274D01*
X143561439Y-83648500D01*
X143357561Y-83648500D01*
X143157602Y-83688274D01*
X142969244Y-83766295D01*
X142927032Y-83794500D01*
X142208160Y-83794500D01*
X142164500Y-83790200D01*
X142120840Y-83794500D01*
X142120833Y-83794500D01*
X142006825Y-83805729D01*
X141990225Y-83807364D01*
X141964568Y-83815147D01*
X141822649Y-83858197D01*
X141668209Y-83940747D01*
X141621902Y-83978750D01*
X141574307Y-84017811D01*
X141532841Y-84051841D01*
X141505005Y-84085759D01*
X141297836Y-84292928D01*
X139842000Y-84292928D01*
X139717518Y-84305188D01*
X139597820Y-84341498D01*
X139487506Y-84400463D01*
X139390815Y-84479815D01*
X139311463Y-84576506D01*
X139266545Y-84660540D01*
X139214709Y-84688247D01*
X139183433Y-84713915D01*
X139133689Y-84754739D01*
X139079341Y-84799341D01*
X139051506Y-84833258D01*
X137225406Y-86659359D01*
X137212502Y-86616820D01*
X137153537Y-86506506D01*
X137074185Y-86409815D01*
X136977494Y-86330463D01*
X136867180Y-86271498D01*
X136747482Y-86235188D01*
X136623000Y-86222928D01*
X134351000Y-86222928D01*
X134351000Y-85341495D01*
X134420506Y-85398537D01*
X134530820Y-85457502D01*
X134650518Y-85493812D01*
X134775000Y-85506072D01*
X135526750Y-85503000D01*
X135685500Y-85344250D01*
X135685500Y-83820000D01*
X135939500Y-83820000D01*
X135939500Y-85344250D01*
X136098250Y-85503000D01*
X136850000Y-85506072D01*
X136974482Y-85493812D01*
X137094180Y-85457502D01*
X137204494Y-85398537D01*
X137301185Y-85319185D01*
X137380537Y-85222494D01*
X137439502Y-85112180D01*
X137475812Y-84992482D01*
X137488072Y-84868000D01*
X137485000Y-83978750D01*
X137326250Y-83820000D01*
X135939500Y-83820000D01*
X135685500Y-83820000D01*
X135665500Y-83820000D01*
X135665500Y-83566000D01*
X135685500Y-83566000D01*
X135685500Y-83546000D01*
X135939500Y-83546000D01*
X135939500Y-83566000D01*
X137326250Y-83566000D01*
X137485000Y-83407250D01*
X137488072Y-82518000D01*
X137475812Y-82393518D01*
X137439502Y-82273820D01*
X137380537Y-82163506D01*
X137301185Y-82066815D01*
X137204494Y-81987463D01*
X137094180Y-81928498D01*
X136974482Y-81892188D01*
X136850000Y-81879928D01*
X136098250Y-81883000D01*
X135939502Y-82041748D01*
X135939502Y-82019502D01*
X140622511Y-77244119D01*
X140752156Y-77114474D01*
X140781232Y-77090612D01*
X140876455Y-76974582D01*
X140947212Y-76842205D01*
X140990784Y-76698568D01*
X141001810Y-76586616D01*
X141001810Y-76586614D01*
X141005496Y-76549191D01*
X141001810Y-76511768D01*
X141001810Y-76211000D01*
X148993928Y-76211000D01*
X148997000Y-76925250D01*
X149155750Y-77084000D01*
X150255000Y-77084000D01*
X150255000Y-75734750D01*
X150096250Y-75576000D01*
X149632000Y-75572928D01*
X149507518Y-75585188D01*
X149387820Y-75621498D01*
X149277506Y-75680463D01*
X149180815Y-75759815D01*
X149101463Y-75856506D01*
X149042498Y-75966820D01*
X149006188Y-76086518D01*
X148993928Y-76211000D01*
X141001810Y-76211000D01*
X141001810Y-74627455D01*
X141004076Y-74628666D01*
X141287769Y-74714724D01*
X141582800Y-74743782D01*
X141877832Y-74714724D01*
X142161525Y-74628666D01*
X142422979Y-74488917D01*
X142652145Y-74300845D01*
X142840217Y-74071679D01*
X142852800Y-74048138D01*
X142865383Y-74071679D01*
X143053455Y-74300845D01*
X143282622Y-74488917D01*
X143544076Y-74628666D01*
X143827769Y-74714724D01*
X144122800Y-74743782D01*
X144417832Y-74714724D01*
X144701525Y-74628666D01*
X144962979Y-74488917D01*
X145192145Y-74300845D01*
X145380217Y-74071679D01*
X145392800Y-74048138D01*
X145405383Y-74071679D01*
X145593455Y-74300845D01*
X145822622Y-74488917D01*
X146084076Y-74628666D01*
X146367769Y-74714724D01*
X146662800Y-74743782D01*
X146957832Y-74714724D01*
X147241525Y-74628666D01*
X147502979Y-74488917D01*
X147732145Y-74300845D01*
X147920217Y-74071679D01*
X148059966Y-73810224D01*
X148146024Y-73526531D01*
X148167800Y-73305435D01*
X148167800Y-72918430D01*
X149309148Y-74059779D01*
X149319999Y-74073001D01*
X149333221Y-74083852D01*
X149347648Y-74098279D01*
X149434607Y-74169644D01*
X149566983Y-74240401D01*
X149710621Y-74283973D01*
X149859999Y-74298686D01*
X149917728Y-74293000D01*
X157188678Y-74293000D01*
X157226000Y-74296676D01*
X157263322Y-74293000D01*
X157263333Y-74293000D01*
X157374986Y-74282003D01*
X157518247Y-74238546D01*
X157650276Y-74167974D01*
X157766001Y-74073001D01*
X157789804Y-74043998D01*
X158281802Y-73552000D01*
X158343939Y-73552000D01*
X158543898Y-73512226D01*
X158732256Y-73434205D01*
X158901774Y-73320937D01*
X159045937Y-73176774D01*
X159159205Y-73007256D01*
X159237226Y-72818898D01*
X159277000Y-72618939D01*
X159277000Y-72415061D01*
X159237226Y-72215102D01*
X159159205Y-72026744D01*
X159045937Y-71857226D01*
X158901774Y-71713063D01*
X158732256Y-71599795D01*
X158543898Y-71521774D01*
X158343939Y-71482000D01*
X158140061Y-71482000D01*
X157940102Y-71521774D01*
X157751744Y-71599795D01*
X157582226Y-71713063D01*
X157438063Y-71857226D01*
X157324795Y-72026744D01*
X157246774Y-72215102D01*
X157207000Y-72415061D01*
X157207000Y-72477198D01*
X156911199Y-72773000D01*
X150177631Y-72773000D01*
X148476774Y-71072144D01*
X148452912Y-71043068D01*
X148336882Y-70947845D01*
X148204505Y-70877088D01*
X148060868Y-70833516D01*
X147948916Y-70822490D01*
X147948913Y-70822490D01*
X147911490Y-70818804D01*
X147874067Y-70822490D01*
X140669933Y-70822490D01*
X140632510Y-70818804D01*
X140595087Y-70822490D01*
X140595084Y-70822490D01*
X140483132Y-70833516D01*
X140339495Y-70877088D01*
X140207118Y-70947845D01*
X140091088Y-71043068D01*
X140067222Y-71072149D01*
X139865695Y-71273676D01*
X139328550Y-71276500D01*
X139169800Y-71435250D01*
X139169800Y-72879500D01*
X139189800Y-72879500D01*
X139189800Y-73133500D01*
X139169800Y-73133500D01*
X139169800Y-74577750D01*
X139328550Y-74736500D01*
X139477811Y-74737285D01*
X139477811Y-76234776D01*
X137149589Y-78608923D01*
X137120387Y-78565219D01*
X137004081Y-78448913D01*
X136867321Y-78357533D01*
X136715360Y-78294589D01*
X136554040Y-78262500D01*
X136389560Y-78262500D01*
X136341801Y-78272000D01*
X135979072Y-78272000D01*
X135979072Y-78030000D01*
X135966812Y-77905518D01*
X135930502Y-77785820D01*
X135871537Y-77675506D01*
X135792185Y-77578815D01*
X135695494Y-77499463D01*
X135585180Y-77440498D01*
X135465482Y-77404188D01*
X135341000Y-77391928D01*
X134141000Y-77391928D01*
X134016518Y-77404188D01*
X133896820Y-77440498D01*
X133786506Y-77499463D01*
X133689815Y-77578815D01*
X133610463Y-77675506D01*
X133601000Y-77693210D01*
X133591537Y-77675506D01*
X133512185Y-77578815D01*
X133477000Y-77549940D01*
X133477000Y-76668072D01*
X135361000Y-76668072D01*
X135485482Y-76655812D01*
X135605180Y-76619502D01*
X135715494Y-76560537D01*
X135812185Y-76481185D01*
X135891537Y-76384494D01*
X135950502Y-76274180D01*
X135986812Y-76154482D01*
X135999072Y-76030000D01*
X135999072Y-74101500D01*
X137534728Y-74101500D01*
X137546988Y-74225982D01*
X137583298Y-74345680D01*
X137642263Y-74455994D01*
X137721615Y-74552685D01*
X137818306Y-74632037D01*
X137928620Y-74691002D01*
X138048318Y-74727312D01*
X138172800Y-74739572D01*
X138757050Y-74736500D01*
X138915800Y-74577750D01*
X138915800Y-73133500D01*
X137696550Y-73133500D01*
X137537800Y-73292250D01*
X137534728Y-74101500D01*
X135999072Y-74101500D01*
X135999072Y-71911500D01*
X137534728Y-71911500D01*
X137537800Y-72720750D01*
X137696550Y-72879500D01*
X138915800Y-72879500D01*
X138915800Y-71435250D01*
X138757050Y-71276500D01*
X138172800Y-71273428D01*
X138048318Y-71285688D01*
X137928620Y-71321998D01*
X137818306Y-71380963D01*
X137721615Y-71460315D01*
X137642263Y-71557006D01*
X137583298Y-71667320D01*
X137546988Y-71787018D01*
X137534728Y-71911500D01*
X135999072Y-71911500D01*
X135999072Y-69911000D01*
X150143928Y-69911000D01*
X150143928Y-71911000D01*
X150156188Y-72035482D01*
X150192498Y-72155180D01*
X150251463Y-72265494D01*
X150330815Y-72362185D01*
X150427506Y-72441537D01*
X150537820Y-72500502D01*
X150657518Y-72536812D01*
X150782000Y-72549072D01*
X154582000Y-72549072D01*
X154706482Y-72536812D01*
X154826180Y-72500502D01*
X154936494Y-72441537D01*
X155033185Y-72362185D01*
X155112537Y-72265494D01*
X155171502Y-72155180D01*
X155207812Y-72035482D01*
X155220072Y-71911000D01*
X155220072Y-69911000D01*
X155207812Y-69786518D01*
X155171502Y-69666820D01*
X155112537Y-69556506D01*
X155033185Y-69459815D01*
X154936494Y-69380463D01*
X154826180Y-69321498D01*
X154706482Y-69285188D01*
X154582000Y-69272928D01*
X150782000Y-69272928D01*
X150657518Y-69285188D01*
X150537820Y-69321498D01*
X150427506Y-69380463D01*
X150330815Y-69459815D01*
X150251463Y-69556506D01*
X150192498Y-69666820D01*
X150156188Y-69786518D01*
X150143928Y-69911000D01*
X135999072Y-69911000D01*
X135999072Y-69630000D01*
X135986812Y-69505518D01*
X135950502Y-69385820D01*
X135891537Y-69275506D01*
X135812185Y-69178815D01*
X135715494Y-69099463D01*
X135605180Y-69040498D01*
X135485482Y-69004188D01*
X135361000Y-68991928D01*
X129561000Y-68991928D01*
X129436518Y-69004188D01*
X129316820Y-69040498D01*
X129206506Y-69099463D01*
X129109815Y-69178815D01*
X129030463Y-69275506D01*
X128971498Y-69385820D01*
X128935188Y-69505518D01*
X128922928Y-69630000D01*
X128922928Y-76030000D01*
X128935188Y-76154482D01*
X128971498Y-76274180D01*
X129030463Y-76384494D01*
X129109815Y-76481185D01*
X129206506Y-76560537D01*
X129316820Y-76619502D01*
X129436518Y-76655812D01*
X129561000Y-76668072D01*
X131445000Y-76668072D01*
X131445000Y-77549939D01*
X131409815Y-77578815D01*
X131330463Y-77675506D01*
X131321000Y-77693210D01*
X131311537Y-77675506D01*
X131232185Y-77578815D01*
X131135494Y-77499463D01*
X131025180Y-77440498D01*
X130905482Y-77404188D01*
X130781000Y-77391928D01*
X129581000Y-77391928D01*
X129456518Y-77404188D01*
X129336820Y-77440498D01*
X129226506Y-77499463D01*
X129129815Y-77578815D01*
X129050463Y-77675506D01*
X128991498Y-77785820D01*
X128955188Y-77905518D01*
X128942928Y-78030000D01*
X128942928Y-80230000D01*
X128955188Y-80354482D01*
X128991498Y-80474180D01*
X129050463Y-80584494D01*
X129084526Y-80626000D01*
X129057061Y-80626000D01*
X128857102Y-80665774D01*
X128668744Y-80743795D01*
X128499226Y-80857063D01*
X128355063Y-81001226D01*
X128241795Y-81170744D01*
X128163774Y-81359102D01*
X128124000Y-81559061D01*
X128124000Y-81762939D01*
X128163774Y-81962898D01*
X128241795Y-82151256D01*
X128355063Y-82320774D01*
X128397000Y-82362711D01*
X128397000Y-83840563D01*
X128115699Y-83559262D01*
X128087860Y-83525340D01*
X127952492Y-83414246D01*
X127798052Y-83331696D01*
X127630475Y-83280863D01*
X127499868Y-83267999D01*
X127499861Y-83267999D01*
X127456201Y-83263699D01*
X127412541Y-83267999D01*
X124898035Y-83267999D01*
X124844165Y-83214129D01*
X124883898Y-83206226D01*
X125072256Y-83128205D01*
X125241774Y-83014937D01*
X125385937Y-82870774D01*
X125499205Y-82701256D01*
X125577226Y-82512898D01*
X125617000Y-82312939D01*
X125617000Y-82109061D01*
X125577226Y-81909102D01*
X125568929Y-81889072D01*
X127093000Y-81889072D01*
X127217482Y-81876812D01*
X127337180Y-81840502D01*
X127447494Y-81781537D01*
X127544185Y-81702185D01*
X127623537Y-81605494D01*
X127682502Y-81495180D01*
X127718812Y-81375482D01*
X127731072Y-81251000D01*
X127731072Y-80051000D01*
X127718812Y-79926518D01*
X127682502Y-79806820D01*
X127623537Y-79696506D01*
X127544185Y-79599815D01*
X127447494Y-79520463D01*
X127337180Y-79461498D01*
X127217482Y-79425188D01*
X127093000Y-79412928D01*
X125222000Y-79412928D01*
X125222000Y-73698112D01*
X125317081Y-73620081D01*
X125490157Y-73409188D01*
X125618764Y-73168581D01*
X125697960Y-72907507D01*
X125718000Y-72704037D01*
X125718000Y-71567963D01*
X125697960Y-71364493D01*
X125618764Y-71103419D01*
X125490157Y-70862812D01*
X125317080Y-70651919D01*
X125106187Y-70478843D01*
X124865580Y-70350236D01*
X124604506Y-70271040D01*
X124333000Y-70244299D01*
X124061493Y-70271040D01*
X123800419Y-70350236D01*
X123559812Y-70478843D01*
X123348919Y-70651920D01*
X123175843Y-70862813D01*
X123060514Y-71078579D01*
X123023972Y-70988651D01*
X122874028Y-70760939D01*
X122682540Y-70566855D01*
X122456868Y-70413858D01*
X122205684Y-70307827D01*
X122134185Y-70293682D01*
X121920000Y-70416344D01*
X121920000Y-72009000D01*
X121940000Y-72009000D01*
X121940000Y-72263000D01*
X121920000Y-72263000D01*
X121920000Y-73855656D01*
X122134185Y-73978318D01*
X122205684Y-73964173D01*
X122456868Y-73858142D01*
X122682540Y-73705145D01*
X122874028Y-73511061D01*
X123023972Y-73283349D01*
X123060514Y-73193422D01*
X123175843Y-73409188D01*
X123348920Y-73620081D01*
X123444000Y-73698112D01*
X123444001Y-79714791D01*
X123423537Y-79676506D01*
X123344185Y-79579815D01*
X123247494Y-79500463D01*
X123137180Y-79441498D01*
X123017482Y-79405188D01*
X122893000Y-79392928D01*
X120183500Y-79392928D01*
X120183500Y-73994819D01*
X120247180Y-73975502D01*
X120357494Y-73916537D01*
X120454185Y-73837185D01*
X120533537Y-73740494D01*
X120592502Y-73630180D01*
X120628812Y-73510482D01*
X120639582Y-73401126D01*
X120711972Y-73511061D01*
X120903460Y-73705145D01*
X121129132Y-73858142D01*
X121380316Y-73964173D01*
X121451815Y-73978318D01*
X121666000Y-73855656D01*
X121666000Y-72263000D01*
X121646000Y-72263000D01*
X121646000Y-72009000D01*
X121666000Y-72009000D01*
X121666000Y-70416344D01*
X121451815Y-70293682D01*
X121380316Y-70307827D01*
X121129132Y-70413858D01*
X120903460Y-70566855D01*
X120711972Y-70760939D01*
X120639582Y-70870874D01*
X120628812Y-70761518D01*
X120592502Y-70641820D01*
X120533537Y-70531506D01*
X120454185Y-70434815D01*
X120357494Y-70355463D01*
X120247180Y-70296498D01*
X120127482Y-70260188D01*
X120003000Y-70247928D01*
X118503000Y-70247928D01*
X118378518Y-70260188D01*
X118258820Y-70296498D01*
X118148506Y-70355463D01*
X118051815Y-70434815D01*
X117972463Y-70531506D01*
X117913498Y-70641820D01*
X117877188Y-70761518D01*
X117864928Y-70886000D01*
X117864928Y-73386000D01*
X117877188Y-73510482D01*
X117913498Y-73630180D01*
X117972463Y-73740494D01*
X118051815Y-73837185D01*
X118148506Y-73916537D01*
X118258820Y-73975502D01*
X118278500Y-73981472D01*
X118278501Y-79392928D01*
X116493000Y-79392928D01*
X116368518Y-79405188D01*
X116248820Y-79441498D01*
X116138506Y-79500463D01*
X116041815Y-79579815D01*
X115962463Y-79676506D01*
X115903498Y-79786820D01*
X115867188Y-79906518D01*
X115854928Y-80031000D01*
X115854928Y-83228692D01*
X115340499Y-82714263D01*
X115312659Y-82680341D01*
X115177291Y-82569247D01*
X115022851Y-82486697D01*
X114855274Y-82435864D01*
X114724667Y-82423000D01*
X114724660Y-82423000D01*
X114681000Y-82418700D01*
X114637340Y-82423000D01*
X110871000Y-82423000D01*
X110871000Y-81069659D01*
X110875300Y-81025999D01*
X110871000Y-80982339D01*
X110871000Y-80982333D01*
X110858662Y-80857063D01*
X110858136Y-80851724D01*
X110811099Y-80696663D01*
X110807303Y-80684149D01*
X110724753Y-80529709D01*
X110613659Y-80394341D01*
X110579741Y-80366505D01*
X109776206Y-79562970D01*
X109834226Y-79422898D01*
X109874000Y-79222939D01*
X109874000Y-79019061D01*
X109834226Y-78819102D01*
X109756205Y-78630744D01*
X109642937Y-78461226D01*
X109498774Y-78317063D01*
X109329256Y-78203795D01*
X109140898Y-78125774D01*
X108940939Y-78086000D01*
X108737061Y-78086000D01*
X108537102Y-78125774D01*
X108348744Y-78203795D01*
X108179226Y-78317063D01*
X108035063Y-78461226D01*
X107921795Y-78630744D01*
X107843774Y-78819102D01*
X107804000Y-79019061D01*
X107804000Y-79222939D01*
X107843774Y-79422898D01*
X107921795Y-79611256D01*
X107950000Y-79653468D01*
X107950000Y-79839340D01*
X107945700Y-79883000D01*
X107950000Y-79926660D01*
X107950000Y-79926666D01*
X107953257Y-79959733D01*
X107962864Y-80057274D01*
X107980365Y-80114967D01*
X108013697Y-80224850D01*
X108096247Y-80379290D01*
X108207341Y-80514659D01*
X108241264Y-80542499D01*
X109093001Y-81394237D01*
X109093000Y-83204840D01*
X109088700Y-83248500D01*
X109093000Y-83292160D01*
X109093000Y-83292166D01*
X109100109Y-83364341D01*
X109105864Y-83422774D01*
X109122820Y-83478670D01*
X109156697Y-83590350D01*
X109239247Y-83744790D01*
X109350341Y-83880159D01*
X109384264Y-83907999D01*
X109386001Y-83909736D01*
X109413841Y-83943659D01*
X109549209Y-84054753D01*
X109703649Y-84137303D01*
X109859932Y-84184710D01*
X109871226Y-84188136D01*
X110045500Y-84205301D01*
X110089168Y-84201000D01*
X114312765Y-84201000D01*
X114554001Y-84442236D01*
X114554000Y-85586042D01*
X114549700Y-85629702D01*
X114554000Y-85673362D01*
X114554000Y-85673368D01*
X114563799Y-85772852D01*
X114566864Y-85803976D01*
X114575062Y-85831000D01*
X114617697Y-85971552D01*
X114700247Y-86125992D01*
X114811341Y-86261361D01*
X114845263Y-86289200D01*
X115448304Y-86892242D01*
X115476140Y-86926160D01*
X115510057Y-86953995D01*
X115510058Y-86953996D01*
X115533557Y-86973281D01*
X115611508Y-87037254D01*
X115765948Y-87119804D01*
X115860557Y-87148503D01*
X115933524Y-87170637D01*
X115950124Y-87172272D01*
X116064132Y-87183501D01*
X116064139Y-87183501D01*
X116107799Y-87187801D01*
X116151459Y-87183501D01*
X125624839Y-87183501D01*
X125668499Y-87187801D01*
X125712159Y-87183501D01*
X125712166Y-87183501D01*
X125842773Y-87170637D01*
X125979524Y-87129155D01*
X126492000Y-87641631D01*
X126492001Y-92367669D01*
X126451089Y-92466440D01*
X126419000Y-92627760D01*
X126419000Y-92792240D01*
X126451089Y-92953560D01*
X126514033Y-93105521D01*
X126605413Y-93242281D01*
X126708121Y-93344989D01*
X119036433Y-93344989D01*
X118999010Y-93341303D01*
X118961587Y-93344989D01*
X118961585Y-93344989D01*
X118849633Y-93356015D01*
X118705996Y-93399587D01*
X118573619Y-93470344D01*
X118457589Y-93565567D01*
X118433727Y-93594643D01*
X118285954Y-93742416D01*
X118256878Y-93766278D01*
X118213136Y-93819579D01*
X118161655Y-93882308D01*
X118139181Y-93924354D01*
X118090898Y-94014686D01*
X118056211Y-94129032D01*
X118024937Y-94082226D01*
X117910001Y-93967290D01*
X117910001Y-91791660D01*
X117914301Y-91748000D01*
X117910001Y-91704340D01*
X117910001Y-91704334D01*
X117897137Y-91573727D01*
X117897137Y-91573725D01*
X117853150Y-91428719D01*
X117846304Y-91406150D01*
X117763754Y-91251710D01*
X117652660Y-91116342D01*
X117618742Y-91088506D01*
X116448500Y-89918265D01*
X116420660Y-89884342D01*
X116285292Y-89773248D01*
X116130852Y-89690698D01*
X115963275Y-89639865D01*
X115832668Y-89627001D01*
X115832661Y-89627001D01*
X115789001Y-89622701D01*
X115745341Y-89627001D01*
X112607314Y-89627001D01*
X112395000Y-89414687D01*
X112395000Y-88094334D01*
X112382136Y-87963727D01*
X112331303Y-87796149D01*
X112248753Y-87641709D01*
X112137659Y-87506341D01*
X112002291Y-87395247D01*
X111847851Y-87312697D01*
X111680274Y-87261864D01*
X111506000Y-87244699D01*
X111331727Y-87261864D01*
X111164150Y-87312697D01*
X111009710Y-87395247D01*
X110874341Y-87506341D01*
X110763247Y-87641709D01*
X110680697Y-87796149D01*
X110629864Y-87963726D01*
X110617000Y-88094333D01*
X110617000Y-88464508D01*
X110617001Y-88464518D01*
X110617000Y-89739262D01*
X110612700Y-89782922D01*
X110617000Y-89826582D01*
X110617000Y-89826588D01*
X110625807Y-89916000D01*
X110629864Y-89957196D01*
X110633930Y-89970599D01*
X110680697Y-90124772D01*
X110763247Y-90279212D01*
X110874341Y-90414581D01*
X110908264Y-90442421D01*
X111579580Y-91113737D01*
X111607420Y-91147660D01*
X111742788Y-91258754D01*
X111897228Y-91341304D01*
X111927300Y-91350426D01*
X112064803Y-91392137D01*
X112098003Y-91395407D01*
X112195412Y-91405001D01*
X112195418Y-91405001D01*
X112239078Y-91409301D01*
X112282738Y-91405001D01*
X113846000Y-91405001D01*
X113846000Y-91522240D01*
X113878089Y-91683560D01*
X113921000Y-91787157D01*
X113921000Y-91858332D01*
X113921001Y-91858342D01*
X113921000Y-93763332D01*
X113921001Y-93763342D01*
X113921000Y-97014677D01*
X113917324Y-97052000D01*
X113921000Y-97089322D01*
X113921000Y-97089332D01*
X113931997Y-97200985D01*
X113970489Y-97327878D01*
X113975454Y-97344246D01*
X114046026Y-97476276D01*
X114077992Y-97515226D01*
X114140999Y-97592001D01*
X114170003Y-97615804D01*
X115263498Y-98709300D01*
X113490027Y-98709300D01*
X113432986Y-98691997D01*
X113321333Y-98681000D01*
X113321322Y-98681000D01*
X113284000Y-98677324D01*
X113246678Y-98681000D01*
X112742157Y-98681000D01*
X112638560Y-98638089D01*
X112477240Y-98606000D01*
X112312760Y-98606000D01*
X112151440Y-98638089D01*
X111999479Y-98701033D01*
X111862719Y-98792413D01*
X111746413Y-98908719D01*
X111655033Y-99045479D01*
X111592089Y-99197440D01*
X111560000Y-99358760D01*
X111560000Y-99523240D01*
X111592089Y-99684560D01*
X111655033Y-99836521D01*
X111746413Y-99973281D01*
X111862719Y-100089587D01*
X111999479Y-100180967D01*
X112151440Y-100243911D01*
X112312760Y-100276000D01*
X112449000Y-100276000D01*
X112449000Y-100285240D01*
X112481089Y-100446560D01*
X112544033Y-100598521D01*
X112635413Y-100735281D01*
X112751719Y-100851587D01*
X112888479Y-100942967D01*
X113040440Y-101005911D01*
X113201760Y-101038000D01*
X113366240Y-101038000D01*
X113409977Y-101029300D01*
X115910228Y-101029300D01*
X115910228Y-101107300D01*
X107010931Y-101107300D01*
X106686724Y-100783094D01*
X106720911Y-100700560D01*
X106753000Y-100539240D01*
X106753000Y-100374760D01*
X106720911Y-100213440D01*
X106657967Y-100061479D01*
X106566587Y-99924719D01*
X106450281Y-99808413D01*
X106313521Y-99717033D01*
X106161560Y-99654089D01*
X106000240Y-99622000D01*
X105835760Y-99622000D01*
X105674440Y-99654089D01*
X105522479Y-99717033D01*
X105385719Y-99808413D01*
X105269413Y-99924719D01*
X105178033Y-100061479D01*
X105115089Y-100213440D01*
X105083000Y-100374760D01*
X104081758Y-100374760D01*
X104038034Y-100154945D01*
X103891746Y-99801776D01*
X103679370Y-99483933D01*
X103409067Y-99213630D01*
X103091224Y-99001254D01*
X102738055Y-98854966D01*
X102363133Y-98780390D01*
X101980867Y-98780390D01*
X101605945Y-98854966D01*
X101252776Y-99001254D01*
X100934933Y-99213630D01*
X100664630Y-99483933D01*
X100452254Y-99801776D01*
X100305966Y-100154945D01*
X100231390Y-100529867D01*
X99990717Y-100529867D01*
X99880917Y-99540356D01*
X99847000Y-98480146D01*
X99847000Y-73849867D01*
X100231390Y-73849867D01*
X100231390Y-74232133D01*
X100305966Y-74607055D01*
X100452254Y-74960224D01*
X100664630Y-75278067D01*
X100934933Y-75548370D01*
X101252776Y-75760746D01*
X101605945Y-75907034D01*
X101980867Y-75981610D01*
X102363133Y-75981610D01*
X102738055Y-75907034D01*
X103091224Y-75760746D01*
X103409067Y-75548370D01*
X103679370Y-75278067D01*
X103891746Y-74960224D01*
X104038034Y-74607055D01*
X104112610Y-74232133D01*
X104112610Y-73866000D01*
X105933928Y-73866000D01*
X105946188Y-73990482D01*
X105982498Y-74110180D01*
X106041463Y-74220494D01*
X106120815Y-74317185D01*
X106217506Y-74396537D01*
X106327820Y-74455502D01*
X106447518Y-74491812D01*
X106572000Y-74504072D01*
X107156250Y-74501000D01*
X107315000Y-74342250D01*
X107315000Y-72898000D01*
X106095750Y-72898000D01*
X105937000Y-73056750D01*
X105933928Y-73866000D01*
X104112610Y-73866000D01*
X104112610Y-73849867D01*
X104038034Y-73474945D01*
X103891746Y-73121776D01*
X103679370Y-72803933D01*
X103409067Y-72533630D01*
X103091224Y-72321254D01*
X102738055Y-72174966D01*
X102363133Y-72100390D01*
X101980867Y-72100390D01*
X101605945Y-72174966D01*
X101252776Y-72321254D01*
X100934933Y-72533630D01*
X100664630Y-72803933D01*
X100452254Y-73121776D01*
X100305966Y-73474945D01*
X100231390Y-73849867D01*
X99847000Y-73849867D01*
X99847000Y-71676000D01*
X105933928Y-71676000D01*
X105937000Y-72485250D01*
X106095750Y-72644000D01*
X107315000Y-72644000D01*
X107315000Y-71199750D01*
X107569000Y-71199750D01*
X107569000Y-72644000D01*
X107589000Y-72644000D01*
X107589000Y-72898000D01*
X107569000Y-72898000D01*
X107569000Y-74342250D01*
X107727750Y-74501000D01*
X108312000Y-74504072D01*
X108436482Y-74491812D01*
X108556180Y-74455502D01*
X108666494Y-74396537D01*
X108763185Y-74317185D01*
X108842537Y-74220494D01*
X108901502Y-74110180D01*
X108914615Y-74066953D01*
X109141822Y-74253417D01*
X109403276Y-74393166D01*
X109686969Y-74479224D01*
X109982000Y-74508282D01*
X110277032Y-74479224D01*
X110560725Y-74393166D01*
X110822179Y-74253417D01*
X111051345Y-74065345D01*
X111239417Y-73836179D01*
X111379166Y-73574724D01*
X111465224Y-73291031D01*
X111487000Y-73069935D01*
X111487000Y-72472064D01*
X111465224Y-72250968D01*
X111379166Y-71967275D01*
X111239417Y-71705821D01*
X111051345Y-71476655D01*
X110822178Y-71288583D01*
X110560724Y-71148834D01*
X110277031Y-71062776D01*
X109982000Y-71033718D01*
X109686968Y-71062776D01*
X109403275Y-71148834D01*
X109141821Y-71288583D01*
X108914615Y-71475047D01*
X108901502Y-71431820D01*
X108842537Y-71321506D01*
X108763185Y-71224815D01*
X108666494Y-71145463D01*
X108556180Y-71086498D01*
X108436482Y-71050188D01*
X108312000Y-71037928D01*
X107727750Y-71041000D01*
X107569000Y-71199750D01*
X107315000Y-71199750D01*
X107156250Y-71041000D01*
X106572000Y-71037928D01*
X106447518Y-71050188D01*
X106327820Y-71086498D01*
X106217506Y-71145463D01*
X106120815Y-71224815D01*
X106041463Y-71321506D01*
X105982498Y-71431820D01*
X105946188Y-71551518D01*
X105933928Y-71676000D01*
X99847000Y-71676000D01*
X99847000Y-70898279D01*
X99885909Y-70501455D01*
X99991780Y-70150792D01*
X100163744Y-69827375D01*
X100395254Y-69543516D01*
X100677486Y-69310035D01*
X100999695Y-69135817D01*
X101349614Y-69027498D01*
X101744443Y-68986000D01*
X172814721Y-68986000D01*
X173211545Y-69024909D01*
G36*
X163832000Y-89855198D02*
G01*
X157222998Y-96464201D01*
X157194000Y-96487999D01*
X157170202Y-96516997D01*
X157170201Y-96516998D01*
X157099026Y-96603724D01*
X157028454Y-96735754D01*
X157012403Y-96788669D01*
X156984998Y-96879014D01*
X156974001Y-96990667D01*
X156970324Y-97028000D01*
X156974001Y-97065332D01*
X156974000Y-101412198D01*
X149291199Y-109095000D01*
X141897661Y-109095000D01*
X141947405Y-109034387D01*
X142029472Y-108880851D01*
X142080008Y-108714255D01*
X142097072Y-108541001D01*
X142097072Y-106850999D01*
X142080008Y-106677745D01*
X142029472Y-106511149D01*
X141947405Y-106357613D01*
X141836962Y-106223038D01*
X141702387Y-106112595D01*
X141548851Y-106030528D01*
X141382255Y-105979992D01*
X141209001Y-105962928D01*
X140894974Y-105962928D01*
X140966902Y-105891000D01*
X146813928Y-105891000D01*
X146813928Y-106131000D01*
X146826188Y-106255482D01*
X146862498Y-106375180D01*
X146921463Y-106485494D01*
X147000815Y-106582185D01*
X147097506Y-106661537D01*
X147207820Y-106720502D01*
X147327518Y-106756812D01*
X147452000Y-106769072D01*
X151252000Y-106769072D01*
X151376482Y-106756812D01*
X151496180Y-106720502D01*
X151606494Y-106661537D01*
X151703185Y-106582185D01*
X151782537Y-106485494D01*
X151841502Y-106375180D01*
X151877812Y-106255482D01*
X151890072Y-106131000D01*
X151890072Y-104131000D01*
X151877812Y-104006518D01*
X151841502Y-103886820D01*
X151782537Y-103776506D01*
X151703185Y-103679815D01*
X151606494Y-103600463D01*
X151496180Y-103541498D01*
X151376482Y-103505188D01*
X151252000Y-103492928D01*
X148099875Y-103492928D01*
X151088002Y-100504802D01*
X151117000Y-100481004D01*
X151128020Y-100467576D01*
X151366250Y-100466000D01*
X151525000Y-100307250D01*
X151525000Y-98958000D01*
X151779000Y-98958000D01*
X151779000Y-100307250D01*
X151937750Y-100466000D01*
X152402000Y-100469072D01*
X152526482Y-100456812D01*
X152646180Y-100420502D01*
X152756494Y-100361537D01*
X152853185Y-100282185D01*
X152932537Y-100185494D01*
X152991502Y-100075180D01*
X153027812Y-99955482D01*
X153040072Y-99831000D01*
X153037000Y-99116750D01*
X152878250Y-98958000D01*
X151779000Y-98958000D01*
X151525000Y-98958000D01*
X151505000Y-98958000D01*
X151505000Y-98704000D01*
X151525000Y-98704000D01*
X151525000Y-97354750D01*
X151779000Y-97354750D01*
X151779000Y-98704000D01*
X152878250Y-98704000D01*
X153037000Y-98545250D01*
X153040072Y-97831000D01*
X153027812Y-97706518D01*
X152991502Y-97586820D01*
X152932537Y-97476506D01*
X152853185Y-97379815D01*
X152756494Y-97300463D01*
X152646180Y-97241498D01*
X152526482Y-97205188D01*
X152402000Y-97192928D01*
X151937750Y-97196000D01*
X151779000Y-97354750D01*
X151525000Y-97354750D01*
X151366250Y-97196000D01*
X151336999Y-97195806D01*
X151336999Y-96498802D01*
X163832001Y-84003801D01*
X163832000Y-89855198D01*
G37*
X163832000Y-89855198D02*
X157222998Y-96464201D01*
X157194000Y-96487999D01*
X157170202Y-96516997D01*
X157170201Y-96516998D01*
X157099026Y-96603724D01*
X157028454Y-96735754D01*
X157012403Y-96788669D01*
X156984998Y-96879014D01*
X156974001Y-96990667D01*
X156970324Y-97028000D01*
X156974001Y-97065332D01*
X156974000Y-101412198D01*
X149291199Y-109095000D01*
X141897661Y-109095000D01*
X141947405Y-109034387D01*
X142029472Y-108880851D01*
X142080008Y-108714255D01*
X142097072Y-108541001D01*
X142097072Y-106850999D01*
X142080008Y-106677745D01*
X142029472Y-106511149D01*
X141947405Y-106357613D01*
X141836962Y-106223038D01*
X141702387Y-106112595D01*
X141548851Y-106030528D01*
X141382255Y-105979992D01*
X141209001Y-105962928D01*
X140894974Y-105962928D01*
X140966902Y-105891000D01*
X146813928Y-105891000D01*
X146813928Y-106131000D01*
X146826188Y-106255482D01*
X146862498Y-106375180D01*
X146921463Y-106485494D01*
X147000815Y-106582185D01*
X147097506Y-106661537D01*
X147207820Y-106720502D01*
X147327518Y-106756812D01*
X147452000Y-106769072D01*
X151252000Y-106769072D01*
X151376482Y-106756812D01*
X151496180Y-106720502D01*
X151606494Y-106661537D01*
X151703185Y-106582185D01*
X151782537Y-106485494D01*
X151841502Y-106375180D01*
X151877812Y-106255482D01*
X151890072Y-106131000D01*
X151890072Y-104131000D01*
X151877812Y-104006518D01*
X151841502Y-103886820D01*
X151782537Y-103776506D01*
X151703185Y-103679815D01*
X151606494Y-103600463D01*
X151496180Y-103541498D01*
X151376482Y-103505188D01*
X151252000Y-103492928D01*
X148099875Y-103492928D01*
X151088002Y-100504802D01*
X151117000Y-100481004D01*
X151128020Y-100467576D01*
X151366250Y-100466000D01*
X151525000Y-100307250D01*
X151525000Y-98958000D01*
X151779000Y-98958000D01*
X151779000Y-100307250D01*
X151937750Y-100466000D01*
X152402000Y-100469072D01*
X152526482Y-100456812D01*
X152646180Y-100420502D01*
X152756494Y-100361537D01*
X152853185Y-100282185D01*
X152932537Y-100185494D01*
X152991502Y-100075180D01*
X153027812Y-99955482D01*
X153040072Y-99831000D01*
X153037000Y-99116750D01*
X152878250Y-98958000D01*
X151779000Y-98958000D01*
X151525000Y-98958000D01*
X151505000Y-98958000D01*
X151505000Y-98704000D01*
X151525000Y-98704000D01*
X151525000Y-97354750D01*
X151779000Y-97354750D01*
X151779000Y-98704000D01*
X152878250Y-98704000D01*
X153037000Y-98545250D01*
X153040072Y-97831000D01*
X153027812Y-97706518D01*
X152991502Y-97586820D01*
X152932537Y-97476506D01*
X152853185Y-97379815D01*
X152756494Y-97300463D01*
X152646180Y-97241498D01*
X152526482Y-97205188D01*
X152402000Y-97192928D01*
X151937750Y-97196000D01*
X151779000Y-97354750D01*
X151525000Y-97354750D01*
X151366250Y-97196000D01*
X151336999Y-97195806D01*
X151336999Y-96498802D01*
X163832001Y-84003801D01*
X163832000Y-89855198D01*
G36*
X138632117Y-106076182D02*
G01*
X138627725Y-106073834D01*
X138344032Y-105987776D01*
X138049000Y-105958718D01*
X137753969Y-105987776D01*
X137470276Y-106073834D01*
X137208822Y-106213583D01*
X136979655Y-106401655D01*
X136791583Y-106630821D01*
X136651834Y-106892275D01*
X136565776Y-107175968D01*
X136544000Y-107397064D01*
X136544000Y-107994935D01*
X136565776Y-108216031D01*
X136651834Y-108499724D01*
X136791583Y-108761178D01*
X136979655Y-108990345D01*
X137107177Y-109095000D01*
X128879200Y-109095000D01*
X126963430Y-107179231D01*
X126926621Y-107134379D01*
X126810591Y-107039156D01*
X126678214Y-106968399D01*
X126534577Y-106924827D01*
X126422625Y-106913801D01*
X126402215Y-106913801D01*
X126385199Y-106912125D01*
X126368183Y-106913801D01*
X124354044Y-106913801D01*
X124364300Y-106862239D01*
X124364300Y-106658361D01*
X124324526Y-106458402D01*
X124282678Y-106357372D01*
X124673300Y-106357372D01*
X124797782Y-106345112D01*
X124917480Y-106308802D01*
X125027794Y-106249837D01*
X125124485Y-106170485D01*
X125203837Y-106073794D01*
X125262802Y-105963480D01*
X125299112Y-105843782D01*
X125311372Y-105719300D01*
X125311372Y-105573626D01*
X125347576Y-105554274D01*
X125463301Y-105459301D01*
X125487104Y-105430297D01*
X125653402Y-105263999D01*
X139444299Y-105263999D01*
X138632117Y-106076182D01*
G37*
X138632117Y-106076182D02*
X138627725Y-106073834D01*
X138344032Y-105987776D01*
X138049000Y-105958718D01*
X137753969Y-105987776D01*
X137470276Y-106073834D01*
X137208822Y-106213583D01*
X136979655Y-106401655D01*
X136791583Y-106630821D01*
X136651834Y-106892275D01*
X136565776Y-107175968D01*
X136544000Y-107397064D01*
X136544000Y-107994935D01*
X136565776Y-108216031D01*
X136651834Y-108499724D01*
X136791583Y-108761178D01*
X136979655Y-108990345D01*
X137107177Y-109095000D01*
X128879200Y-109095000D01*
X126963430Y-107179231D01*
X126926621Y-107134379D01*
X126810591Y-107039156D01*
X126678214Y-106968399D01*
X126534577Y-106924827D01*
X126422625Y-106913801D01*
X126402215Y-106913801D01*
X126385199Y-106912125D01*
X126368183Y-106913801D01*
X124354044Y-106913801D01*
X124364300Y-106862239D01*
X124364300Y-106658361D01*
X124324526Y-106458402D01*
X124282678Y-106357372D01*
X124673300Y-106357372D01*
X124797782Y-106345112D01*
X124917480Y-106308802D01*
X125027794Y-106249837D01*
X125124485Y-106170485D01*
X125203837Y-106073794D01*
X125262802Y-105963480D01*
X125299112Y-105843782D01*
X125311372Y-105719300D01*
X125311372Y-105573626D01*
X125347576Y-105554274D01*
X125463301Y-105459301D01*
X125487104Y-105430297D01*
X125653402Y-105263999D01*
X139444299Y-105263999D01*
X138632117Y-106076182D01*
G36*
X122072115Y-97670485D02*
G01*
X122168806Y-97749837D01*
X122191967Y-97762217D01*
X122284050Y-97854300D01*
X122397680Y-97844767D01*
X122398818Y-97845112D01*
X122523300Y-97857372D01*
X123073300Y-97857372D01*
X123197782Y-97845112D01*
X123198300Y-97844955D01*
X123198818Y-97845112D01*
X123323300Y-97857372D01*
X123873300Y-97857372D01*
X123997782Y-97845112D01*
X123998300Y-97844955D01*
X123998818Y-97845112D01*
X124123300Y-97857372D01*
X124410228Y-97857372D01*
X124410228Y-98144300D01*
X124422488Y-98268782D01*
X124422645Y-98269300D01*
X124422488Y-98269818D01*
X124410228Y-98394300D01*
X124410228Y-98944300D01*
X124422488Y-99068782D01*
X124422645Y-99069300D01*
X124422488Y-99069818D01*
X124410228Y-99194300D01*
X124410228Y-99744300D01*
X124422488Y-99868782D01*
X124422645Y-99869300D01*
X124422488Y-99869818D01*
X124410228Y-99994300D01*
X124410228Y-100544300D01*
X124422488Y-100668782D01*
X124422645Y-100669300D01*
X124422488Y-100669818D01*
X124410228Y-100794300D01*
X124410228Y-101344300D01*
X124422488Y-101468782D01*
X124422645Y-101469300D01*
X124422488Y-101469818D01*
X124410228Y-101594300D01*
X124410228Y-102144300D01*
X124422488Y-102268782D01*
X124422645Y-102269300D01*
X124422488Y-102269818D01*
X124410228Y-102394300D01*
X124410228Y-102944300D01*
X124422488Y-103068782D01*
X124422645Y-103069300D01*
X124422488Y-103069818D01*
X124410228Y-103194300D01*
X124410228Y-103481228D01*
X124123300Y-103481228D01*
X123998818Y-103493488D01*
X123998300Y-103493645D01*
X123997782Y-103493488D01*
X123873300Y-103481228D01*
X123323300Y-103481228D01*
X123198818Y-103493488D01*
X123197680Y-103493833D01*
X123084050Y-103484300D01*
X122991967Y-103576383D01*
X122968806Y-103588763D01*
X122872115Y-103668115D01*
X122798300Y-103758059D01*
X122724485Y-103668115D01*
X122627794Y-103588763D01*
X122604633Y-103576383D01*
X122512550Y-103484300D01*
X122398920Y-103493833D01*
X122397782Y-103493488D01*
X122273300Y-103481228D01*
X121723300Y-103481228D01*
X121598818Y-103493488D01*
X121597680Y-103493833D01*
X121484050Y-103484300D01*
X121391967Y-103576383D01*
X121368806Y-103588763D01*
X121345107Y-103608212D01*
X121337017Y-103526075D01*
X121330216Y-103503655D01*
X121325302Y-103487456D01*
X121325302Y-103484300D01*
X121324345Y-103484300D01*
X121282552Y-103346529D01*
X121194106Y-103181057D01*
X121075078Y-103036020D01*
X121038736Y-103006195D01*
X120550800Y-102518260D01*
X120550800Y-99658547D01*
X120593526Y-99555398D01*
X120633300Y-99355439D01*
X120633300Y-99151561D01*
X120593526Y-98951602D01*
X120515505Y-98763244D01*
X120402237Y-98593726D01*
X120358300Y-98549789D01*
X120358300Y-97857372D01*
X120673300Y-97857372D01*
X120797782Y-97845112D01*
X120798300Y-97844955D01*
X120798818Y-97845112D01*
X120923300Y-97857372D01*
X121473300Y-97857372D01*
X121597782Y-97845112D01*
X121598920Y-97844767D01*
X121712550Y-97854300D01*
X121804633Y-97762217D01*
X121827794Y-97749837D01*
X121924485Y-97670485D01*
X121998300Y-97580541D01*
X122072115Y-97670485D01*
G37*
X122072115Y-97670485D02*
X122168806Y-97749837D01*
X122191967Y-97762217D01*
X122284050Y-97854300D01*
X122397680Y-97844767D01*
X122398818Y-97845112D01*
X122523300Y-97857372D01*
X123073300Y-97857372D01*
X123197782Y-97845112D01*
X123198300Y-97844955D01*
X123198818Y-97845112D01*
X123323300Y-97857372D01*
X123873300Y-97857372D01*
X123997782Y-97845112D01*
X123998300Y-97844955D01*
X123998818Y-97845112D01*
X124123300Y-97857372D01*
X124410228Y-97857372D01*
X124410228Y-98144300D01*
X124422488Y-98268782D01*
X124422645Y-98269300D01*
X124422488Y-98269818D01*
X124410228Y-98394300D01*
X124410228Y-98944300D01*
X124422488Y-99068782D01*
X124422645Y-99069300D01*
X124422488Y-99069818D01*
X124410228Y-99194300D01*
X124410228Y-99744300D01*
X124422488Y-99868782D01*
X124422645Y-99869300D01*
X124422488Y-99869818D01*
X124410228Y-99994300D01*
X124410228Y-100544300D01*
X124422488Y-100668782D01*
X124422645Y-100669300D01*
X124422488Y-100669818D01*
X124410228Y-100794300D01*
X124410228Y-101344300D01*
X124422488Y-101468782D01*
X124422645Y-101469300D01*
X124422488Y-101469818D01*
X124410228Y-101594300D01*
X124410228Y-102144300D01*
X124422488Y-102268782D01*
X124422645Y-102269300D01*
X124422488Y-102269818D01*
X124410228Y-102394300D01*
X124410228Y-102944300D01*
X124422488Y-103068782D01*
X124422645Y-103069300D01*
X124422488Y-103069818D01*
X124410228Y-103194300D01*
X124410228Y-103481228D01*
X124123300Y-103481228D01*
X123998818Y-103493488D01*
X123998300Y-103493645D01*
X123997782Y-103493488D01*
X123873300Y-103481228D01*
X123323300Y-103481228D01*
X123198818Y-103493488D01*
X123197680Y-103493833D01*
X123084050Y-103484300D01*
X122991967Y-103576383D01*
X122968806Y-103588763D01*
X122872115Y-103668115D01*
X122798300Y-103758059D01*
X122724485Y-103668115D01*
X122627794Y-103588763D01*
X122604633Y-103576383D01*
X122512550Y-103484300D01*
X122398920Y-103493833D01*
X122397782Y-103493488D01*
X122273300Y-103481228D01*
X121723300Y-103481228D01*
X121598818Y-103493488D01*
X121597680Y-103493833D01*
X121484050Y-103484300D01*
X121391967Y-103576383D01*
X121368806Y-103588763D01*
X121345107Y-103608212D01*
X121337017Y-103526075D01*
X121330216Y-103503655D01*
X121325302Y-103487456D01*
X121325302Y-103484300D01*
X121324345Y-103484300D01*
X121282552Y-103346529D01*
X121194106Y-103181057D01*
X121075078Y-103036020D01*
X121038736Y-103006195D01*
X120550800Y-102518260D01*
X120550800Y-99658547D01*
X120593526Y-99555398D01*
X120633300Y-99355439D01*
X120633300Y-99151561D01*
X120593526Y-98951602D01*
X120515505Y-98763244D01*
X120402237Y-98593726D01*
X120358300Y-98549789D01*
X120358300Y-97857372D01*
X120673300Y-97857372D01*
X120797782Y-97845112D01*
X120798300Y-97844955D01*
X120798818Y-97845112D01*
X120923300Y-97857372D01*
X121473300Y-97857372D01*
X121597782Y-97845112D01*
X121598920Y-97844767D01*
X121712550Y-97854300D01*
X121804633Y-97762217D01*
X121827794Y-97749837D01*
X121924485Y-97670485D01*
X121998300Y-97580541D01*
X122072115Y-97670485D01*
G36*
X126848050Y-96991320D02*
G01*
X126772782Y-96968488D01*
X126648300Y-96956228D01*
X125311372Y-96956228D01*
X125311372Y-95777009D01*
X128062360Y-95777009D01*
X126848050Y-96991320D01*
G37*
X126848050Y-96991320D02*
X126772782Y-96968488D01*
X126648300Y-96956228D01*
X125311372Y-96956228D01*
X125311372Y-95777009D01*
X128062360Y-95777009D01*
X126848050Y-96991320D01*
G36*
X116225774Y-95043898D02*
G01*
X116303795Y-95232256D01*
X116417063Y-95401774D01*
X116561226Y-95545937D01*
X116730744Y-95659205D01*
X116919102Y-95737226D01*
X117119061Y-95777000D01*
X117322939Y-95777000D01*
X117522898Y-95737226D01*
X117711256Y-95659205D01*
X117880774Y-95545937D01*
X117893729Y-95532982D01*
X117885228Y-95619300D01*
X117885228Y-96956228D01*
X116548300Y-96956228D01*
X116467944Y-96964142D01*
X116203000Y-96699199D01*
X116203000Y-94929404D01*
X116225774Y-95043898D01*
G37*
X116225774Y-95043898D02*
X116303795Y-95232256D01*
X116417063Y-95401774D01*
X116561226Y-95545937D01*
X116730744Y-95659205D01*
X116919102Y-95737226D01*
X117119061Y-95777000D01*
X117322939Y-95777000D01*
X117522898Y-95737226D01*
X117711256Y-95659205D01*
X117880774Y-95545937D01*
X117893729Y-95532982D01*
X117885228Y-95619300D01*
X117885228Y-96956228D01*
X116548300Y-96956228D01*
X116467944Y-96964142D01*
X116203000Y-96699199D01*
X116203000Y-94929404D01*
X116225774Y-95043898D01*
G36*
X121974000Y-94913760D02*
G01*
X121974000Y-94984300D01*
X121871298Y-94984300D01*
X121871298Y-95124466D01*
X121827794Y-95088763D01*
X121804633Y-95076383D01*
X121712550Y-94984300D01*
X121598920Y-94993833D01*
X121597782Y-94993488D01*
X121473300Y-94981228D01*
X120923300Y-94981228D01*
X120798818Y-94993488D01*
X120798300Y-94993645D01*
X120797782Y-94993488D01*
X120673300Y-94981228D01*
X120123300Y-94981228D01*
X119998818Y-94993488D01*
X119998300Y-94993645D01*
X119997782Y-94993488D01*
X119873300Y-94981228D01*
X119560300Y-94981228D01*
X119560300Y-94868989D01*
X121982906Y-94868989D01*
X121974000Y-94913760D01*
G37*
X121974000Y-94913760D02*
X121974000Y-94984300D01*
X121871298Y-94984300D01*
X121871298Y-95124466D01*
X121827794Y-95088763D01*
X121804633Y-95076383D01*
X121712550Y-94984300D01*
X121598920Y-94993833D01*
X121597782Y-94993488D01*
X121473300Y-94981228D01*
X120923300Y-94981228D01*
X120798818Y-94993488D01*
X120798300Y-94993645D01*
X120797782Y-94993488D01*
X120673300Y-94981228D01*
X120123300Y-94981228D01*
X119998818Y-94993488D01*
X119998300Y-94993645D01*
X119997782Y-94993488D01*
X119873300Y-94981228D01*
X119560300Y-94981228D01*
X119560300Y-94868989D01*
X121982906Y-94868989D01*
X121974000Y-94913760D01*
M02*
