G04 #@! TF.GenerationSoftware,KiCad,Pcbnew,(5.1.5)-3*
G04 #@! TF.CreationDate,2020-07-17T17:22:00-07:00*
G04 #@! TF.ProjectId,4-mill-vent,342d6d69-6c6c-42d7-9665-6e742e6b6963,rev?*
G04 #@! TF.SameCoordinates,Original*
G04 #@! TF.FileFunction,Other,User*
%FSLAX46Y46*%
G04 Gerber Fmt 4.6, Leading zero omitted, Abs format (unit mm)*
G04 Created by KiCad (PCBNEW (5.1.5)-3) date 2020-07-17 17:22:00*
%MOMM*%
%LPD*%
G04 APERTURE LIST*
%ADD10C,0.150000*%
G04 APERTURE END LIST*
D10*
X130989553Y-128129071D02*
X130799076Y-128129100D01*
X130703846Y-128176734D01*
X130656234Y-128224360D01*
X130561018Y-128367232D01*
X130513428Y-128557716D01*
X130513487Y-128938668D01*
X130561120Y-129033899D01*
X130608747Y-129081510D01*
X130703992Y-129129115D01*
X130894468Y-129129086D01*
X130989699Y-129081452D01*
X131037311Y-129033825D01*
X131084915Y-128938580D01*
X131084879Y-128700485D01*
X131037245Y-128605254D01*
X130989619Y-128557642D01*
X130894373Y-128510038D01*
X130703897Y-128510067D01*
X130608666Y-128557701D01*
X130561054Y-128605327D01*
X130513450Y-128700573D01*
X131941985Y-128462258D02*
X131942087Y-129128924D01*
X131703831Y-128081342D02*
X131465846Y-128795664D01*
X132084893Y-128795569D01*
X132465882Y-129033606D02*
X132513509Y-129081217D01*
X132465897Y-129128844D01*
X132418271Y-129081232D01*
X132465882Y-129033606D01*
X132465897Y-129128844D01*
X132989706Y-129128763D02*
X133180183Y-129128734D01*
X133275413Y-129081100D01*
X133323025Y-129033474D01*
X133418241Y-128890602D01*
X133465831Y-128700118D01*
X133465772Y-128319166D01*
X133418139Y-128223935D01*
X133370512Y-128176323D01*
X133275267Y-128128719D01*
X133084791Y-128128748D01*
X132989560Y-128176382D01*
X132941948Y-128224008D01*
X132894344Y-128319254D01*
X132894380Y-128557349D01*
X132942014Y-128652580D01*
X132989641Y-128700192D01*
X133084886Y-128747796D01*
X133275362Y-128747767D01*
X133370593Y-128700133D01*
X133418205Y-128652507D01*
X133465809Y-128557261D01*
X134322886Y-128128558D02*
X134132410Y-128128587D01*
X134037179Y-128176221D01*
X133989567Y-128223847D01*
X133894351Y-128366719D01*
X133846761Y-128557203D01*
X133846820Y-128938155D01*
X133894454Y-129033386D01*
X133942080Y-129080997D01*
X134037326Y-129128602D01*
X134227802Y-129128572D01*
X134323032Y-129080939D01*
X134370644Y-129033312D01*
X134418249Y-128938067D01*
X134418212Y-128699972D01*
X134370578Y-128604741D01*
X134322952Y-128557129D01*
X134227706Y-128509525D01*
X134037230Y-128509554D01*
X133941999Y-128557188D01*
X133894388Y-128604814D01*
X133846783Y-128700060D01*
X135037172Y-128128448D02*
X135132410Y-128128433D01*
X135227655Y-128176038D01*
X135275281Y-128223649D01*
X135322915Y-128318880D01*
X135370564Y-128509349D01*
X135370600Y-128747444D01*
X135323010Y-128937928D01*
X135275406Y-129033173D01*
X135227794Y-129080799D01*
X135132564Y-129128433D01*
X135037326Y-129128448D01*
X134942080Y-129080843D01*
X134894454Y-129033232D01*
X134846820Y-128938001D01*
X134799172Y-128747532D01*
X134799135Y-128509437D01*
X134846725Y-128318953D01*
X134894329Y-128223708D01*
X134941941Y-128176082D01*
X135037172Y-128128448D01*
X136561135Y-129128213D02*
X136561032Y-128461547D01*
X136561047Y-128556785D02*
X136608659Y-128509158D01*
X136703890Y-128461525D01*
X136846747Y-128461503D01*
X136941992Y-128509107D01*
X136989626Y-128604338D01*
X136989706Y-129128147D01*
X136989626Y-128604338D02*
X137037230Y-128509092D01*
X137132461Y-128461459D01*
X137275318Y-128461437D01*
X137370564Y-128509041D01*
X137418197Y-128604272D01*
X137418278Y-129128081D01*
X137894468Y-129128008D02*
X137894366Y-128461341D01*
X137894380Y-128556579D02*
X137941992Y-128508953D01*
X138037223Y-128461319D01*
X138180080Y-128461297D01*
X138275325Y-128508902D01*
X138322959Y-128604132D01*
X138323040Y-129127942D01*
X138322959Y-128604132D02*
X138370564Y-128508887D01*
X138465794Y-128461253D01*
X138608651Y-128461231D01*
X138703897Y-128508836D01*
X138751531Y-128604067D01*
X138751611Y-129127876D01*
X167136104Y-127371126D02*
X102176104Y-127381126D01*
X167132000Y-100711000D02*
X167136194Y-127957546D01*
X102172000Y-100721000D02*
X102176194Y-127967546D01*
X102176104Y-127381126D02*
X103302517Y-126794532D01*
X102176104Y-127381126D02*
X103302698Y-127967373D01*
X167136104Y-127371126D02*
X166009510Y-126784879D01*
X167136104Y-127371126D02*
X166009691Y-127957720D01*
X200634380Y-111902428D02*
X200634380Y-112473857D01*
X200634380Y-112188142D02*
X199634380Y-112188142D01*
X199777238Y-112283380D01*
X199872476Y-112378619D01*
X199920095Y-112473857D01*
X199634380Y-110997666D02*
X199634380Y-111473857D01*
X200110571Y-111521476D01*
X200062952Y-111473857D01*
X200015333Y-111378619D01*
X200015333Y-111140523D01*
X200062952Y-111045285D01*
X200110571Y-110997666D01*
X200205809Y-110950047D01*
X200443904Y-110950047D01*
X200539142Y-110997666D01*
X200586761Y-111045285D01*
X200634380Y-111140523D01*
X200634380Y-111378619D01*
X200586761Y-111473857D01*
X200539142Y-111521476D01*
X200539142Y-110521476D02*
X200586761Y-110473857D01*
X200634380Y-110521476D01*
X200586761Y-110569095D01*
X200539142Y-110521476D01*
X200634380Y-110521476D01*
X199729619Y-110092904D02*
X199682000Y-110045285D01*
X199634380Y-109950047D01*
X199634380Y-109711952D01*
X199682000Y-109616714D01*
X199729619Y-109569095D01*
X199824857Y-109521476D01*
X199920095Y-109521476D01*
X200062952Y-109569095D01*
X200634380Y-110140523D01*
X200634380Y-109521476D01*
X199967714Y-108664333D02*
X200634380Y-108664333D01*
X199586761Y-108902428D02*
X200301047Y-109140523D01*
X200301047Y-108521476D01*
X199634380Y-107950047D02*
X199634380Y-107854809D01*
X199682000Y-107759571D01*
X199729619Y-107711952D01*
X199824857Y-107664333D01*
X200015333Y-107616714D01*
X200253428Y-107616714D01*
X200443904Y-107664333D01*
X200539142Y-107711952D01*
X200586761Y-107759571D01*
X200634380Y-107854809D01*
X200634380Y-107950047D01*
X200586761Y-108045285D01*
X200539142Y-108092904D01*
X200443904Y-108140523D01*
X200253428Y-108188142D01*
X200015333Y-108188142D01*
X199824857Y-108140523D01*
X199729619Y-108092904D01*
X199682000Y-108045285D01*
X199634380Y-107950047D01*
X200634380Y-106426238D02*
X199967714Y-106426238D01*
X200062952Y-106426238D02*
X200015333Y-106378619D01*
X199967714Y-106283380D01*
X199967714Y-106140523D01*
X200015333Y-106045285D01*
X200110571Y-105997666D01*
X200634380Y-105997666D01*
X200110571Y-105997666D02*
X200015333Y-105950047D01*
X199967714Y-105854809D01*
X199967714Y-105711952D01*
X200015333Y-105616714D01*
X200110571Y-105569095D01*
X200634380Y-105569095D01*
X200634380Y-105092904D02*
X199967714Y-105092904D01*
X200062952Y-105092904D02*
X200015333Y-105045285D01*
X199967714Y-104950047D01*
X199967714Y-104807190D01*
X200015333Y-104711952D01*
X200110571Y-104664333D01*
X200634380Y-104664333D01*
X200110571Y-104664333D02*
X200015333Y-104616714D01*
X199967714Y-104521476D01*
X199967714Y-104378619D01*
X200015333Y-104283380D01*
X200110571Y-104235761D01*
X200634380Y-104235761D01*
X198882000Y-115951000D02*
X198882000Y-100711000D01*
X99822000Y-115951000D02*
X199468421Y-115951000D01*
X99822000Y-100711000D02*
X199468421Y-100711000D01*
X198882000Y-100711000D02*
X199468421Y-101837504D01*
X198882000Y-100711000D02*
X198295579Y-101837504D01*
X198882000Y-115951000D02*
X199468421Y-114824496D01*
X198882000Y-115951000D02*
X198295579Y-114824496D01*
X188839380Y-118077785D02*
X188839380Y-117458738D01*
X189220333Y-117792071D01*
X189220333Y-117649214D01*
X189267952Y-117553976D01*
X189315571Y-117506357D01*
X189410809Y-117458738D01*
X189648904Y-117458738D01*
X189744142Y-117506357D01*
X189791761Y-117553976D01*
X189839380Y-117649214D01*
X189839380Y-117934928D01*
X189791761Y-118030166D01*
X189744142Y-118077785D01*
X189744142Y-117030166D02*
X189791761Y-116982547D01*
X189839380Y-117030166D01*
X189791761Y-117077785D01*
X189744142Y-117030166D01*
X189839380Y-117030166D01*
X189839380Y-116030166D02*
X189839380Y-116601595D01*
X189839380Y-116315880D02*
X188839380Y-116315880D01*
X188982238Y-116411119D01*
X189077476Y-116506357D01*
X189125095Y-116601595D01*
X188839380Y-115696833D02*
X188839380Y-115030166D01*
X189839380Y-115458738D01*
X188839380Y-114173023D02*
X188839380Y-114649214D01*
X189315571Y-114696833D01*
X189267952Y-114649214D01*
X189220333Y-114553976D01*
X189220333Y-114315880D01*
X189267952Y-114220642D01*
X189315571Y-114173023D01*
X189410809Y-114125404D01*
X189648904Y-114125404D01*
X189744142Y-114173023D01*
X189791761Y-114220642D01*
X189839380Y-114315880D01*
X189839380Y-114553976D01*
X189791761Y-114649214D01*
X189744142Y-114696833D01*
X189839380Y-112934928D02*
X189172714Y-112934928D01*
X189267952Y-112934928D02*
X189220333Y-112887309D01*
X189172714Y-112792071D01*
X189172714Y-112649214D01*
X189220333Y-112553976D01*
X189315571Y-112506357D01*
X189839380Y-112506357D01*
X189315571Y-112506357D02*
X189220333Y-112458738D01*
X189172714Y-112363500D01*
X189172714Y-112220642D01*
X189220333Y-112125404D01*
X189315571Y-112077785D01*
X189839380Y-112077785D01*
X189839380Y-111601595D02*
X189172714Y-111601595D01*
X189267952Y-111601595D02*
X189220333Y-111553976D01*
X189172714Y-111458738D01*
X189172714Y-111315880D01*
X189220333Y-111220642D01*
X189315571Y-111173023D01*
X189839380Y-111173023D01*
X189315571Y-111173023D02*
X189220333Y-111125404D01*
X189172714Y-111030166D01*
X189172714Y-110887309D01*
X189220333Y-110792071D01*
X189315571Y-110744452D01*
X189839380Y-110744452D01*
X188087000Y-115951000D02*
X188087000Y-112776000D01*
X139827000Y-115951000D02*
X188673421Y-115951000D01*
X139827000Y-112776000D02*
X188673421Y-112776000D01*
X188087000Y-112776000D02*
X188673421Y-113902504D01*
X188087000Y-112776000D02*
X187500579Y-113902504D01*
X188087000Y-115951000D02*
X188673421Y-114824496D01*
X188087000Y-115951000D02*
X187500579Y-114824496D01*
X149336642Y-125053619D02*
X149384261Y-125006000D01*
X149479500Y-124958380D01*
X149717595Y-124958380D01*
X149812833Y-125006000D01*
X149860452Y-125053619D01*
X149908071Y-125148857D01*
X149908071Y-125244095D01*
X149860452Y-125386952D01*
X149289023Y-125958380D01*
X149908071Y-125958380D01*
X150241404Y-124958380D02*
X150908071Y-124958380D01*
X150479500Y-125958380D01*
X151289023Y-125863142D02*
X151336642Y-125910761D01*
X151289023Y-125958380D01*
X151241404Y-125910761D01*
X151289023Y-125863142D01*
X151289023Y-125958380D01*
X151669976Y-124958380D02*
X152289023Y-124958380D01*
X151955690Y-125339333D01*
X152098547Y-125339333D01*
X152193785Y-125386952D01*
X152241404Y-125434571D01*
X152289023Y-125529809D01*
X152289023Y-125767904D01*
X152241404Y-125863142D01*
X152193785Y-125910761D01*
X152098547Y-125958380D01*
X151812833Y-125958380D01*
X151717595Y-125910761D01*
X151669976Y-125863142D01*
X152908071Y-124958380D02*
X153003309Y-124958380D01*
X153098547Y-125006000D01*
X153146166Y-125053619D01*
X153193785Y-125148857D01*
X153241404Y-125339333D01*
X153241404Y-125577428D01*
X153193785Y-125767904D01*
X153146166Y-125863142D01*
X153098547Y-125910761D01*
X153003309Y-125958380D01*
X152908071Y-125958380D01*
X152812833Y-125910761D01*
X152765214Y-125863142D01*
X152717595Y-125767904D01*
X152669976Y-125577428D01*
X152669976Y-125339333D01*
X152717595Y-125148857D01*
X152765214Y-125053619D01*
X152812833Y-125006000D01*
X152908071Y-124958380D01*
X154146166Y-124958380D02*
X153669976Y-124958380D01*
X153622357Y-125434571D01*
X153669976Y-125386952D01*
X153765214Y-125339333D01*
X154003309Y-125339333D01*
X154098547Y-125386952D01*
X154146166Y-125434571D01*
X154193785Y-125529809D01*
X154193785Y-125767904D01*
X154146166Y-125863142D01*
X154098547Y-125910761D01*
X154003309Y-125958380D01*
X153765214Y-125958380D01*
X153669976Y-125910761D01*
X153622357Y-125863142D01*
X155384261Y-125958380D02*
X155384261Y-125291714D01*
X155384261Y-125386952D02*
X155431880Y-125339333D01*
X155527119Y-125291714D01*
X155669976Y-125291714D01*
X155765214Y-125339333D01*
X155812833Y-125434571D01*
X155812833Y-125958380D01*
X155812833Y-125434571D02*
X155860452Y-125339333D01*
X155955690Y-125291714D01*
X156098547Y-125291714D01*
X156193785Y-125339333D01*
X156241404Y-125434571D01*
X156241404Y-125958380D01*
X156717595Y-125958380D02*
X156717595Y-125291714D01*
X156717595Y-125386952D02*
X156765214Y-125339333D01*
X156860452Y-125291714D01*
X157003309Y-125291714D01*
X157098547Y-125339333D01*
X157146166Y-125434571D01*
X157146166Y-125958380D01*
X157146166Y-125434571D02*
X157193785Y-125339333D01*
X157289023Y-125291714D01*
X157431880Y-125291714D01*
X157527119Y-125339333D01*
X157574738Y-125434571D01*
X157574738Y-125958380D01*
X167132000Y-124206000D02*
X139827000Y-124206000D01*
X167132000Y-115951000D02*
X167132000Y-124792421D01*
X139827000Y-115951000D02*
X139827000Y-124792421D01*
X139827000Y-124206000D02*
X140953504Y-123619579D01*
X139827000Y-124206000D02*
X140953504Y-124792421D01*
X167132000Y-124206000D02*
X166005496Y-123619579D01*
X167132000Y-124206000D02*
X166005496Y-124792421D01*
X194887619Y-109585523D02*
X194887619Y-109395047D01*
X194840000Y-109299809D01*
X194792380Y-109252190D01*
X194649523Y-109156952D01*
X194459047Y-109109333D01*
X194078095Y-109109333D01*
X193982857Y-109156952D01*
X193935238Y-109204571D01*
X193887619Y-109299809D01*
X193887619Y-109490285D01*
X193935238Y-109585523D01*
X193982857Y-109633142D01*
X194078095Y-109680761D01*
X194316190Y-109680761D01*
X194411428Y-109633142D01*
X194459047Y-109585523D01*
X194506666Y-109490285D01*
X194506666Y-109299809D01*
X194459047Y-109204571D01*
X194411428Y-109156952D01*
X194316190Y-109109333D01*
X193982857Y-110109333D02*
X193935238Y-110156952D01*
X193887619Y-110109333D01*
X193935238Y-110061714D01*
X193982857Y-110109333D01*
X193887619Y-110109333D01*
X194887619Y-110490285D02*
X194887619Y-111109333D01*
X194506666Y-110776000D01*
X194506666Y-110918857D01*
X194459047Y-111014095D01*
X194411428Y-111061714D01*
X194316190Y-111109333D01*
X194078095Y-111109333D01*
X193982857Y-111061714D01*
X193935238Y-111014095D01*
X193887619Y-110918857D01*
X193887619Y-110633142D01*
X193935238Y-110537904D01*
X193982857Y-110490285D01*
X194887619Y-112014095D02*
X194887619Y-111537904D01*
X194411428Y-111490285D01*
X194459047Y-111537904D01*
X194506666Y-111633142D01*
X194506666Y-111871238D01*
X194459047Y-111966476D01*
X194411428Y-112014095D01*
X194316190Y-112061714D01*
X194078095Y-112061714D01*
X193982857Y-112014095D01*
X193935238Y-111966476D01*
X193887619Y-111871238D01*
X193887619Y-111633142D01*
X193935238Y-111537904D01*
X193982857Y-111490285D01*
X194887619Y-112680761D02*
X194887619Y-112776000D01*
X194840000Y-112871238D01*
X194792380Y-112918857D01*
X194697142Y-112966476D01*
X194506666Y-113014095D01*
X194268571Y-113014095D01*
X194078095Y-112966476D01*
X193982857Y-112918857D01*
X193935238Y-112871238D01*
X193887619Y-112776000D01*
X193887619Y-112680761D01*
X193935238Y-112585523D01*
X193982857Y-112537904D01*
X194078095Y-112490285D01*
X194268571Y-112442666D01*
X194506666Y-112442666D01*
X194697142Y-112490285D01*
X194792380Y-112537904D01*
X194840000Y-112585523D01*
X194887619Y-112680761D01*
X193887619Y-114204571D02*
X194554285Y-114204571D01*
X194459047Y-114204571D02*
X194506666Y-114252190D01*
X194554285Y-114347428D01*
X194554285Y-114490285D01*
X194506666Y-114585523D01*
X194411428Y-114633142D01*
X193887619Y-114633142D01*
X194411428Y-114633142D02*
X194506666Y-114680761D01*
X194554285Y-114776000D01*
X194554285Y-114918857D01*
X194506666Y-115014095D01*
X194411428Y-115061714D01*
X193887619Y-115061714D01*
X193887619Y-115537904D02*
X194554285Y-115537904D01*
X194459047Y-115537904D02*
X194506666Y-115585523D01*
X194554285Y-115680761D01*
X194554285Y-115823619D01*
X194506666Y-115918857D01*
X194411428Y-115966476D01*
X193887619Y-115966476D01*
X194411428Y-115966476D02*
X194506666Y-116014095D01*
X194554285Y-116109333D01*
X194554285Y-116252190D01*
X194506666Y-116347428D01*
X194411428Y-116395047D01*
X193887619Y-116395047D01*
X193040000Y-109601000D02*
X193040000Y-115951000D01*
X174244000Y-109601000D02*
X193626421Y-109601000D01*
X174244000Y-115951000D02*
X193626421Y-115951000D01*
X193040000Y-115951000D02*
X192453579Y-114824496D01*
X193040000Y-115951000D02*
X193626421Y-114824496D01*
X193040000Y-109601000D02*
X192453579Y-110727504D01*
X193040000Y-109601000D02*
X193626421Y-110727504D01*
X166973714Y-56953380D02*
X167640380Y-56953380D01*
X167211809Y-57953380D01*
X168021333Y-57858142D02*
X168068952Y-57905761D01*
X168021333Y-57953380D01*
X167973714Y-57905761D01*
X168021333Y-57858142D01*
X168021333Y-57953380D01*
X169021333Y-57953380D02*
X168449904Y-57953380D01*
X168735619Y-57953380D02*
X168735619Y-56953380D01*
X168640380Y-57096238D01*
X168545142Y-57191476D01*
X168449904Y-57239095D01*
X169973714Y-57953380D02*
X169402285Y-57953380D01*
X169688000Y-57953380D02*
X169688000Y-56953380D01*
X169592761Y-57096238D01*
X169497523Y-57191476D01*
X169402285Y-57239095D01*
X170354666Y-57048619D02*
X170402285Y-57001000D01*
X170497523Y-56953380D01*
X170735619Y-56953380D01*
X170830857Y-57001000D01*
X170878476Y-57048619D01*
X170926095Y-57143857D01*
X170926095Y-57239095D01*
X170878476Y-57381952D01*
X170307047Y-57953380D01*
X170926095Y-57953380D01*
X172116571Y-57953380D02*
X172116571Y-57286714D01*
X172116571Y-57381952D02*
X172164190Y-57334333D01*
X172259428Y-57286714D01*
X172402285Y-57286714D01*
X172497523Y-57334333D01*
X172545142Y-57429571D01*
X172545142Y-57953380D01*
X172545142Y-57429571D02*
X172592761Y-57334333D01*
X172688000Y-57286714D01*
X172830857Y-57286714D01*
X172926095Y-57334333D01*
X172973714Y-57429571D01*
X172973714Y-57953380D01*
X173449904Y-57953380D02*
X173449904Y-57286714D01*
X173449904Y-57381952D02*
X173497523Y-57334333D01*
X173592761Y-57286714D01*
X173735619Y-57286714D01*
X173830857Y-57334333D01*
X173878476Y-57429571D01*
X173878476Y-57953380D01*
X173878476Y-57429571D02*
X173926095Y-57334333D01*
X174021333Y-57286714D01*
X174164190Y-57286714D01*
X174259428Y-57334333D01*
X174307047Y-57429571D01*
X174307047Y-57953380D01*
X167132000Y-58801000D02*
X174244000Y-58801000D01*
X167132000Y-115951000D02*
X167132000Y-58214579D01*
X174244000Y-115951000D02*
X174244000Y-58214579D01*
X174244000Y-58801000D02*
X173117496Y-59387421D01*
X174244000Y-58801000D02*
X173117496Y-58214579D01*
X167132000Y-58801000D02*
X168258504Y-59387421D01*
X167132000Y-58801000D02*
X168258504Y-58214579D01*
X166529142Y-60763380D02*
X166052952Y-60763380D01*
X166005333Y-61239571D01*
X166052952Y-61191952D01*
X166148190Y-61144333D01*
X166386285Y-61144333D01*
X166481523Y-61191952D01*
X166529142Y-61239571D01*
X166576761Y-61334809D01*
X166576761Y-61572904D01*
X166529142Y-61668142D01*
X166481523Y-61715761D01*
X166386285Y-61763380D01*
X166148190Y-61763380D01*
X166052952Y-61715761D01*
X166005333Y-61668142D01*
X167005333Y-61668142D02*
X167052952Y-61715761D01*
X167005333Y-61763380D01*
X166957714Y-61715761D01*
X167005333Y-61668142D01*
X167005333Y-61763380D01*
X167672000Y-60763380D02*
X167767238Y-60763380D01*
X167862476Y-60811000D01*
X167910095Y-60858619D01*
X167957714Y-60953857D01*
X168005333Y-61144333D01*
X168005333Y-61382428D01*
X167957714Y-61572904D01*
X167910095Y-61668142D01*
X167862476Y-61715761D01*
X167767238Y-61763380D01*
X167672000Y-61763380D01*
X167576761Y-61715761D01*
X167529142Y-61668142D01*
X167481523Y-61572904D01*
X167433904Y-61382428D01*
X167433904Y-61144333D01*
X167481523Y-60953857D01*
X167529142Y-60858619D01*
X167576761Y-60811000D01*
X167672000Y-60763380D01*
X168576761Y-61191952D02*
X168481523Y-61144333D01*
X168433904Y-61096714D01*
X168386285Y-61001476D01*
X168386285Y-60953857D01*
X168433904Y-60858619D01*
X168481523Y-60811000D01*
X168576761Y-60763380D01*
X168767238Y-60763380D01*
X168862476Y-60811000D01*
X168910095Y-60858619D01*
X168957714Y-60953857D01*
X168957714Y-61001476D01*
X168910095Y-61096714D01*
X168862476Y-61144333D01*
X168767238Y-61191952D01*
X168576761Y-61191952D01*
X168481523Y-61239571D01*
X168433904Y-61287190D01*
X168386285Y-61382428D01*
X168386285Y-61572904D01*
X168433904Y-61668142D01*
X168481523Y-61715761D01*
X168576761Y-61763380D01*
X168767238Y-61763380D01*
X168862476Y-61715761D01*
X168910095Y-61668142D01*
X168957714Y-61572904D01*
X168957714Y-61382428D01*
X168910095Y-61287190D01*
X168862476Y-61239571D01*
X168767238Y-61191952D01*
X169576761Y-60763380D02*
X169672000Y-60763380D01*
X169767238Y-60811000D01*
X169814857Y-60858619D01*
X169862476Y-60953857D01*
X169910095Y-61144333D01*
X169910095Y-61382428D01*
X169862476Y-61572904D01*
X169814857Y-61668142D01*
X169767238Y-61715761D01*
X169672000Y-61763380D01*
X169576761Y-61763380D01*
X169481523Y-61715761D01*
X169433904Y-61668142D01*
X169386285Y-61572904D01*
X169338666Y-61382428D01*
X169338666Y-61144333D01*
X169386285Y-60953857D01*
X169433904Y-60858619D01*
X169481523Y-60811000D01*
X169576761Y-60763380D01*
X171100571Y-61763380D02*
X171100571Y-61096714D01*
X171100571Y-61191952D02*
X171148190Y-61144333D01*
X171243428Y-61096714D01*
X171386285Y-61096714D01*
X171481523Y-61144333D01*
X171529142Y-61239571D01*
X171529142Y-61763380D01*
X171529142Y-61239571D02*
X171576761Y-61144333D01*
X171672000Y-61096714D01*
X171814857Y-61096714D01*
X171910095Y-61144333D01*
X171957714Y-61239571D01*
X171957714Y-61763380D01*
X172433904Y-61763380D02*
X172433904Y-61096714D01*
X172433904Y-61191952D02*
X172481523Y-61144333D01*
X172576761Y-61096714D01*
X172719619Y-61096714D01*
X172814857Y-61144333D01*
X172862476Y-61239571D01*
X172862476Y-61763380D01*
X172862476Y-61239571D02*
X172910095Y-61144333D01*
X173005333Y-61096714D01*
X173148190Y-61096714D01*
X173243428Y-61144333D01*
X173291047Y-61239571D01*
X173291047Y-61763380D01*
X167132000Y-62611000D02*
X172212000Y-62611000D01*
X167132000Y-115951000D02*
X167132000Y-62024579D01*
X172212000Y-115951000D02*
X172212000Y-62024579D01*
X172212000Y-62611000D02*
X171085496Y-63197421D01*
X172212000Y-62611000D02*
X171085496Y-62024579D01*
X167132000Y-62611000D02*
X168258504Y-63197421D01*
X167132000Y-62611000D02*
X168258504Y-62024579D01*
X136255571Y-121767380D02*
X135684142Y-121767380D01*
X135969857Y-121767380D02*
X135969857Y-120767380D01*
X135874619Y-120910238D01*
X135779380Y-121005476D01*
X135684142Y-121053095D01*
X136827000Y-121195952D02*
X136731761Y-121148333D01*
X136684142Y-121100714D01*
X136636523Y-121005476D01*
X136636523Y-120957857D01*
X136684142Y-120862619D01*
X136731761Y-120815000D01*
X136827000Y-120767380D01*
X137017476Y-120767380D01*
X137112714Y-120815000D01*
X137160333Y-120862619D01*
X137207952Y-120957857D01*
X137207952Y-121005476D01*
X137160333Y-121100714D01*
X137112714Y-121148333D01*
X137017476Y-121195952D01*
X136827000Y-121195952D01*
X136731761Y-121243571D01*
X136684142Y-121291190D01*
X136636523Y-121386428D01*
X136636523Y-121576904D01*
X136684142Y-121672142D01*
X136731761Y-121719761D01*
X136827000Y-121767380D01*
X137017476Y-121767380D01*
X137112714Y-121719761D01*
X137160333Y-121672142D01*
X137207952Y-121576904D01*
X137207952Y-121386428D01*
X137160333Y-121291190D01*
X137112714Y-121243571D01*
X137017476Y-121195952D01*
X137636523Y-121672142D02*
X137684142Y-121719761D01*
X137636523Y-121767380D01*
X137588904Y-121719761D01*
X137636523Y-121672142D01*
X137636523Y-121767380D01*
X138636523Y-121767380D02*
X138065095Y-121767380D01*
X138350809Y-121767380D02*
X138350809Y-120767380D01*
X138255571Y-120910238D01*
X138160333Y-121005476D01*
X138065095Y-121053095D01*
X139207952Y-121195952D02*
X139112714Y-121148333D01*
X139065095Y-121100714D01*
X139017476Y-121005476D01*
X139017476Y-120957857D01*
X139065095Y-120862619D01*
X139112714Y-120815000D01*
X139207952Y-120767380D01*
X139398428Y-120767380D01*
X139493666Y-120815000D01*
X139541285Y-120862619D01*
X139588904Y-120957857D01*
X139588904Y-121005476D01*
X139541285Y-121100714D01*
X139493666Y-121148333D01*
X139398428Y-121195952D01*
X139207952Y-121195952D01*
X139112714Y-121243571D01*
X139065095Y-121291190D01*
X139017476Y-121386428D01*
X139017476Y-121576904D01*
X139065095Y-121672142D01*
X139112714Y-121719761D01*
X139207952Y-121767380D01*
X139398428Y-121767380D01*
X139493666Y-121719761D01*
X139541285Y-121672142D01*
X139588904Y-121576904D01*
X139588904Y-121386428D01*
X139541285Y-121291190D01*
X139493666Y-121243571D01*
X139398428Y-121195952D01*
X140446047Y-120767380D02*
X140255571Y-120767380D01*
X140160333Y-120815000D01*
X140112714Y-120862619D01*
X140017476Y-121005476D01*
X139969857Y-121195952D01*
X139969857Y-121576904D01*
X140017476Y-121672142D01*
X140065095Y-121719761D01*
X140160333Y-121767380D01*
X140350809Y-121767380D01*
X140446047Y-121719761D01*
X140493666Y-121672142D01*
X140541285Y-121576904D01*
X140541285Y-121338809D01*
X140493666Y-121243571D01*
X140446047Y-121195952D01*
X140350809Y-121148333D01*
X140160333Y-121148333D01*
X140065095Y-121195952D01*
X140017476Y-121243571D01*
X139969857Y-121338809D01*
X141731761Y-121767380D02*
X141731761Y-121100714D01*
X141731761Y-121195952D02*
X141779380Y-121148333D01*
X141874619Y-121100714D01*
X142017476Y-121100714D01*
X142112714Y-121148333D01*
X142160333Y-121243571D01*
X142160333Y-121767380D01*
X142160333Y-121243571D02*
X142207952Y-121148333D01*
X142303190Y-121100714D01*
X142446047Y-121100714D01*
X142541285Y-121148333D01*
X142588904Y-121243571D01*
X142588904Y-121767380D01*
X143065095Y-121767380D02*
X143065095Y-121100714D01*
X143065095Y-121195952D02*
X143112714Y-121148333D01*
X143207952Y-121100714D01*
X143350809Y-121100714D01*
X143446047Y-121148333D01*
X143493666Y-121243571D01*
X143493666Y-121767380D01*
X143493666Y-121243571D02*
X143541285Y-121148333D01*
X143636523Y-121100714D01*
X143779380Y-121100714D01*
X143874619Y-121148333D01*
X143922238Y-121243571D01*
X143922238Y-121767380D01*
X130733800Y-120015000D02*
X148920200Y-120015000D01*
X130733800Y-115951000D02*
X130733800Y-120601421D01*
X148920200Y-115951000D02*
X148920200Y-120601421D01*
X148920200Y-120015000D02*
X147793696Y-120601421D01*
X148920200Y-120015000D02*
X147793696Y-119428579D01*
X130733800Y-120015000D02*
X131860304Y-120601421D01*
X130733800Y-120015000D02*
X131860304Y-119428579D01*
X154454671Y-121767380D02*
X153883242Y-121767380D01*
X154168957Y-121767380D02*
X154168957Y-120767380D01*
X154073719Y-120910238D01*
X153978480Y-121005476D01*
X153883242Y-121053095D01*
X155026100Y-121195952D02*
X154930861Y-121148333D01*
X154883242Y-121100714D01*
X154835623Y-121005476D01*
X154835623Y-120957857D01*
X154883242Y-120862619D01*
X154930861Y-120815000D01*
X155026100Y-120767380D01*
X155216576Y-120767380D01*
X155311814Y-120815000D01*
X155359433Y-120862619D01*
X155407052Y-120957857D01*
X155407052Y-121005476D01*
X155359433Y-121100714D01*
X155311814Y-121148333D01*
X155216576Y-121195952D01*
X155026100Y-121195952D01*
X154930861Y-121243571D01*
X154883242Y-121291190D01*
X154835623Y-121386428D01*
X154835623Y-121576904D01*
X154883242Y-121672142D01*
X154930861Y-121719761D01*
X155026100Y-121767380D01*
X155216576Y-121767380D01*
X155311814Y-121719761D01*
X155359433Y-121672142D01*
X155407052Y-121576904D01*
X155407052Y-121386428D01*
X155359433Y-121291190D01*
X155311814Y-121243571D01*
X155216576Y-121195952D01*
X155835623Y-121672142D02*
X155883242Y-121719761D01*
X155835623Y-121767380D01*
X155788004Y-121719761D01*
X155835623Y-121672142D01*
X155835623Y-121767380D01*
X156264195Y-120862619D02*
X156311814Y-120815000D01*
X156407052Y-120767380D01*
X156645147Y-120767380D01*
X156740385Y-120815000D01*
X156788004Y-120862619D01*
X156835623Y-120957857D01*
X156835623Y-121053095D01*
X156788004Y-121195952D01*
X156216576Y-121767380D01*
X156835623Y-121767380D01*
X157788004Y-121767380D02*
X157216576Y-121767380D01*
X157502290Y-121767380D02*
X157502290Y-120767380D01*
X157407052Y-120910238D01*
X157311814Y-121005476D01*
X157216576Y-121053095D01*
X158168957Y-120862619D02*
X158216576Y-120815000D01*
X158311814Y-120767380D01*
X158549909Y-120767380D01*
X158645147Y-120815000D01*
X158692766Y-120862619D01*
X158740385Y-120957857D01*
X158740385Y-121053095D01*
X158692766Y-121195952D01*
X158121338Y-121767380D01*
X158740385Y-121767380D01*
X159930861Y-121767380D02*
X159930861Y-121100714D01*
X159930861Y-121195952D02*
X159978480Y-121148333D01*
X160073719Y-121100714D01*
X160216576Y-121100714D01*
X160311814Y-121148333D01*
X160359433Y-121243571D01*
X160359433Y-121767380D01*
X160359433Y-121243571D02*
X160407052Y-121148333D01*
X160502290Y-121100714D01*
X160645147Y-121100714D01*
X160740385Y-121148333D01*
X160788004Y-121243571D01*
X160788004Y-121767380D01*
X161264195Y-121767380D02*
X161264195Y-121100714D01*
X161264195Y-121195952D02*
X161311814Y-121148333D01*
X161407052Y-121100714D01*
X161549909Y-121100714D01*
X161645147Y-121148333D01*
X161692766Y-121243571D01*
X161692766Y-121767380D01*
X161692766Y-121243571D02*
X161740385Y-121148333D01*
X161835623Y-121100714D01*
X161978480Y-121100714D01*
X162073719Y-121148333D01*
X162121338Y-121243571D01*
X162121338Y-121767380D01*
X167132000Y-120015000D02*
X148920200Y-120015000D01*
X167132000Y-100711000D02*
X167132000Y-120601421D01*
X148920200Y-100711000D02*
X148920200Y-120601421D01*
X148920200Y-120015000D02*
X150046704Y-119428579D01*
X148920200Y-120015000D02*
X150046704Y-120601421D01*
X167132000Y-120015000D02*
X166005496Y-119428579D01*
X167132000Y-120015000D02*
X166005496Y-120601421D01*
X118056471Y-121716580D02*
X117485042Y-121716580D01*
X117770757Y-121716580D02*
X117770757Y-120716580D01*
X117675519Y-120859438D01*
X117580280Y-120954676D01*
X117485042Y-121002295D01*
X118627900Y-121145152D02*
X118532661Y-121097533D01*
X118485042Y-121049914D01*
X118437423Y-120954676D01*
X118437423Y-120907057D01*
X118485042Y-120811819D01*
X118532661Y-120764200D01*
X118627900Y-120716580D01*
X118818376Y-120716580D01*
X118913614Y-120764200D01*
X118961233Y-120811819D01*
X119008852Y-120907057D01*
X119008852Y-120954676D01*
X118961233Y-121049914D01*
X118913614Y-121097533D01*
X118818376Y-121145152D01*
X118627900Y-121145152D01*
X118532661Y-121192771D01*
X118485042Y-121240390D01*
X118437423Y-121335628D01*
X118437423Y-121526104D01*
X118485042Y-121621342D01*
X118532661Y-121668961D01*
X118627900Y-121716580D01*
X118818376Y-121716580D01*
X118913614Y-121668961D01*
X118961233Y-121621342D01*
X119008852Y-121526104D01*
X119008852Y-121335628D01*
X118961233Y-121240390D01*
X118913614Y-121192771D01*
X118818376Y-121145152D01*
X119437423Y-121621342D02*
X119485042Y-121668961D01*
X119437423Y-121716580D01*
X119389804Y-121668961D01*
X119437423Y-121621342D01*
X119437423Y-121716580D01*
X119865995Y-120811819D02*
X119913614Y-120764200D01*
X120008852Y-120716580D01*
X120246947Y-120716580D01*
X120342185Y-120764200D01*
X120389804Y-120811819D01*
X120437423Y-120907057D01*
X120437423Y-121002295D01*
X120389804Y-121145152D01*
X119818376Y-121716580D01*
X120437423Y-121716580D01*
X121389804Y-121716580D02*
X120818376Y-121716580D01*
X121104090Y-121716580D02*
X121104090Y-120716580D01*
X121008852Y-120859438D01*
X120913614Y-120954676D01*
X120818376Y-121002295D01*
X121770757Y-120811819D02*
X121818376Y-120764200D01*
X121913614Y-120716580D01*
X122151709Y-120716580D01*
X122246947Y-120764200D01*
X122294566Y-120811819D01*
X122342185Y-120907057D01*
X122342185Y-121002295D01*
X122294566Y-121145152D01*
X121723138Y-121716580D01*
X122342185Y-121716580D01*
X123532661Y-121716580D02*
X123532661Y-121049914D01*
X123532661Y-121145152D02*
X123580280Y-121097533D01*
X123675519Y-121049914D01*
X123818376Y-121049914D01*
X123913614Y-121097533D01*
X123961233Y-121192771D01*
X123961233Y-121716580D01*
X123961233Y-121192771D02*
X124008852Y-121097533D01*
X124104090Y-121049914D01*
X124246947Y-121049914D01*
X124342185Y-121097533D01*
X124389804Y-121192771D01*
X124389804Y-121716580D01*
X124865995Y-121716580D02*
X124865995Y-121049914D01*
X124865995Y-121145152D02*
X124913614Y-121097533D01*
X125008852Y-121049914D01*
X125151709Y-121049914D01*
X125246947Y-121097533D01*
X125294566Y-121192771D01*
X125294566Y-121716580D01*
X125294566Y-121192771D02*
X125342185Y-121097533D01*
X125437423Y-121049914D01*
X125580280Y-121049914D01*
X125675519Y-121097533D01*
X125723138Y-121192771D01*
X125723138Y-121716580D01*
X112522000Y-119964200D02*
X130733800Y-119964200D01*
X112522000Y-100711000D02*
X112522000Y-120550621D01*
X130733800Y-100711000D02*
X130733800Y-120550621D01*
X130733800Y-119964200D02*
X129607296Y-120550621D01*
X130733800Y-119964200D02*
X129607296Y-119377779D01*
X112522000Y-119964200D02*
X113648504Y-120550621D01*
X112522000Y-119964200D02*
X113648504Y-119377779D01*
X158988571Y-65573380D02*
X159179047Y-65573380D01*
X159274285Y-65525761D01*
X159321904Y-65478142D01*
X159417142Y-65335285D01*
X159464761Y-65144809D01*
X159464761Y-64763857D01*
X159417142Y-64668619D01*
X159369523Y-64621000D01*
X159274285Y-64573380D01*
X159083809Y-64573380D01*
X158988571Y-64621000D01*
X158940952Y-64668619D01*
X158893333Y-64763857D01*
X158893333Y-65001952D01*
X158940952Y-65097190D01*
X158988571Y-65144809D01*
X159083809Y-65192428D01*
X159274285Y-65192428D01*
X159369523Y-65144809D01*
X159417142Y-65097190D01*
X159464761Y-65001952D01*
X159893333Y-65478142D02*
X159940952Y-65525761D01*
X159893333Y-65573380D01*
X159845714Y-65525761D01*
X159893333Y-65478142D01*
X159893333Y-65573380D01*
X160893333Y-65573380D02*
X160321904Y-65573380D01*
X160607619Y-65573380D02*
X160607619Y-64573380D01*
X160512380Y-64716238D01*
X160417142Y-64811476D01*
X160321904Y-64859095D01*
X161750476Y-64906714D02*
X161750476Y-65573380D01*
X161512380Y-64525761D02*
X161274285Y-65240047D01*
X161893333Y-65240047D01*
X162702857Y-64906714D02*
X162702857Y-65573380D01*
X162464761Y-64525761D02*
X162226666Y-65240047D01*
X162845714Y-65240047D01*
X163988571Y-65573380D02*
X163988571Y-64906714D01*
X163988571Y-65001952D02*
X164036190Y-64954333D01*
X164131428Y-64906714D01*
X164274285Y-64906714D01*
X164369523Y-64954333D01*
X164417142Y-65049571D01*
X164417142Y-65573380D01*
X164417142Y-65049571D02*
X164464761Y-64954333D01*
X164560000Y-64906714D01*
X164702857Y-64906714D01*
X164798095Y-64954333D01*
X164845714Y-65049571D01*
X164845714Y-65573380D01*
X165321904Y-65573380D02*
X165321904Y-64906714D01*
X165321904Y-65001952D02*
X165369523Y-64954333D01*
X165464761Y-64906714D01*
X165607619Y-64906714D01*
X165702857Y-64954333D01*
X165750476Y-65049571D01*
X165750476Y-65573380D01*
X165750476Y-65049571D02*
X165798095Y-64954333D01*
X165893333Y-64906714D01*
X166036190Y-64906714D01*
X166131428Y-64954333D01*
X166179047Y-65049571D01*
X166179047Y-65573380D01*
X157988000Y-66421000D02*
X167132000Y-66421000D01*
X157988000Y-85471000D02*
X157988000Y-65834579D01*
X167132000Y-85471000D02*
X167132000Y-65834579D01*
X167132000Y-66421000D02*
X166005496Y-67007421D01*
X167132000Y-66421000D02*
X166005496Y-65834579D01*
X157988000Y-66421000D02*
X159114504Y-67007421D01*
X157988000Y-66421000D02*
X159114504Y-65834579D01*
X149876321Y-65573380D02*
X150066797Y-65573380D01*
X150162035Y-65525761D01*
X150209654Y-65478142D01*
X150304892Y-65335285D01*
X150352511Y-65144809D01*
X150352511Y-64763857D01*
X150304892Y-64668619D01*
X150257273Y-64621000D01*
X150162035Y-64573380D01*
X149971559Y-64573380D01*
X149876321Y-64621000D01*
X149828702Y-64668619D01*
X149781083Y-64763857D01*
X149781083Y-65001952D01*
X149828702Y-65097190D01*
X149876321Y-65144809D01*
X149971559Y-65192428D01*
X150162035Y-65192428D01*
X150257273Y-65144809D01*
X150304892Y-65097190D01*
X150352511Y-65001952D01*
X150781083Y-65478142D02*
X150828702Y-65525761D01*
X150781083Y-65573380D01*
X150733464Y-65525761D01*
X150781083Y-65478142D01*
X150781083Y-65573380D01*
X151447750Y-64573380D02*
X151542988Y-64573380D01*
X151638226Y-64621000D01*
X151685845Y-64668619D01*
X151733464Y-64763857D01*
X151781083Y-64954333D01*
X151781083Y-65192428D01*
X151733464Y-65382904D01*
X151685845Y-65478142D01*
X151638226Y-65525761D01*
X151542988Y-65573380D01*
X151447750Y-65573380D01*
X151352511Y-65525761D01*
X151304892Y-65478142D01*
X151257273Y-65382904D01*
X151209654Y-65192428D01*
X151209654Y-64954333D01*
X151257273Y-64763857D01*
X151304892Y-64668619D01*
X151352511Y-64621000D01*
X151447750Y-64573380D01*
X152352511Y-65001952D02*
X152257273Y-64954333D01*
X152209654Y-64906714D01*
X152162035Y-64811476D01*
X152162035Y-64763857D01*
X152209654Y-64668619D01*
X152257273Y-64621000D01*
X152352511Y-64573380D01*
X152542988Y-64573380D01*
X152638226Y-64621000D01*
X152685845Y-64668619D01*
X152733464Y-64763857D01*
X152733464Y-64811476D01*
X152685845Y-64906714D01*
X152638226Y-64954333D01*
X152542988Y-65001952D01*
X152352511Y-65001952D01*
X152257273Y-65049571D01*
X152209654Y-65097190D01*
X152162035Y-65192428D01*
X152162035Y-65382904D01*
X152209654Y-65478142D01*
X152257273Y-65525761D01*
X152352511Y-65573380D01*
X152542988Y-65573380D01*
X152638226Y-65525761D01*
X152685845Y-65478142D01*
X152733464Y-65382904D01*
X152733464Y-65192428D01*
X152685845Y-65097190D01*
X152638226Y-65049571D01*
X152542988Y-65001952D01*
X153685845Y-65573380D02*
X153114416Y-65573380D01*
X153400130Y-65573380D02*
X153400130Y-64573380D01*
X153304892Y-64716238D01*
X153209654Y-64811476D01*
X153114416Y-64859095D01*
X154876321Y-65573380D02*
X154876321Y-64906714D01*
X154876321Y-65001952D02*
X154923940Y-64954333D01*
X155019178Y-64906714D01*
X155162035Y-64906714D01*
X155257273Y-64954333D01*
X155304892Y-65049571D01*
X155304892Y-65573380D01*
X155304892Y-65049571D02*
X155352511Y-64954333D01*
X155447750Y-64906714D01*
X155590607Y-64906714D01*
X155685845Y-64954333D01*
X155733464Y-65049571D01*
X155733464Y-65573380D01*
X156209654Y-65573380D02*
X156209654Y-64906714D01*
X156209654Y-65001952D02*
X156257273Y-64954333D01*
X156352511Y-64906714D01*
X156495369Y-64906714D01*
X156590607Y-64954333D01*
X156638226Y-65049571D01*
X156638226Y-65573380D01*
X156638226Y-65049571D02*
X156685845Y-64954333D01*
X156781083Y-64906714D01*
X156923940Y-64906714D01*
X157019178Y-64954333D01*
X157066797Y-65049571D01*
X157066797Y-65573380D01*
X148907500Y-66421000D02*
X157988000Y-66421000D01*
X148907500Y-85471000D02*
X148907500Y-65834579D01*
X157988000Y-85471000D02*
X157988000Y-65834579D01*
X157988000Y-66421000D02*
X156861496Y-67007421D01*
X157988000Y-66421000D02*
X156861496Y-65834579D01*
X148907500Y-66421000D02*
X150034004Y-67007421D01*
X148907500Y-66421000D02*
X150034004Y-65834579D01*
X131683571Y-65636880D02*
X131874047Y-65636880D01*
X131969285Y-65589261D01*
X132016904Y-65541642D01*
X132112142Y-65398785D01*
X132159761Y-65208309D01*
X132159761Y-64827357D01*
X132112142Y-64732119D01*
X132064523Y-64684500D01*
X131969285Y-64636880D01*
X131778809Y-64636880D01*
X131683571Y-64684500D01*
X131635952Y-64732119D01*
X131588333Y-64827357D01*
X131588333Y-65065452D01*
X131635952Y-65160690D01*
X131683571Y-65208309D01*
X131778809Y-65255928D01*
X131969285Y-65255928D01*
X132064523Y-65208309D01*
X132112142Y-65160690D01*
X132159761Y-65065452D01*
X132588333Y-65541642D02*
X132635952Y-65589261D01*
X132588333Y-65636880D01*
X132540714Y-65589261D01*
X132588333Y-65541642D01*
X132588333Y-65636880D01*
X133588333Y-65636880D02*
X133016904Y-65636880D01*
X133302619Y-65636880D02*
X133302619Y-64636880D01*
X133207380Y-64779738D01*
X133112142Y-64874976D01*
X133016904Y-64922595D01*
X134445476Y-64970214D02*
X134445476Y-65636880D01*
X134207380Y-64589261D02*
X133969285Y-65303547D01*
X134588333Y-65303547D01*
X135397857Y-64970214D02*
X135397857Y-65636880D01*
X135159761Y-64589261D02*
X134921666Y-65303547D01*
X135540714Y-65303547D01*
X136683571Y-65636880D02*
X136683571Y-64970214D01*
X136683571Y-65065452D02*
X136731190Y-65017833D01*
X136826428Y-64970214D01*
X136969285Y-64970214D01*
X137064523Y-65017833D01*
X137112142Y-65113071D01*
X137112142Y-65636880D01*
X137112142Y-65113071D02*
X137159761Y-65017833D01*
X137255000Y-64970214D01*
X137397857Y-64970214D01*
X137493095Y-65017833D01*
X137540714Y-65113071D01*
X137540714Y-65636880D01*
X138016904Y-65636880D02*
X138016904Y-64970214D01*
X138016904Y-65065452D02*
X138064523Y-65017833D01*
X138159761Y-64970214D01*
X138302619Y-64970214D01*
X138397857Y-65017833D01*
X138445476Y-65113071D01*
X138445476Y-65636880D01*
X138445476Y-65113071D02*
X138493095Y-65017833D01*
X138588333Y-64970214D01*
X138731190Y-64970214D01*
X138826428Y-65017833D01*
X138874047Y-65113071D01*
X138874047Y-65636880D01*
X130683000Y-66484500D02*
X139827000Y-66484500D01*
X130683000Y-85471000D02*
X130683000Y-65898079D01*
X139827000Y-85471000D02*
X139827000Y-65898079D01*
X139827000Y-66484500D02*
X138700496Y-67070921D01*
X139827000Y-66484500D02*
X138700496Y-65898079D01*
X130683000Y-66484500D02*
X131809504Y-67070921D01*
X130683000Y-66484500D02*
X131809504Y-65898079D01*
X122571321Y-65509880D02*
X122761797Y-65509880D01*
X122857035Y-65462261D01*
X122904654Y-65414642D01*
X122999892Y-65271785D01*
X123047511Y-65081309D01*
X123047511Y-64700357D01*
X122999892Y-64605119D01*
X122952273Y-64557500D01*
X122857035Y-64509880D01*
X122666559Y-64509880D01*
X122571321Y-64557500D01*
X122523702Y-64605119D01*
X122476083Y-64700357D01*
X122476083Y-64938452D01*
X122523702Y-65033690D01*
X122571321Y-65081309D01*
X122666559Y-65128928D01*
X122857035Y-65128928D01*
X122952273Y-65081309D01*
X122999892Y-65033690D01*
X123047511Y-64938452D01*
X123476083Y-65414642D02*
X123523702Y-65462261D01*
X123476083Y-65509880D01*
X123428464Y-65462261D01*
X123476083Y-65414642D01*
X123476083Y-65509880D01*
X124142750Y-64509880D02*
X124237988Y-64509880D01*
X124333226Y-64557500D01*
X124380845Y-64605119D01*
X124428464Y-64700357D01*
X124476083Y-64890833D01*
X124476083Y-65128928D01*
X124428464Y-65319404D01*
X124380845Y-65414642D01*
X124333226Y-65462261D01*
X124237988Y-65509880D01*
X124142750Y-65509880D01*
X124047511Y-65462261D01*
X123999892Y-65414642D01*
X123952273Y-65319404D01*
X123904654Y-65128928D01*
X123904654Y-64890833D01*
X123952273Y-64700357D01*
X123999892Y-64605119D01*
X124047511Y-64557500D01*
X124142750Y-64509880D01*
X125047511Y-64938452D02*
X124952273Y-64890833D01*
X124904654Y-64843214D01*
X124857035Y-64747976D01*
X124857035Y-64700357D01*
X124904654Y-64605119D01*
X124952273Y-64557500D01*
X125047511Y-64509880D01*
X125237988Y-64509880D01*
X125333226Y-64557500D01*
X125380845Y-64605119D01*
X125428464Y-64700357D01*
X125428464Y-64747976D01*
X125380845Y-64843214D01*
X125333226Y-64890833D01*
X125237988Y-64938452D01*
X125047511Y-64938452D01*
X124952273Y-64986071D01*
X124904654Y-65033690D01*
X124857035Y-65128928D01*
X124857035Y-65319404D01*
X124904654Y-65414642D01*
X124952273Y-65462261D01*
X125047511Y-65509880D01*
X125237988Y-65509880D01*
X125333226Y-65462261D01*
X125380845Y-65414642D01*
X125428464Y-65319404D01*
X125428464Y-65128928D01*
X125380845Y-65033690D01*
X125333226Y-64986071D01*
X125237988Y-64938452D01*
X126380845Y-65509880D02*
X125809416Y-65509880D01*
X126095130Y-65509880D02*
X126095130Y-64509880D01*
X125999892Y-64652738D01*
X125904654Y-64747976D01*
X125809416Y-64795595D01*
X127571321Y-65509880D02*
X127571321Y-64843214D01*
X127571321Y-64938452D02*
X127618940Y-64890833D01*
X127714178Y-64843214D01*
X127857035Y-64843214D01*
X127952273Y-64890833D01*
X127999892Y-64986071D01*
X127999892Y-65509880D01*
X127999892Y-64986071D02*
X128047511Y-64890833D01*
X128142750Y-64843214D01*
X128285607Y-64843214D01*
X128380845Y-64890833D01*
X128428464Y-64986071D01*
X128428464Y-65509880D01*
X128904654Y-65509880D02*
X128904654Y-64843214D01*
X128904654Y-64938452D02*
X128952273Y-64890833D01*
X129047511Y-64843214D01*
X129190369Y-64843214D01*
X129285607Y-64890833D01*
X129333226Y-64986071D01*
X129333226Y-65509880D01*
X129333226Y-64986071D02*
X129380845Y-64890833D01*
X129476083Y-64843214D01*
X129618940Y-64843214D01*
X129714178Y-64890833D01*
X129761797Y-64986071D01*
X129761797Y-65509880D01*
X121602500Y-66357500D02*
X130683000Y-66357500D01*
X121602500Y-85471000D02*
X121602500Y-65771079D01*
X130683000Y-85471000D02*
X130683000Y-65771079D01*
X130683000Y-66357500D02*
X129556496Y-66943921D01*
X130683000Y-66357500D02*
X129556496Y-65771079D01*
X121602500Y-66357500D02*
X122729004Y-66943921D01*
X121602500Y-66357500D02*
X122729004Y-65771079D01*
X140827571Y-65573380D02*
X141018047Y-65573380D01*
X141113285Y-65525761D01*
X141160904Y-65478142D01*
X141256142Y-65335285D01*
X141303761Y-65144809D01*
X141303761Y-64763857D01*
X141256142Y-64668619D01*
X141208523Y-64621000D01*
X141113285Y-64573380D01*
X140922809Y-64573380D01*
X140827571Y-64621000D01*
X140779952Y-64668619D01*
X140732333Y-64763857D01*
X140732333Y-65001952D01*
X140779952Y-65097190D01*
X140827571Y-65144809D01*
X140922809Y-65192428D01*
X141113285Y-65192428D01*
X141208523Y-65144809D01*
X141256142Y-65097190D01*
X141303761Y-65001952D01*
X141732333Y-65478142D02*
X141779952Y-65525761D01*
X141732333Y-65573380D01*
X141684714Y-65525761D01*
X141732333Y-65478142D01*
X141732333Y-65573380D01*
X142732333Y-65573380D02*
X142160904Y-65573380D01*
X142446619Y-65573380D02*
X142446619Y-64573380D01*
X142351380Y-64716238D01*
X142256142Y-64811476D01*
X142160904Y-64859095D01*
X143589476Y-64906714D02*
X143589476Y-65573380D01*
X143351380Y-64525761D02*
X143113285Y-65240047D01*
X143732333Y-65240047D01*
X144541857Y-64906714D02*
X144541857Y-65573380D01*
X144303761Y-64525761D02*
X144065666Y-65240047D01*
X144684714Y-65240047D01*
X145827571Y-65573380D02*
X145827571Y-64906714D01*
X145827571Y-65001952D02*
X145875190Y-64954333D01*
X145970428Y-64906714D01*
X146113285Y-64906714D01*
X146208523Y-64954333D01*
X146256142Y-65049571D01*
X146256142Y-65573380D01*
X146256142Y-65049571D02*
X146303761Y-64954333D01*
X146399000Y-64906714D01*
X146541857Y-64906714D01*
X146637095Y-64954333D01*
X146684714Y-65049571D01*
X146684714Y-65573380D01*
X147160904Y-65573380D02*
X147160904Y-64906714D01*
X147160904Y-65001952D02*
X147208523Y-64954333D01*
X147303761Y-64906714D01*
X147446619Y-64906714D01*
X147541857Y-64954333D01*
X147589476Y-65049571D01*
X147589476Y-65573380D01*
X147589476Y-65049571D02*
X147637095Y-64954333D01*
X147732333Y-64906714D01*
X147875190Y-64906714D01*
X147970428Y-64954333D01*
X148018047Y-65049571D01*
X148018047Y-65573380D01*
X139827000Y-66421000D02*
X148971000Y-66421000D01*
X139827000Y-85471000D02*
X139827000Y-65834579D01*
X148971000Y-85471000D02*
X148971000Y-65834579D01*
X148971000Y-66421000D02*
X147844496Y-67007421D01*
X148971000Y-66421000D02*
X147844496Y-65834579D01*
X139827000Y-66421000D02*
X140953504Y-67007421D01*
X139827000Y-66421000D02*
X140953504Y-65834579D01*
X113490821Y-65509880D02*
X113681297Y-65509880D01*
X113776535Y-65462261D01*
X113824154Y-65414642D01*
X113919392Y-65271785D01*
X113967011Y-65081309D01*
X113967011Y-64700357D01*
X113919392Y-64605119D01*
X113871773Y-64557500D01*
X113776535Y-64509880D01*
X113586059Y-64509880D01*
X113490821Y-64557500D01*
X113443202Y-64605119D01*
X113395583Y-64700357D01*
X113395583Y-64938452D01*
X113443202Y-65033690D01*
X113490821Y-65081309D01*
X113586059Y-65128928D01*
X113776535Y-65128928D01*
X113871773Y-65081309D01*
X113919392Y-65033690D01*
X113967011Y-64938452D01*
X114395583Y-65414642D02*
X114443202Y-65462261D01*
X114395583Y-65509880D01*
X114347964Y-65462261D01*
X114395583Y-65414642D01*
X114395583Y-65509880D01*
X115062250Y-64509880D02*
X115157488Y-64509880D01*
X115252726Y-64557500D01*
X115300345Y-64605119D01*
X115347964Y-64700357D01*
X115395583Y-64890833D01*
X115395583Y-65128928D01*
X115347964Y-65319404D01*
X115300345Y-65414642D01*
X115252726Y-65462261D01*
X115157488Y-65509880D01*
X115062250Y-65509880D01*
X114967011Y-65462261D01*
X114919392Y-65414642D01*
X114871773Y-65319404D01*
X114824154Y-65128928D01*
X114824154Y-64890833D01*
X114871773Y-64700357D01*
X114919392Y-64605119D01*
X114967011Y-64557500D01*
X115062250Y-64509880D01*
X115967011Y-64938452D02*
X115871773Y-64890833D01*
X115824154Y-64843214D01*
X115776535Y-64747976D01*
X115776535Y-64700357D01*
X115824154Y-64605119D01*
X115871773Y-64557500D01*
X115967011Y-64509880D01*
X116157488Y-64509880D01*
X116252726Y-64557500D01*
X116300345Y-64605119D01*
X116347964Y-64700357D01*
X116347964Y-64747976D01*
X116300345Y-64843214D01*
X116252726Y-64890833D01*
X116157488Y-64938452D01*
X115967011Y-64938452D01*
X115871773Y-64986071D01*
X115824154Y-65033690D01*
X115776535Y-65128928D01*
X115776535Y-65319404D01*
X115824154Y-65414642D01*
X115871773Y-65462261D01*
X115967011Y-65509880D01*
X116157488Y-65509880D01*
X116252726Y-65462261D01*
X116300345Y-65414642D01*
X116347964Y-65319404D01*
X116347964Y-65128928D01*
X116300345Y-65033690D01*
X116252726Y-64986071D01*
X116157488Y-64938452D01*
X117300345Y-65509880D02*
X116728916Y-65509880D01*
X117014630Y-65509880D02*
X117014630Y-64509880D01*
X116919392Y-64652738D01*
X116824154Y-64747976D01*
X116728916Y-64795595D01*
X118490821Y-65509880D02*
X118490821Y-64843214D01*
X118490821Y-64938452D02*
X118538440Y-64890833D01*
X118633678Y-64843214D01*
X118776535Y-64843214D01*
X118871773Y-64890833D01*
X118919392Y-64986071D01*
X118919392Y-65509880D01*
X118919392Y-64986071D02*
X118967011Y-64890833D01*
X119062250Y-64843214D01*
X119205107Y-64843214D01*
X119300345Y-64890833D01*
X119347964Y-64986071D01*
X119347964Y-65509880D01*
X119824154Y-65509880D02*
X119824154Y-64843214D01*
X119824154Y-64938452D02*
X119871773Y-64890833D01*
X119967011Y-64843214D01*
X120109869Y-64843214D01*
X120205107Y-64890833D01*
X120252726Y-64986071D01*
X120252726Y-65509880D01*
X120252726Y-64986071D02*
X120300345Y-64890833D01*
X120395583Y-64843214D01*
X120538440Y-64843214D01*
X120633678Y-64890833D01*
X120681297Y-64986071D01*
X120681297Y-65509880D01*
X112522000Y-66357500D02*
X121602500Y-66357500D01*
X112522000Y-85471000D02*
X112522000Y-65771079D01*
X121602500Y-85471000D02*
X121602500Y-65771079D01*
X121602500Y-66357500D02*
X120475996Y-66943921D01*
X121602500Y-66357500D02*
X120475996Y-65771079D01*
X112522000Y-66357500D02*
X113648504Y-66943921D01*
X112522000Y-66357500D02*
X113648504Y-65771079D01*
X215207714Y-95805166D02*
X215874380Y-95805166D01*
X214826761Y-96043261D02*
X215541047Y-96281357D01*
X215541047Y-95662309D01*
X214874380Y-95376595D02*
X214874380Y-94709928D01*
X215874380Y-95138500D01*
X215779142Y-94328976D02*
X215826761Y-94281357D01*
X215874380Y-94328976D01*
X215826761Y-94376595D01*
X215779142Y-94328976D01*
X215874380Y-94328976D01*
X214874380Y-93424214D02*
X214874380Y-93614690D01*
X214922000Y-93709928D01*
X214969619Y-93757547D01*
X215112476Y-93852785D01*
X215302952Y-93900404D01*
X215683904Y-93900404D01*
X215779142Y-93852785D01*
X215826761Y-93805166D01*
X215874380Y-93709928D01*
X215874380Y-93519452D01*
X215826761Y-93424214D01*
X215779142Y-93376595D01*
X215683904Y-93328976D01*
X215445809Y-93328976D01*
X215350571Y-93376595D01*
X215302952Y-93424214D01*
X215255333Y-93519452D01*
X215255333Y-93709928D01*
X215302952Y-93805166D01*
X215350571Y-93852785D01*
X215445809Y-93900404D01*
X214969619Y-92948023D02*
X214922000Y-92900404D01*
X214874380Y-92805166D01*
X214874380Y-92567071D01*
X214922000Y-92471833D01*
X214969619Y-92424214D01*
X215064857Y-92376595D01*
X215160095Y-92376595D01*
X215302952Y-92424214D01*
X215874380Y-92995642D01*
X215874380Y-92376595D01*
X214874380Y-91471833D02*
X214874380Y-91948023D01*
X215350571Y-91995642D01*
X215302952Y-91948023D01*
X215255333Y-91852785D01*
X215255333Y-91614690D01*
X215302952Y-91519452D01*
X215350571Y-91471833D01*
X215445809Y-91424214D01*
X215683904Y-91424214D01*
X215779142Y-91471833D01*
X215826761Y-91519452D01*
X215874380Y-91614690D01*
X215874380Y-91852785D01*
X215826761Y-91948023D01*
X215779142Y-91995642D01*
X215874380Y-90233738D02*
X215207714Y-90233738D01*
X215302952Y-90233738D02*
X215255333Y-90186119D01*
X215207714Y-90090880D01*
X215207714Y-89948023D01*
X215255333Y-89852785D01*
X215350571Y-89805166D01*
X215874380Y-89805166D01*
X215350571Y-89805166D02*
X215255333Y-89757547D01*
X215207714Y-89662309D01*
X215207714Y-89519452D01*
X215255333Y-89424214D01*
X215350571Y-89376595D01*
X215874380Y-89376595D01*
X215874380Y-88900404D02*
X215207714Y-88900404D01*
X215302952Y-88900404D02*
X215255333Y-88852785D01*
X215207714Y-88757547D01*
X215207714Y-88614690D01*
X215255333Y-88519452D01*
X215350571Y-88471833D01*
X215874380Y-88471833D01*
X215350571Y-88471833D02*
X215255333Y-88424214D01*
X215207714Y-88328976D01*
X215207714Y-88186119D01*
X215255333Y-88090880D01*
X215350571Y-88043261D01*
X215874380Y-88043261D01*
X214122000Y-115951000D02*
X214122000Y-68326000D01*
X167132000Y-115951000D02*
X214708421Y-115951000D01*
X167132000Y-68326000D02*
X214708421Y-68326000D01*
X214122000Y-68326000D02*
X214708421Y-69452504D01*
X214122000Y-68326000D02*
X213535579Y-69452504D01*
X214122000Y-115951000D02*
X214708421Y-114824496D01*
X214122000Y-115951000D02*
X213535579Y-114824496D01*
M02*
